G04 #@! TF.GenerationSoftware,KiCad,Pcbnew,5.1.5+dfsg1-2build2*
G04 #@! TF.CreationDate,2021-07-27T21:04:27-05:00*
G04 #@! TF.ProjectId,pico_cube,7069636f-5f63-4756-9265-2e6b69636164,rev?*
G04 #@! TF.SameCoordinates,Original*
G04 #@! TF.FileFunction,Copper,L2,Bot*
G04 #@! TF.FilePolarity,Positive*
%FSLAX46Y46*%
G04 Gerber Fmt 4.6, Leading zero omitted, Abs format (unit mm)*
G04 Created by KiCad (PCBNEW 5.1.5+dfsg1-2build2) date 2021-07-27 21:04:27*
%MOMM*%
%LPD*%
G04 APERTURE LIST*
%ADD10C,1.524000*%
%ADD11C,1.295400*%
%ADD12R,1.295400X1.295400*%
%ADD13C,2.000000*%
%ADD14O,1.400000X1.400000*%
%ADD15C,1.400000*%
%ADD16O,1.700000X1.700000*%
%ADD17R,1.700000X1.700000*%
%ADD18C,0.800000*%
%ADD19C,0.500000*%
%ADD20C,0.254000*%
G04 APERTURE END LIST*
D10*
X91440000Y-57785000D03*
X111760000Y-57785000D03*
X132080000Y-57785000D03*
X152400000Y-57785000D03*
D11*
X128270000Y-88900000D03*
X128270000Y-86360000D03*
X128270000Y-83820000D03*
X128270000Y-81280000D03*
X128270000Y-78740000D03*
X128270000Y-76200000D03*
X128270000Y-73660000D03*
X128270000Y-71120000D03*
X135890000Y-71120000D03*
X135890000Y-73660000D03*
X135890000Y-76200000D03*
X135890000Y-78740000D03*
X135890000Y-81280000D03*
X135890000Y-83820000D03*
X135890000Y-86360000D03*
D12*
X135890000Y-88900000D03*
D13*
X152400000Y-60960000D03*
X132080000Y-60960000D03*
X111760000Y-60960000D03*
X91440000Y-60960000D03*
X152400000Y-81280000D03*
X132080000Y-81280000D03*
X111760000Y-81280000D03*
X91440000Y-81280000D03*
X152400000Y-101600000D03*
X132080000Y-101600000D03*
X111760000Y-101600000D03*
X91440000Y-101600000D03*
X152400000Y-121920000D03*
X132080000Y-121920000D03*
X111760000Y-121920000D03*
X91440000Y-121920000D03*
D11*
X140970000Y-88900000D03*
X140970000Y-86360000D03*
X140970000Y-83820000D03*
X140970000Y-81280000D03*
X140970000Y-78740000D03*
X140970000Y-76200000D03*
X140970000Y-73660000D03*
X140970000Y-71120000D03*
X148590000Y-71120000D03*
X148590000Y-73660000D03*
X148590000Y-76200000D03*
X148590000Y-78740000D03*
X148590000Y-81280000D03*
X148590000Y-83820000D03*
X148590000Y-86360000D03*
D12*
X148590000Y-88900000D03*
D10*
X118110000Y-57150000D03*
X118110000Y-59690000D03*
X118110000Y-62230000D03*
X118110000Y-64770000D03*
X118110000Y-67310000D03*
X118110000Y-69850000D03*
X118110000Y-72390000D03*
X118110000Y-74930000D03*
X118110000Y-77470000D03*
X118110000Y-80010000D03*
X118110000Y-82550000D03*
X118110000Y-85090000D03*
X118110000Y-87630000D03*
X118110000Y-90170000D03*
X118110000Y-92710000D03*
X118110000Y-95250000D03*
X118110000Y-97790000D03*
X118110000Y-100330000D03*
X118110000Y-102870000D03*
X118110000Y-105410000D03*
X100330000Y-105410000D03*
X100330000Y-102870000D03*
X100330000Y-100330000D03*
X100330000Y-97790000D03*
X100330000Y-95250000D03*
X100330000Y-92710000D03*
X100330000Y-90170000D03*
X100330000Y-87630000D03*
X100330000Y-85090000D03*
X100330000Y-82550000D03*
X100330000Y-80010000D03*
X100330000Y-77470000D03*
X100330000Y-74930000D03*
X100330000Y-72390000D03*
X100330000Y-69850000D03*
X100330000Y-67310000D03*
X100330000Y-64770000D03*
X100330000Y-62230000D03*
X100330000Y-59690000D03*
X100330000Y-57150000D03*
D14*
X152400000Y-97790000D03*
D15*
X152400000Y-90170000D03*
D14*
X132080000Y-98552000D03*
D15*
X132080000Y-90932000D03*
D14*
X107950000Y-109855000D03*
D15*
X100330000Y-109855000D03*
D14*
X91440000Y-97790000D03*
D15*
X91440000Y-90170000D03*
D14*
X152400000Y-118110000D03*
D15*
X152400000Y-110490000D03*
D14*
X132080000Y-118110000D03*
D15*
X132080000Y-110490000D03*
D14*
X111760000Y-118110000D03*
D15*
X111760000Y-110490000D03*
D14*
X91440000Y-118110000D03*
D15*
X91440000Y-110490000D03*
D14*
X148590000Y-67310000D03*
D15*
X148590000Y-59690000D03*
D14*
X143510000Y-60960000D03*
D15*
X135890000Y-60960000D03*
D14*
X121285000Y-78105000D03*
D15*
X121285000Y-70485000D03*
D14*
X95250000Y-67310000D03*
D15*
X95250000Y-59690000D03*
D14*
X152400000Y-69850000D03*
D15*
X152400000Y-77470000D03*
D14*
X128270000Y-67310000D03*
D15*
X135890000Y-67310000D03*
D14*
X123825000Y-70485000D03*
D15*
X123825000Y-78105000D03*
D14*
X91440000Y-69850000D03*
D15*
X91440000Y-77470000D03*
D16*
X126365000Y-60325000D03*
D17*
X123825000Y-60325000D03*
D16*
X96520000Y-69850000D03*
X96520000Y-72390000D03*
X96520000Y-74930000D03*
X96520000Y-77470000D03*
X96520000Y-80010000D03*
X96520000Y-82550000D03*
X96520000Y-85090000D03*
X96520000Y-87630000D03*
X96520000Y-90170000D03*
X96520000Y-92710000D03*
X96520000Y-95250000D03*
X96520000Y-97790000D03*
X96520000Y-100330000D03*
X96520000Y-102870000D03*
D17*
X96520000Y-105410000D03*
D10*
X90805000Y-63373000D03*
X90805000Y-67437000D03*
X90805000Y-65405000D03*
X121285000Y-63373000D03*
X121285000Y-67437000D03*
X121285000Y-65405000D03*
X134112000Y-64135000D03*
X130048000Y-64135000D03*
X132080000Y-64135000D03*
X153670000Y-67437000D03*
X153670000Y-63373000D03*
X153670000Y-65405000D03*
D18*
X110744000Y-71882000D03*
X108712000Y-73914000D03*
X123698000Y-86360000D03*
X122116001Y-83762001D03*
X138176000Y-83058000D03*
X130048000Y-77470000D03*
X124460000Y-104140000D03*
X99314000Y-107854999D03*
X139215042Y-97813042D03*
X142917701Y-91166289D03*
X133604000Y-88646000D03*
X130048000Y-82804000D03*
X142067701Y-84663701D03*
X126746000Y-79248000D03*
X130810000Y-71120000D03*
X134874000Y-74930000D03*
X133096000Y-71374000D03*
X131064000Y-82804000D03*
X123444000Y-88646000D03*
X130048000Y-86868000D03*
X133881042Y-82827042D03*
X132334000Y-69088000D03*
X131572000Y-76962000D03*
X132588000Y-73152000D03*
D19*
X112521999Y-58546999D02*
X111760000Y-57785000D01*
X113210001Y-59235001D02*
X112521999Y-58546999D01*
X113210001Y-61663763D02*
X113210001Y-59235001D01*
X117528239Y-65982001D02*
X113210001Y-61663763D01*
X119830001Y-65982001D02*
X117528239Y-65982001D01*
X121285000Y-67437000D02*
X119830001Y-65982001D01*
X96520000Y-69850000D02*
X100330000Y-69850000D01*
X96520000Y-72390000D02*
X100330000Y-72390000D01*
X96520000Y-74930000D02*
X100330000Y-74930000D01*
X100330000Y-77470000D02*
X96520000Y-77470000D01*
X96520000Y-80010000D02*
X100330000Y-80010000D01*
X100330000Y-82550000D02*
X96520000Y-82550000D01*
X96520000Y-85090000D02*
X100330000Y-85090000D01*
X100330000Y-87630000D02*
X96520000Y-87630000D01*
X96520000Y-90170000D02*
X100330000Y-90170000D01*
X100330000Y-92710000D02*
X96520000Y-92710000D01*
X96520000Y-95250000D02*
X100330000Y-95250000D01*
X96520000Y-97790000D02*
X100330000Y-97790000D01*
X96520000Y-100330000D02*
X100330000Y-100330000D01*
X96520000Y-102870000D02*
X100330000Y-102870000D01*
X96520000Y-105410000D02*
X100330000Y-105410000D01*
X121285000Y-60325000D02*
X123825000Y-60325000D01*
X118110000Y-57150000D02*
X121285000Y-60325000D01*
X110744000Y-71882000D02*
X108712000Y-73914000D01*
X94697999Y-66159999D02*
X97147999Y-66159999D01*
X92139999Y-68717999D02*
X94697999Y-66159999D01*
X92139999Y-69150001D02*
X92139999Y-68717999D01*
X91440000Y-69850000D02*
X92139999Y-69150001D01*
X116897999Y-85671761D02*
X117586238Y-86360000D01*
X116897999Y-84271997D02*
X116897999Y-85671761D01*
X101264001Y-68637999D02*
X116897999Y-84271997D01*
X99625999Y-68637999D02*
X101264001Y-68637999D01*
X97147999Y-66159999D02*
X99625999Y-68637999D01*
X117586238Y-86360000D02*
X123698000Y-86360000D01*
X124524999Y-71184999D02*
X123825000Y-70485000D01*
X125557701Y-72217701D02*
X124524999Y-71184999D01*
X128452299Y-72217701D02*
X125557701Y-72217701D01*
X134792299Y-78557701D02*
X128452299Y-72217701D01*
X134792299Y-87802299D02*
X134792299Y-78557701D01*
X135890000Y-88900000D02*
X134792299Y-87802299D01*
X122116001Y-83762001D02*
X122739999Y-83762001D01*
X123825000Y-82677000D02*
X123825000Y-78105000D01*
X122739999Y-83762001D02*
X123825000Y-82677000D01*
X138176000Y-83058000D02*
X138176000Y-79502000D01*
X129367701Y-68407701D02*
X128969999Y-68009999D01*
X129367701Y-71646897D02*
X129367701Y-68407701D01*
X135018505Y-77297701D02*
X129367701Y-71646897D01*
X136072299Y-77297701D02*
X135018505Y-77297701D01*
X128969999Y-68009999D02*
X128270000Y-67310000D01*
X136987701Y-78213103D02*
X136072299Y-77297701D01*
X136987701Y-78313701D02*
X136987701Y-78213103D01*
X138176000Y-79502000D02*
X136987701Y-78313701D01*
X132080000Y-81280000D02*
X132080000Y-79502000D01*
X132080000Y-79502000D02*
X130048000Y-77470000D01*
X111760000Y-62374213D02*
X111760000Y-60960000D01*
X111760000Y-62753762D02*
X111760000Y-62374213D01*
X117644237Y-68637999D02*
X111760000Y-62753762D01*
X119437999Y-68637999D02*
X117644237Y-68637999D01*
X121285000Y-70485000D02*
X119437999Y-68637999D01*
X124460000Y-104140000D02*
X120650000Y-107950000D01*
X120650000Y-107950000D02*
X102108000Y-107950000D01*
X99409001Y-107950000D02*
X99314000Y-107854999D01*
X102108000Y-107950000D02*
X99409001Y-107950000D01*
X128323085Y-108704999D02*
X96258999Y-108704999D01*
X139215042Y-97813042D02*
X128323085Y-108704999D01*
X92139999Y-90869999D02*
X91440000Y-90170000D01*
X95219999Y-93949999D02*
X92139999Y-90869999D01*
X95219999Y-107665999D02*
X95219999Y-93949999D01*
X96258999Y-108704999D02*
X95219999Y-107665999D01*
X147942301Y-79387699D02*
X148590000Y-78740000D01*
X147492299Y-90793787D02*
X147492299Y-79837701D01*
X126646085Y-111640001D02*
X147492299Y-90793787D01*
X147492299Y-79837701D02*
X147942301Y-79387699D01*
X102115001Y-111640001D02*
X126646085Y-111640001D01*
X100330000Y-109855000D02*
X102115001Y-111640001D01*
X132080000Y-98552000D02*
X132080000Y-101600000D01*
X132081424Y-90932000D02*
X132080000Y-90932000D01*
X142517702Y-91566288D02*
X132715712Y-91566288D01*
X132715712Y-91566288D02*
X132081424Y-90932000D01*
X142917701Y-91166289D02*
X142517702Y-91566288D01*
X136897701Y-89997701D02*
X134955701Y-89997701D01*
X139527701Y-87367701D02*
X136897701Y-89997701D01*
X139527701Y-85262299D02*
X139527701Y-87367701D01*
X134955701Y-89997701D02*
X133604000Y-88646000D01*
X129794000Y-82804000D02*
X128270000Y-81280000D01*
X130048000Y-82804000D02*
X129794000Y-82804000D01*
X139527701Y-85262299D02*
X141305701Y-85262299D01*
X141904299Y-84663701D02*
X142067701Y-84663701D01*
X141305701Y-85262299D02*
X141904299Y-84663701D01*
X128270000Y-81280000D02*
X126746000Y-79756000D01*
X126746000Y-79756000D02*
X126746000Y-79248000D01*
X121920000Y-73660000D02*
X128270000Y-73660000D01*
X118110000Y-77470000D02*
X121920000Y-73660000D01*
X139700000Y-74930000D02*
X140970000Y-73660000D01*
X134874000Y-74930000D02*
X139700000Y-74930000D01*
X130810000Y-71120000D02*
X132842000Y-71120000D01*
X132842000Y-71120000D02*
X133096000Y-71374000D01*
X130456001Y-81953999D02*
X131064000Y-82561998D01*
X130456001Y-80926001D02*
X130456001Y-81953999D01*
X128270000Y-78740000D02*
X130456001Y-80926001D01*
X131064000Y-82561998D02*
X131064000Y-82804000D01*
X118871999Y-89408001D02*
X122681999Y-89408001D01*
X118110000Y-90170000D02*
X118871999Y-89408001D01*
X122681999Y-89408001D02*
X123444000Y-88646000D01*
X130048000Y-86868000D02*
X133858000Y-83058000D01*
X133858000Y-83058000D02*
X133858000Y-82804000D01*
X133858000Y-82804000D02*
X133881042Y-82827042D01*
X127622301Y-76847699D02*
X128270000Y-76200000D01*
X124975001Y-79494999D02*
X127622301Y-76847699D01*
X124975001Y-90924999D02*
X124975001Y-79494999D01*
X118110000Y-97790000D02*
X124975001Y-90924999D01*
X140562598Y-69088000D02*
X143256000Y-71781402D01*
X132334000Y-69088000D02*
X140562598Y-69088000D01*
X143256000Y-73914000D02*
X140970000Y-76200000D01*
X143256000Y-71781402D02*
X143256000Y-73914000D01*
X133530001Y-81976001D02*
X133530001Y-79428001D01*
X131686002Y-83820000D02*
X133530001Y-81976001D01*
X128270000Y-83820000D02*
X131686002Y-83820000D01*
X133530001Y-79428001D02*
X131572000Y-77470000D01*
X131572000Y-77470000D02*
X131572000Y-76962000D01*
X140322301Y-71767699D02*
X140970000Y-71120000D01*
X139872299Y-72217701D02*
X140322301Y-71767699D01*
X133522299Y-72217701D02*
X139872299Y-72217701D01*
X132588000Y-73152000D02*
X133522299Y-72217701D01*
D20*
G36*
X90778273Y-56546995D02*
G01*
X90549465Y-56699880D01*
X90354880Y-56894465D01*
X90201995Y-57123273D01*
X90096686Y-57377510D01*
X90043000Y-57647408D01*
X90043000Y-57922592D01*
X90096686Y-58192490D01*
X90201995Y-58446727D01*
X90354880Y-58675535D01*
X90549465Y-58870120D01*
X90778273Y-59023005D01*
X91032510Y-59128314D01*
X91302408Y-59182000D01*
X91577592Y-59182000D01*
X91847490Y-59128314D01*
X92101727Y-59023005D01*
X92330535Y-58870120D01*
X92525120Y-58675535D01*
X92678005Y-58446727D01*
X92783314Y-58192490D01*
X92837000Y-57922592D01*
X92837000Y-57647408D01*
X92783314Y-57377510D01*
X92678005Y-57123273D01*
X92525120Y-56894465D01*
X92330535Y-56699880D01*
X92101727Y-56546995D01*
X92084840Y-56540000D01*
X99070569Y-56540000D01*
X98986686Y-56742510D01*
X98933000Y-57012408D01*
X98933000Y-57287592D01*
X98986686Y-57557490D01*
X99091995Y-57811727D01*
X99244880Y-58040535D01*
X99439465Y-58235120D01*
X99668273Y-58388005D01*
X99745515Y-58420000D01*
X99668273Y-58451995D01*
X99439465Y-58604880D01*
X99244880Y-58799465D01*
X99091995Y-59028273D01*
X98986686Y-59282510D01*
X98933000Y-59552408D01*
X98933000Y-59827592D01*
X98986686Y-60097490D01*
X99091995Y-60351727D01*
X99244880Y-60580535D01*
X99439465Y-60775120D01*
X99668273Y-60928005D01*
X99745515Y-60960000D01*
X99668273Y-60991995D01*
X99439465Y-61144880D01*
X99244880Y-61339465D01*
X99091995Y-61568273D01*
X98986686Y-61822510D01*
X98933000Y-62092408D01*
X98933000Y-62367592D01*
X98986686Y-62637490D01*
X99091995Y-62891727D01*
X99244880Y-63120535D01*
X99439465Y-63315120D01*
X99668273Y-63468005D01*
X99745515Y-63500000D01*
X99668273Y-63531995D01*
X99439465Y-63684880D01*
X99244880Y-63879465D01*
X99091995Y-64108273D01*
X98986686Y-64362510D01*
X98933000Y-64632408D01*
X98933000Y-64907592D01*
X98986686Y-65177490D01*
X99091995Y-65431727D01*
X99244880Y-65660535D01*
X99439465Y-65855120D01*
X99668273Y-66008005D01*
X99745515Y-66040000D01*
X99668273Y-66071995D01*
X99439465Y-66224880D01*
X99244880Y-66419465D01*
X99091995Y-66648273D01*
X99032203Y-66792624D01*
X97804533Y-65564955D01*
X97776816Y-65531182D01*
X97642058Y-65420588D01*
X97488312Y-65338410D01*
X97321489Y-65287804D01*
X97191476Y-65274999D01*
X97191468Y-65274999D01*
X97147999Y-65270718D01*
X97104530Y-65274999D01*
X94741464Y-65274999D01*
X94697998Y-65270718D01*
X94654532Y-65274999D01*
X94654522Y-65274999D01*
X94524509Y-65287804D01*
X94357686Y-65338410D01*
X94203940Y-65420588D01*
X94203938Y-65420589D01*
X94203939Y-65420589D01*
X94102952Y-65503467D01*
X94102950Y-65503469D01*
X94069182Y-65531182D01*
X94041469Y-65564950D01*
X92202000Y-67404420D01*
X92202000Y-67299408D01*
X92148314Y-67029510D01*
X92043005Y-66775273D01*
X91890120Y-66546465D01*
X91764655Y-66421000D01*
X91890120Y-66295535D01*
X92043005Y-66066727D01*
X92148314Y-65812490D01*
X92202000Y-65542592D01*
X92202000Y-65267408D01*
X92148314Y-64997510D01*
X92043005Y-64743273D01*
X91890120Y-64514465D01*
X91695535Y-64319880D01*
X91466727Y-64166995D01*
X91385917Y-64133522D01*
X90805000Y-63552605D01*
X90224083Y-64133522D01*
X90143273Y-64166995D01*
X89914465Y-64319880D01*
X89719880Y-64514465D01*
X89566995Y-64743273D01*
X89461686Y-64997510D01*
X89408000Y-65267408D01*
X89408000Y-65542592D01*
X89461686Y-65812490D01*
X89566995Y-66066727D01*
X89719880Y-66295535D01*
X89845345Y-66421000D01*
X89719880Y-66546465D01*
X89566995Y-66775273D01*
X89461686Y-67029510D01*
X89408000Y-67299408D01*
X89408000Y-67574592D01*
X89461686Y-67844490D01*
X89566995Y-68098727D01*
X89719880Y-68327535D01*
X89914465Y-68522120D01*
X90143273Y-68675005D01*
X90397510Y-68780314D01*
X90584514Y-68817511D01*
X90403038Y-68998987D01*
X90256939Y-69217641D01*
X90156304Y-69460595D01*
X90105000Y-69718514D01*
X90105000Y-69981486D01*
X90156304Y-70239405D01*
X90256939Y-70482359D01*
X90403038Y-70701013D01*
X90588987Y-70886962D01*
X90807641Y-71033061D01*
X91050595Y-71133696D01*
X91308514Y-71185000D01*
X91571486Y-71185000D01*
X91829405Y-71133696D01*
X92072359Y-71033061D01*
X92291013Y-70886962D01*
X92476962Y-70701013D01*
X92623061Y-70482359D01*
X92723696Y-70239405D01*
X92775000Y-69981486D01*
X92775000Y-69771283D01*
X92819700Y-69716817D01*
X92879409Y-69644061D01*
X92879410Y-69644060D01*
X92961588Y-69490314D01*
X93012194Y-69323491D01*
X93024999Y-69193478D01*
X93024999Y-69193468D01*
X93029280Y-69150002D01*
X93024999Y-69106535D01*
X93024999Y-69084577D01*
X94107105Y-68002472D01*
X94213038Y-68161013D01*
X94398987Y-68346962D01*
X94617641Y-68493061D01*
X94860595Y-68593696D01*
X95118514Y-68645000D01*
X95381486Y-68645000D01*
X95639405Y-68593696D01*
X95882359Y-68493061D01*
X96101013Y-68346962D01*
X96286962Y-68161013D01*
X96433061Y-67942359D01*
X96533696Y-67699405D01*
X96585000Y-67441486D01*
X96585000Y-67178514D01*
X96558442Y-67044999D01*
X96781421Y-67044999D01*
X98701421Y-68965000D01*
X97714656Y-68965000D01*
X97673475Y-68903368D01*
X97466632Y-68696525D01*
X97223411Y-68534010D01*
X96953158Y-68422068D01*
X96666260Y-68365000D01*
X96373740Y-68365000D01*
X96086842Y-68422068D01*
X95816589Y-68534010D01*
X95573368Y-68696525D01*
X95366525Y-68903368D01*
X95204010Y-69146589D01*
X95092068Y-69416842D01*
X95035000Y-69703740D01*
X95035000Y-69996260D01*
X95092068Y-70283158D01*
X95204010Y-70553411D01*
X95366525Y-70796632D01*
X95573368Y-71003475D01*
X95747760Y-71120000D01*
X95573368Y-71236525D01*
X95366525Y-71443368D01*
X95204010Y-71686589D01*
X95092068Y-71956842D01*
X95035000Y-72243740D01*
X95035000Y-72536260D01*
X95092068Y-72823158D01*
X95204010Y-73093411D01*
X95366525Y-73336632D01*
X95573368Y-73543475D01*
X95747760Y-73660000D01*
X95573368Y-73776525D01*
X95366525Y-73983368D01*
X95204010Y-74226589D01*
X95092068Y-74496842D01*
X95035000Y-74783740D01*
X95035000Y-75076260D01*
X95092068Y-75363158D01*
X95204010Y-75633411D01*
X95366525Y-75876632D01*
X95573368Y-76083475D01*
X95747760Y-76200000D01*
X95573368Y-76316525D01*
X95366525Y-76523368D01*
X95204010Y-76766589D01*
X95092068Y-77036842D01*
X95035000Y-77323740D01*
X95035000Y-77616260D01*
X95092068Y-77903158D01*
X95204010Y-78173411D01*
X95366525Y-78416632D01*
X95573368Y-78623475D01*
X95747760Y-78740000D01*
X95573368Y-78856525D01*
X95366525Y-79063368D01*
X95204010Y-79306589D01*
X95092068Y-79576842D01*
X95035000Y-79863740D01*
X95035000Y-80156260D01*
X95092068Y-80443158D01*
X95204010Y-80713411D01*
X95366525Y-80956632D01*
X95573368Y-81163475D01*
X95747760Y-81280000D01*
X95573368Y-81396525D01*
X95366525Y-81603368D01*
X95204010Y-81846589D01*
X95092068Y-82116842D01*
X95035000Y-82403740D01*
X95035000Y-82696260D01*
X95092068Y-82983158D01*
X95204010Y-83253411D01*
X95366525Y-83496632D01*
X95573368Y-83703475D01*
X95747760Y-83820000D01*
X95573368Y-83936525D01*
X95366525Y-84143368D01*
X95204010Y-84386589D01*
X95092068Y-84656842D01*
X95035000Y-84943740D01*
X95035000Y-85236260D01*
X95092068Y-85523158D01*
X95204010Y-85793411D01*
X95366525Y-86036632D01*
X95573368Y-86243475D01*
X95747760Y-86360000D01*
X95573368Y-86476525D01*
X95366525Y-86683368D01*
X95204010Y-86926589D01*
X95092068Y-87196842D01*
X95035000Y-87483740D01*
X95035000Y-87776260D01*
X95092068Y-88063158D01*
X95204010Y-88333411D01*
X95366525Y-88576632D01*
X95573368Y-88783475D01*
X95747760Y-88900000D01*
X95573368Y-89016525D01*
X95366525Y-89223368D01*
X95204010Y-89466589D01*
X95092068Y-89736842D01*
X95035000Y-90023740D01*
X95035000Y-90316260D01*
X95092068Y-90603158D01*
X95204010Y-90873411D01*
X95366525Y-91116632D01*
X95573368Y-91323475D01*
X95747760Y-91440000D01*
X95573368Y-91556525D01*
X95366525Y-91763368D01*
X95204010Y-92006589D01*
X95092068Y-92276842D01*
X95043348Y-92521770D01*
X92796535Y-90274957D01*
X92796531Y-90274952D01*
X92775000Y-90253421D01*
X92775000Y-90038514D01*
X92723696Y-89780595D01*
X92623061Y-89537641D01*
X92476962Y-89318987D01*
X92291013Y-89133038D01*
X92072359Y-88986939D01*
X91829405Y-88886304D01*
X91571486Y-88835000D01*
X91308514Y-88835000D01*
X91050595Y-88886304D01*
X90807641Y-88986939D01*
X90588987Y-89133038D01*
X90403038Y-89318987D01*
X90256939Y-89537641D01*
X90156304Y-89780595D01*
X90105000Y-90038514D01*
X90105000Y-90301486D01*
X90156304Y-90559405D01*
X90256939Y-90802359D01*
X90403038Y-91021013D01*
X90588987Y-91206962D01*
X90807641Y-91353061D01*
X91050595Y-91453696D01*
X91308514Y-91505000D01*
X91523421Y-91505000D01*
X91544952Y-91526531D01*
X91544957Y-91526535D01*
X94335000Y-94316579D01*
X94334999Y-107622530D01*
X94330718Y-107665999D01*
X94334999Y-107709468D01*
X94334999Y-107709475D01*
X94347804Y-107839488D01*
X94398410Y-108006311D01*
X94480588Y-108160057D01*
X94591182Y-108294816D01*
X94624955Y-108322533D01*
X95602469Y-109300048D01*
X95630182Y-109333816D01*
X95663950Y-109361529D01*
X95663952Y-109361531D01*
X95764939Y-109444409D01*
X95764940Y-109444410D01*
X95918686Y-109526588D01*
X96085509Y-109577194D01*
X96215522Y-109589999D01*
X96215530Y-109589999D01*
X96258999Y-109594280D01*
X96302468Y-109589999D01*
X99021558Y-109589999D01*
X98995000Y-109723514D01*
X98995000Y-109986486D01*
X99046304Y-110244405D01*
X99146939Y-110487359D01*
X99293038Y-110706013D01*
X99478987Y-110891962D01*
X99697641Y-111038061D01*
X99940595Y-111138696D01*
X100198514Y-111190000D01*
X100413422Y-111190000D01*
X101458471Y-112235050D01*
X101486184Y-112268818D01*
X101519952Y-112296531D01*
X101519954Y-112296533D01*
X101620942Y-112379412D01*
X101774687Y-112461590D01*
X101941511Y-112512196D01*
X102071524Y-112525001D01*
X102071532Y-112525001D01*
X102115001Y-112529282D01*
X102158470Y-112525001D01*
X126602616Y-112525001D01*
X126646085Y-112529282D01*
X126689554Y-112525001D01*
X126689562Y-112525001D01*
X126819575Y-112512196D01*
X126986398Y-112461590D01*
X127140144Y-112379412D01*
X127274902Y-112268818D01*
X127302619Y-112235045D01*
X129179150Y-110358514D01*
X130745000Y-110358514D01*
X130745000Y-110621486D01*
X130796304Y-110879405D01*
X130896939Y-111122359D01*
X131043038Y-111341013D01*
X131228987Y-111526962D01*
X131447641Y-111673061D01*
X131690595Y-111773696D01*
X131948514Y-111825000D01*
X132211486Y-111825000D01*
X132469405Y-111773696D01*
X132712359Y-111673061D01*
X132931013Y-111526962D01*
X133116962Y-111341013D01*
X133263061Y-111122359D01*
X133363696Y-110879405D01*
X133415000Y-110621486D01*
X133415000Y-110358514D01*
X151065000Y-110358514D01*
X151065000Y-110621486D01*
X151116304Y-110879405D01*
X151216939Y-111122359D01*
X151363038Y-111341013D01*
X151548987Y-111526962D01*
X151767641Y-111673061D01*
X152010595Y-111773696D01*
X152268514Y-111825000D01*
X152531486Y-111825000D01*
X152789405Y-111773696D01*
X153032359Y-111673061D01*
X153251013Y-111526962D01*
X153436962Y-111341013D01*
X153583061Y-111122359D01*
X153683696Y-110879405D01*
X153735000Y-110621486D01*
X153735000Y-110358514D01*
X153683696Y-110100595D01*
X153583061Y-109857641D01*
X153436962Y-109638987D01*
X153251013Y-109453038D01*
X153032359Y-109306939D01*
X152789405Y-109206304D01*
X152531486Y-109155000D01*
X152268514Y-109155000D01*
X152010595Y-109206304D01*
X151767641Y-109306939D01*
X151548987Y-109453038D01*
X151363038Y-109638987D01*
X151216939Y-109857641D01*
X151116304Y-110100595D01*
X151065000Y-110358514D01*
X133415000Y-110358514D01*
X133363696Y-110100595D01*
X133263061Y-109857641D01*
X133116962Y-109638987D01*
X132931013Y-109453038D01*
X132712359Y-109306939D01*
X132469405Y-109206304D01*
X132211486Y-109155000D01*
X131948514Y-109155000D01*
X131690595Y-109206304D01*
X131447641Y-109306939D01*
X131228987Y-109453038D01*
X131043038Y-109638987D01*
X130896939Y-109857641D01*
X130796304Y-110100595D01*
X130745000Y-110358514D01*
X129179150Y-110358514D01*
X138098697Y-101438967D01*
X150765000Y-101438967D01*
X150765000Y-101761033D01*
X150827832Y-102076912D01*
X150951082Y-102374463D01*
X151130013Y-102642252D01*
X151357748Y-102869987D01*
X151625537Y-103048918D01*
X151923088Y-103172168D01*
X152238967Y-103235000D01*
X152561033Y-103235000D01*
X152876912Y-103172168D01*
X153174463Y-103048918D01*
X153442252Y-102869987D01*
X153669987Y-102642252D01*
X153848918Y-102374463D01*
X153972168Y-102076912D01*
X154035000Y-101761033D01*
X154035000Y-101438967D01*
X153972168Y-101123088D01*
X153848918Y-100825537D01*
X153669987Y-100557748D01*
X153442252Y-100330013D01*
X153174463Y-100151082D01*
X152876912Y-100027832D01*
X152561033Y-99965000D01*
X152238967Y-99965000D01*
X151923088Y-100027832D01*
X151625537Y-100151082D01*
X151357748Y-100330013D01*
X151130013Y-100557748D01*
X150951082Y-100825537D01*
X150827832Y-101123088D01*
X150765000Y-101438967D01*
X138098697Y-101438967D01*
X141879150Y-97658514D01*
X151065000Y-97658514D01*
X151065000Y-97921486D01*
X151116304Y-98179405D01*
X151216939Y-98422359D01*
X151363038Y-98641013D01*
X151548987Y-98826962D01*
X151767641Y-98973061D01*
X152010595Y-99073696D01*
X152268514Y-99125000D01*
X152531486Y-99125000D01*
X152789405Y-99073696D01*
X153032359Y-98973061D01*
X153251013Y-98826962D01*
X153436962Y-98641013D01*
X153583061Y-98422359D01*
X153683696Y-98179405D01*
X153735000Y-97921486D01*
X153735000Y-97658514D01*
X153683696Y-97400595D01*
X153583061Y-97157641D01*
X153436962Y-96938987D01*
X153251013Y-96753038D01*
X153032359Y-96606939D01*
X152789405Y-96506304D01*
X152531486Y-96455000D01*
X152268514Y-96455000D01*
X152010595Y-96506304D01*
X151767641Y-96606939D01*
X151548987Y-96753038D01*
X151363038Y-96938987D01*
X151216939Y-97157641D01*
X151116304Y-97400595D01*
X151065000Y-97658514D01*
X141879150Y-97658514D01*
X148087350Y-91450315D01*
X148121116Y-91422604D01*
X148189089Y-91339780D01*
X148231710Y-91287846D01*
X148313888Y-91134101D01*
X148364494Y-90967277D01*
X148364494Y-90967276D01*
X148377299Y-90837264D01*
X148377299Y-90837256D01*
X148381580Y-90793787D01*
X148377299Y-90750318D01*
X148377299Y-90185772D01*
X149237700Y-90185772D01*
X149362182Y-90173512D01*
X149481880Y-90137202D01*
X149592194Y-90078237D01*
X149640596Y-90038514D01*
X151065000Y-90038514D01*
X151065000Y-90301486D01*
X151116304Y-90559405D01*
X151216939Y-90802359D01*
X151363038Y-91021013D01*
X151548987Y-91206962D01*
X151767641Y-91353061D01*
X152010595Y-91453696D01*
X152268514Y-91505000D01*
X152531486Y-91505000D01*
X152789405Y-91453696D01*
X153032359Y-91353061D01*
X153251013Y-91206962D01*
X153436962Y-91021013D01*
X153583061Y-90802359D01*
X153683696Y-90559405D01*
X153735000Y-90301486D01*
X153735000Y-90038514D01*
X153683696Y-89780595D01*
X153583061Y-89537641D01*
X153436962Y-89318987D01*
X153251013Y-89133038D01*
X153032359Y-88986939D01*
X152789405Y-88886304D01*
X152531486Y-88835000D01*
X152268514Y-88835000D01*
X152010595Y-88886304D01*
X151767641Y-88986939D01*
X151548987Y-89133038D01*
X151363038Y-89318987D01*
X151216939Y-89537641D01*
X151116304Y-89780595D01*
X151065000Y-90038514D01*
X149640596Y-90038514D01*
X149688885Y-89998885D01*
X149768237Y-89902194D01*
X149827202Y-89791880D01*
X149863512Y-89672182D01*
X149875772Y-89547700D01*
X149875772Y-88252300D01*
X149863512Y-88127818D01*
X149827202Y-88008120D01*
X149768237Y-87897806D01*
X149688885Y-87801115D01*
X149592194Y-87721763D01*
X149481880Y-87662798D01*
X149362182Y-87626488D01*
X149237700Y-87614228D01*
X148859472Y-87614228D01*
X148964150Y-87593406D01*
X149197586Y-87496714D01*
X149407673Y-87356338D01*
X149586338Y-87177673D01*
X149726714Y-86967586D01*
X149823406Y-86734150D01*
X149872700Y-86486335D01*
X149872700Y-86233665D01*
X149823406Y-85985850D01*
X149726714Y-85752414D01*
X149586338Y-85542327D01*
X149407673Y-85363662D01*
X149197586Y-85223286D01*
X148964150Y-85126594D01*
X148780182Y-85090000D01*
X148964150Y-85053406D01*
X149197586Y-84956714D01*
X149407673Y-84816338D01*
X149586338Y-84637673D01*
X149726714Y-84427586D01*
X149823406Y-84194150D01*
X149872700Y-83946335D01*
X149872700Y-83693665D01*
X149823406Y-83445850D01*
X149726714Y-83212414D01*
X149586338Y-83002327D01*
X149407673Y-82823662D01*
X149197586Y-82683286D01*
X148964150Y-82586594D01*
X148780182Y-82550000D01*
X148964150Y-82513406D01*
X149197586Y-82416714D01*
X149407673Y-82276338D01*
X149586338Y-82097673D01*
X149726714Y-81887586D01*
X149823406Y-81654150D01*
X149872700Y-81406335D01*
X149872700Y-81153665D01*
X149865799Y-81118967D01*
X150765000Y-81118967D01*
X150765000Y-81441033D01*
X150827832Y-81756912D01*
X150951082Y-82054463D01*
X151130013Y-82322252D01*
X151357748Y-82549987D01*
X151625537Y-82728918D01*
X151923088Y-82852168D01*
X152238967Y-82915000D01*
X152561033Y-82915000D01*
X152876912Y-82852168D01*
X153174463Y-82728918D01*
X153442252Y-82549987D01*
X153669987Y-82322252D01*
X153848918Y-82054463D01*
X153972168Y-81756912D01*
X154035000Y-81441033D01*
X154035000Y-81118967D01*
X153972168Y-80803088D01*
X153848918Y-80505537D01*
X153669987Y-80237748D01*
X153442252Y-80010013D01*
X153174463Y-79831082D01*
X152876912Y-79707832D01*
X152561033Y-79645000D01*
X152238967Y-79645000D01*
X151923088Y-79707832D01*
X151625537Y-79831082D01*
X151357748Y-80010013D01*
X151130013Y-80237748D01*
X150951082Y-80505537D01*
X150827832Y-80803088D01*
X150765000Y-81118967D01*
X149865799Y-81118967D01*
X149823406Y-80905850D01*
X149726714Y-80672414D01*
X149586338Y-80462327D01*
X149407673Y-80283662D01*
X149197586Y-80143286D01*
X148964150Y-80046594D01*
X148780182Y-80010000D01*
X148964150Y-79973406D01*
X149197586Y-79876714D01*
X149407673Y-79736338D01*
X149586338Y-79557673D01*
X149726714Y-79347586D01*
X149823406Y-79114150D01*
X149872700Y-78866335D01*
X149872700Y-78613665D01*
X149823406Y-78365850D01*
X149726714Y-78132414D01*
X149586338Y-77922327D01*
X149407673Y-77743662D01*
X149197586Y-77603286D01*
X148964150Y-77506594D01*
X148780182Y-77470000D01*
X148964150Y-77433406D01*
X149193240Y-77338514D01*
X151065000Y-77338514D01*
X151065000Y-77601486D01*
X151116304Y-77859405D01*
X151216939Y-78102359D01*
X151363038Y-78321013D01*
X151548987Y-78506962D01*
X151767641Y-78653061D01*
X152010595Y-78753696D01*
X152268514Y-78805000D01*
X152531486Y-78805000D01*
X152789405Y-78753696D01*
X153032359Y-78653061D01*
X153251013Y-78506962D01*
X153436962Y-78321013D01*
X153583061Y-78102359D01*
X153683696Y-77859405D01*
X153735000Y-77601486D01*
X153735000Y-77338514D01*
X153683696Y-77080595D01*
X153583061Y-76837641D01*
X153436962Y-76618987D01*
X153251013Y-76433038D01*
X153032359Y-76286939D01*
X152789405Y-76186304D01*
X152531486Y-76135000D01*
X152268514Y-76135000D01*
X152010595Y-76186304D01*
X151767641Y-76286939D01*
X151548987Y-76433038D01*
X151363038Y-76618987D01*
X151216939Y-76837641D01*
X151116304Y-77080595D01*
X151065000Y-77338514D01*
X149193240Y-77338514D01*
X149197586Y-77336714D01*
X149407673Y-77196338D01*
X149586338Y-77017673D01*
X149726714Y-76807586D01*
X149823406Y-76574150D01*
X149872700Y-76326335D01*
X149872700Y-76073665D01*
X149823406Y-75825850D01*
X149726714Y-75592414D01*
X149586338Y-75382327D01*
X149407673Y-75203662D01*
X149197586Y-75063286D01*
X148964150Y-74966594D01*
X148780182Y-74930000D01*
X148964150Y-74893406D01*
X149197586Y-74796714D01*
X149407673Y-74656338D01*
X149586338Y-74477673D01*
X149726714Y-74267586D01*
X149823406Y-74034150D01*
X149872700Y-73786335D01*
X149872700Y-73533665D01*
X149823406Y-73285850D01*
X149726714Y-73052414D01*
X149586338Y-72842327D01*
X149407673Y-72663662D01*
X149197586Y-72523286D01*
X148964150Y-72426594D01*
X148776192Y-72389206D01*
X148916084Y-72366975D01*
X149153092Y-72279399D01*
X149241168Y-72232321D01*
X149294277Y-72003882D01*
X148590000Y-71299605D01*
X147885723Y-72003882D01*
X147938832Y-72232321D01*
X148168347Y-72337985D01*
X148391995Y-72391556D01*
X148215850Y-72426594D01*
X147982414Y-72523286D01*
X147772327Y-72663662D01*
X147593662Y-72842327D01*
X147453286Y-73052414D01*
X147356594Y-73285850D01*
X147307300Y-73533665D01*
X147307300Y-73786335D01*
X147356594Y-74034150D01*
X147453286Y-74267586D01*
X147593662Y-74477673D01*
X147772327Y-74656338D01*
X147982414Y-74796714D01*
X148215850Y-74893406D01*
X148399818Y-74930000D01*
X148215850Y-74966594D01*
X147982414Y-75063286D01*
X147772327Y-75203662D01*
X147593662Y-75382327D01*
X147453286Y-75592414D01*
X147356594Y-75825850D01*
X147307300Y-76073665D01*
X147307300Y-76326335D01*
X147356594Y-76574150D01*
X147453286Y-76807586D01*
X147593662Y-77017673D01*
X147772327Y-77196338D01*
X147982414Y-77336714D01*
X148215850Y-77433406D01*
X148399818Y-77470000D01*
X148215850Y-77506594D01*
X147982414Y-77603286D01*
X147772327Y-77743662D01*
X147593662Y-77922327D01*
X147453286Y-78132414D01*
X147356594Y-78365850D01*
X147307300Y-78613665D01*
X147307300Y-78771122D01*
X146897251Y-79181171D01*
X146863483Y-79208884D01*
X146835770Y-79242652D01*
X146835767Y-79242655D01*
X146752889Y-79343642D01*
X146670711Y-79497388D01*
X146620104Y-79664211D01*
X146603018Y-79837701D01*
X146607300Y-79881180D01*
X146607299Y-90427208D01*
X139950109Y-97084398D01*
X139874816Y-97009105D01*
X139705298Y-96895837D01*
X139516940Y-96817816D01*
X139316981Y-96778042D01*
X139113103Y-96778042D01*
X138913144Y-96817816D01*
X138724786Y-96895837D01*
X138555268Y-97009105D01*
X138411105Y-97153268D01*
X138297837Y-97322786D01*
X138219816Y-97511144D01*
X138208507Y-97567998D01*
X133618633Y-102157872D01*
X133652168Y-102076912D01*
X133715000Y-101761033D01*
X133715000Y-101438967D01*
X133652168Y-101123088D01*
X133528918Y-100825537D01*
X133349987Y-100557748D01*
X133122252Y-100330013D01*
X132965000Y-100224941D01*
X132965000Y-99554975D01*
X133116962Y-99403013D01*
X133263061Y-99184359D01*
X133363696Y-98941405D01*
X133415000Y-98683486D01*
X133415000Y-98420514D01*
X133363696Y-98162595D01*
X133263061Y-97919641D01*
X133116962Y-97700987D01*
X132931013Y-97515038D01*
X132712359Y-97368939D01*
X132469405Y-97268304D01*
X132211486Y-97217000D01*
X131948514Y-97217000D01*
X131690595Y-97268304D01*
X131447641Y-97368939D01*
X131228987Y-97515038D01*
X131043038Y-97700987D01*
X130896939Y-97919641D01*
X130796304Y-98162595D01*
X130745000Y-98420514D01*
X130745000Y-98683486D01*
X130796304Y-98941405D01*
X130896939Y-99184359D01*
X131043038Y-99403013D01*
X131195000Y-99554975D01*
X131195001Y-100224940D01*
X131037748Y-100330013D01*
X130810013Y-100557748D01*
X130631082Y-100825537D01*
X130507832Y-101123088D01*
X130445000Y-101438967D01*
X130445000Y-101761033D01*
X130507832Y-102076912D01*
X130631082Y-102374463D01*
X130810013Y-102642252D01*
X131037748Y-102869987D01*
X131305537Y-103048918D01*
X131603088Y-103172168D01*
X131918967Y-103235000D01*
X132241033Y-103235000D01*
X132556912Y-103172168D01*
X132637873Y-103138633D01*
X127956507Y-107819999D01*
X122031579Y-107819999D01*
X124705044Y-105146535D01*
X124761898Y-105135226D01*
X124950256Y-105057205D01*
X125119774Y-104943937D01*
X125263937Y-104799774D01*
X125377205Y-104630256D01*
X125455226Y-104441898D01*
X125495000Y-104241939D01*
X125495000Y-104038061D01*
X125455226Y-103838102D01*
X125377205Y-103649744D01*
X125263937Y-103480226D01*
X125119774Y-103336063D01*
X124950256Y-103222795D01*
X124761898Y-103144774D01*
X124561939Y-103105000D01*
X124358061Y-103105000D01*
X124158102Y-103144774D01*
X123969744Y-103222795D01*
X123800226Y-103336063D01*
X123656063Y-103480226D01*
X123542795Y-103649744D01*
X123464774Y-103838102D01*
X123453465Y-103894956D01*
X120283422Y-107065000D01*
X99987712Y-107065000D01*
X99973774Y-107051062D01*
X99804256Y-106937794D01*
X99615898Y-106859773D01*
X99415939Y-106819999D01*
X99212061Y-106819999D01*
X99012102Y-106859773D01*
X98823744Y-106937794D01*
X98654226Y-107051062D01*
X98510063Y-107195225D01*
X98396795Y-107364743D01*
X98318774Y-107553101D01*
X98279000Y-107753060D01*
X98279000Y-107819999D01*
X96625578Y-107819999D01*
X96104999Y-107299421D01*
X96104999Y-106898072D01*
X97370000Y-106898072D01*
X97494482Y-106885812D01*
X97614180Y-106849502D01*
X97724494Y-106790537D01*
X97821185Y-106711185D01*
X97900537Y-106614494D01*
X97959502Y-106504180D01*
X97995812Y-106384482D01*
X98004625Y-106295000D01*
X99241182Y-106295000D01*
X99244880Y-106300535D01*
X99439465Y-106495120D01*
X99668273Y-106648005D01*
X99922510Y-106753314D01*
X100192408Y-106807000D01*
X100467592Y-106807000D01*
X100737490Y-106753314D01*
X100991727Y-106648005D01*
X101220535Y-106495120D01*
X101415120Y-106300535D01*
X101568005Y-106071727D01*
X101673314Y-105817490D01*
X101727000Y-105547592D01*
X101727000Y-105272408D01*
X101673314Y-105002510D01*
X101568005Y-104748273D01*
X101415120Y-104519465D01*
X101220535Y-104324880D01*
X100991727Y-104171995D01*
X100914485Y-104140000D01*
X100991727Y-104108005D01*
X101220535Y-103955120D01*
X101415120Y-103760535D01*
X101568005Y-103531727D01*
X101673314Y-103277490D01*
X101727000Y-103007592D01*
X101727000Y-102732408D01*
X101673314Y-102462510D01*
X101568005Y-102208273D01*
X101415120Y-101979465D01*
X101220535Y-101784880D01*
X100991727Y-101631995D01*
X100914485Y-101600000D01*
X100991727Y-101568005D01*
X101184845Y-101438967D01*
X110125000Y-101438967D01*
X110125000Y-101761033D01*
X110187832Y-102076912D01*
X110311082Y-102374463D01*
X110490013Y-102642252D01*
X110717748Y-102869987D01*
X110985537Y-103048918D01*
X111283088Y-103172168D01*
X111598967Y-103235000D01*
X111921033Y-103235000D01*
X112236912Y-103172168D01*
X112534463Y-103048918D01*
X112802252Y-102869987D01*
X113029987Y-102642252D01*
X113208918Y-102374463D01*
X113332168Y-102076912D01*
X113395000Y-101761033D01*
X113395000Y-101438967D01*
X113332168Y-101123088D01*
X113208918Y-100825537D01*
X113029987Y-100557748D01*
X112802252Y-100330013D01*
X112534463Y-100151082D01*
X112236912Y-100027832D01*
X111921033Y-99965000D01*
X111598967Y-99965000D01*
X111283088Y-100027832D01*
X110985537Y-100151082D01*
X110717748Y-100330013D01*
X110490013Y-100557748D01*
X110311082Y-100825537D01*
X110187832Y-101123088D01*
X110125000Y-101438967D01*
X101184845Y-101438967D01*
X101220535Y-101415120D01*
X101415120Y-101220535D01*
X101568005Y-100991727D01*
X101673314Y-100737490D01*
X101727000Y-100467592D01*
X101727000Y-100192408D01*
X101673314Y-99922510D01*
X101568005Y-99668273D01*
X101415120Y-99439465D01*
X101220535Y-99244880D01*
X100991727Y-99091995D01*
X100914485Y-99060000D01*
X100991727Y-99028005D01*
X101220535Y-98875120D01*
X101415120Y-98680535D01*
X101568005Y-98451727D01*
X101673314Y-98197490D01*
X101727000Y-97927592D01*
X101727000Y-97652408D01*
X101673314Y-97382510D01*
X101568005Y-97128273D01*
X101415120Y-96899465D01*
X101220535Y-96704880D01*
X100991727Y-96551995D01*
X100914485Y-96520000D01*
X100991727Y-96488005D01*
X101220535Y-96335120D01*
X101415120Y-96140535D01*
X101568005Y-95911727D01*
X101673314Y-95657490D01*
X101727000Y-95387592D01*
X101727000Y-95112408D01*
X101673314Y-94842510D01*
X101568005Y-94588273D01*
X101415120Y-94359465D01*
X101220535Y-94164880D01*
X100991727Y-94011995D01*
X100914485Y-93980000D01*
X100991727Y-93948005D01*
X101220535Y-93795120D01*
X101415120Y-93600535D01*
X101568005Y-93371727D01*
X101673314Y-93117490D01*
X101727000Y-92847592D01*
X101727000Y-92572408D01*
X101673314Y-92302510D01*
X101568005Y-92048273D01*
X101415120Y-91819465D01*
X101220535Y-91624880D01*
X100991727Y-91471995D01*
X100914485Y-91440000D01*
X100991727Y-91408005D01*
X101220535Y-91255120D01*
X101415120Y-91060535D01*
X101568005Y-90831727D01*
X101673314Y-90577490D01*
X101727000Y-90307592D01*
X101727000Y-90032408D01*
X101673314Y-89762510D01*
X101568005Y-89508273D01*
X101415120Y-89279465D01*
X101220535Y-89084880D01*
X100991727Y-88931995D01*
X100914485Y-88900000D01*
X100991727Y-88868005D01*
X101220535Y-88715120D01*
X101415120Y-88520535D01*
X101568005Y-88291727D01*
X101673314Y-88037490D01*
X101727000Y-87767592D01*
X101727000Y-87492408D01*
X101673314Y-87222510D01*
X101568005Y-86968273D01*
X101415120Y-86739465D01*
X101220535Y-86544880D01*
X100991727Y-86391995D01*
X100914485Y-86360000D01*
X100991727Y-86328005D01*
X101220535Y-86175120D01*
X101415120Y-85980535D01*
X101568005Y-85751727D01*
X101673314Y-85497490D01*
X101727000Y-85227592D01*
X101727000Y-84952408D01*
X101673314Y-84682510D01*
X101568005Y-84428273D01*
X101415120Y-84199465D01*
X101220535Y-84004880D01*
X100991727Y-83851995D01*
X100914485Y-83820000D01*
X100991727Y-83788005D01*
X101220535Y-83635120D01*
X101415120Y-83440535D01*
X101568005Y-83211727D01*
X101673314Y-82957490D01*
X101727000Y-82687592D01*
X101727000Y-82412408D01*
X101673314Y-82142510D01*
X101568005Y-81888273D01*
X101415120Y-81659465D01*
X101220535Y-81464880D01*
X100991727Y-81311995D01*
X100914485Y-81280000D01*
X100991727Y-81248005D01*
X101220535Y-81095120D01*
X101415120Y-80900535D01*
X101568005Y-80671727D01*
X101673314Y-80417490D01*
X101727000Y-80147592D01*
X101727000Y-79872408D01*
X101673314Y-79602510D01*
X101568005Y-79348273D01*
X101415120Y-79119465D01*
X101220535Y-78924880D01*
X100991727Y-78771995D01*
X100914485Y-78740000D01*
X100991727Y-78708005D01*
X101220535Y-78555120D01*
X101415120Y-78360535D01*
X101568005Y-78131727D01*
X101673314Y-77877490D01*
X101727000Y-77607592D01*
X101727000Y-77332408D01*
X101673314Y-77062510D01*
X101568005Y-76808273D01*
X101415120Y-76579465D01*
X101220535Y-76384880D01*
X100991727Y-76231995D01*
X100914485Y-76200000D01*
X100991727Y-76168005D01*
X101220535Y-76015120D01*
X101415120Y-75820535D01*
X101568005Y-75591727D01*
X101673314Y-75337490D01*
X101727000Y-75067592D01*
X101727000Y-74792408D01*
X101673314Y-74522510D01*
X101568005Y-74268273D01*
X101415120Y-74039465D01*
X101220535Y-73844880D01*
X100991727Y-73691995D01*
X100914485Y-73660000D01*
X100991727Y-73628005D01*
X101220535Y-73475120D01*
X101415120Y-73280535D01*
X101568005Y-73051727D01*
X101673314Y-72797490D01*
X101727000Y-72527592D01*
X101727000Y-72252408D01*
X101673314Y-71982510D01*
X101568005Y-71728273D01*
X101415120Y-71499465D01*
X101220535Y-71304880D01*
X100991727Y-71151995D01*
X100914485Y-71120000D01*
X100991727Y-71088005D01*
X101220535Y-70935120D01*
X101415120Y-70740535D01*
X101568005Y-70511727D01*
X101661188Y-70286764D01*
X111141078Y-79766655D01*
X110985537Y-79831082D01*
X110717748Y-80010013D01*
X110490013Y-80237748D01*
X110311082Y-80505537D01*
X110187832Y-80803088D01*
X110125000Y-81118967D01*
X110125000Y-81441033D01*
X110187832Y-81756912D01*
X110311082Y-82054463D01*
X110490013Y-82322252D01*
X110717748Y-82549987D01*
X110985537Y-82728918D01*
X111283088Y-82852168D01*
X111598967Y-82915000D01*
X111921033Y-82915000D01*
X112236912Y-82852168D01*
X112534463Y-82728918D01*
X112802252Y-82549987D01*
X113029987Y-82322252D01*
X113208918Y-82054463D01*
X113273345Y-81898922D01*
X116012999Y-84638576D01*
X116013000Y-85628282D01*
X116008718Y-85671761D01*
X116025804Y-85845251D01*
X116076411Y-86012074D01*
X116158589Y-86165820D01*
X116241467Y-86266807D01*
X116241470Y-86266810D01*
X116269183Y-86300578D01*
X116302950Y-86328290D01*
X116900408Y-86925749D01*
X116871995Y-86968273D01*
X116766686Y-87222510D01*
X116713000Y-87492408D01*
X116713000Y-87767592D01*
X116766686Y-88037490D01*
X116871995Y-88291727D01*
X117024880Y-88520535D01*
X117219465Y-88715120D01*
X117448273Y-88868005D01*
X117525515Y-88900000D01*
X117448273Y-88931995D01*
X117219465Y-89084880D01*
X117024880Y-89279465D01*
X116871995Y-89508273D01*
X116766686Y-89762510D01*
X116713000Y-90032408D01*
X116713000Y-90307592D01*
X116766686Y-90577490D01*
X116871995Y-90831727D01*
X117024880Y-91060535D01*
X117219465Y-91255120D01*
X117448273Y-91408005D01*
X117525515Y-91440000D01*
X117448273Y-91471995D01*
X117219465Y-91624880D01*
X117024880Y-91819465D01*
X116871995Y-92048273D01*
X116766686Y-92302510D01*
X116713000Y-92572408D01*
X116713000Y-92847592D01*
X116766686Y-93117490D01*
X116871995Y-93371727D01*
X117024880Y-93600535D01*
X117219465Y-93795120D01*
X117448273Y-93948005D01*
X117525515Y-93980000D01*
X117448273Y-94011995D01*
X117219465Y-94164880D01*
X117024880Y-94359465D01*
X116871995Y-94588273D01*
X116766686Y-94842510D01*
X116713000Y-95112408D01*
X116713000Y-95387592D01*
X116766686Y-95657490D01*
X116871995Y-95911727D01*
X117024880Y-96140535D01*
X117219465Y-96335120D01*
X117448273Y-96488005D01*
X117525515Y-96520000D01*
X117448273Y-96551995D01*
X117219465Y-96704880D01*
X117024880Y-96899465D01*
X116871995Y-97128273D01*
X116766686Y-97382510D01*
X116713000Y-97652408D01*
X116713000Y-97927592D01*
X116766686Y-98197490D01*
X116871995Y-98451727D01*
X117024880Y-98680535D01*
X117219465Y-98875120D01*
X117448273Y-99028005D01*
X117525515Y-99060000D01*
X117448273Y-99091995D01*
X117219465Y-99244880D01*
X117024880Y-99439465D01*
X116871995Y-99668273D01*
X116766686Y-99922510D01*
X116713000Y-100192408D01*
X116713000Y-100467592D01*
X116766686Y-100737490D01*
X116871995Y-100991727D01*
X117024880Y-101220535D01*
X117219465Y-101415120D01*
X117448273Y-101568005D01*
X117525515Y-101600000D01*
X117448273Y-101631995D01*
X117219465Y-101784880D01*
X117024880Y-101979465D01*
X116871995Y-102208273D01*
X116766686Y-102462510D01*
X116713000Y-102732408D01*
X116713000Y-103007592D01*
X116766686Y-103277490D01*
X116871995Y-103531727D01*
X117024880Y-103760535D01*
X117219465Y-103955120D01*
X117448273Y-104108005D01*
X117525515Y-104140000D01*
X117448273Y-104171995D01*
X117219465Y-104324880D01*
X117024880Y-104519465D01*
X116871995Y-104748273D01*
X116766686Y-105002510D01*
X116713000Y-105272408D01*
X116713000Y-105547592D01*
X116766686Y-105817490D01*
X116871995Y-106071727D01*
X117024880Y-106300535D01*
X117219465Y-106495120D01*
X117448273Y-106648005D01*
X117702510Y-106753314D01*
X117972408Y-106807000D01*
X118247592Y-106807000D01*
X118517490Y-106753314D01*
X118771727Y-106648005D01*
X119000535Y-106495120D01*
X119195120Y-106300535D01*
X119348005Y-106071727D01*
X119453314Y-105817490D01*
X119507000Y-105547592D01*
X119507000Y-105272408D01*
X119453314Y-105002510D01*
X119348005Y-104748273D01*
X119195120Y-104519465D01*
X119000535Y-104324880D01*
X118771727Y-104171995D01*
X118694485Y-104140000D01*
X118771727Y-104108005D01*
X119000535Y-103955120D01*
X119195120Y-103760535D01*
X119348005Y-103531727D01*
X119453314Y-103277490D01*
X119507000Y-103007592D01*
X119507000Y-102732408D01*
X119453314Y-102462510D01*
X119348005Y-102208273D01*
X119195120Y-101979465D01*
X119000535Y-101784880D01*
X118771727Y-101631995D01*
X118694485Y-101600000D01*
X118771727Y-101568005D01*
X119000535Y-101415120D01*
X119195120Y-101220535D01*
X119348005Y-100991727D01*
X119453314Y-100737490D01*
X119507000Y-100467592D01*
X119507000Y-100192408D01*
X119453314Y-99922510D01*
X119348005Y-99668273D01*
X119195120Y-99439465D01*
X119000535Y-99244880D01*
X118771727Y-99091995D01*
X118694485Y-99060000D01*
X118771727Y-99028005D01*
X119000535Y-98875120D01*
X119195120Y-98680535D01*
X119348005Y-98451727D01*
X119453314Y-98197490D01*
X119507000Y-97927592D01*
X119507000Y-97652408D01*
X119505701Y-97645877D01*
X125570052Y-91581527D01*
X125603818Y-91553816D01*
X125637058Y-91513314D01*
X125714412Y-91419058D01*
X125796590Y-91265313D01*
X125847196Y-91098489D01*
X125850934Y-91060535D01*
X125860001Y-90968476D01*
X125860001Y-90968468D01*
X125864282Y-90924999D01*
X125860001Y-90881530D01*
X125860001Y-79861577D01*
X125866478Y-79855100D01*
X125873805Y-79929489D01*
X125924411Y-80096312D01*
X126006589Y-80250058D01*
X126117183Y-80384817D01*
X126150956Y-80412534D01*
X126987300Y-81248879D01*
X126987300Y-81406335D01*
X127036594Y-81654150D01*
X127133286Y-81887586D01*
X127273662Y-82097673D01*
X127452327Y-82276338D01*
X127662414Y-82416714D01*
X127895850Y-82513406D01*
X128079818Y-82550000D01*
X127895850Y-82586594D01*
X127662414Y-82683286D01*
X127452327Y-82823662D01*
X127273662Y-83002327D01*
X127133286Y-83212414D01*
X127036594Y-83445850D01*
X126987300Y-83693665D01*
X126987300Y-83946335D01*
X127036594Y-84194150D01*
X127133286Y-84427586D01*
X127273662Y-84637673D01*
X127452327Y-84816338D01*
X127662414Y-84956714D01*
X127895850Y-85053406D01*
X128079818Y-85090000D01*
X127895850Y-85126594D01*
X127662414Y-85223286D01*
X127452327Y-85363662D01*
X127273662Y-85542327D01*
X127133286Y-85752414D01*
X127036594Y-85985850D01*
X126987300Y-86233665D01*
X126987300Y-86486335D01*
X127036594Y-86734150D01*
X127133286Y-86967586D01*
X127273662Y-87177673D01*
X127452327Y-87356338D01*
X127662414Y-87496714D01*
X127895850Y-87593406D01*
X128079818Y-87630000D01*
X127895850Y-87666594D01*
X127662414Y-87763286D01*
X127452327Y-87903662D01*
X127273662Y-88082327D01*
X127133286Y-88292414D01*
X127036594Y-88525850D01*
X126987300Y-88773665D01*
X126987300Y-89026335D01*
X127036594Y-89274150D01*
X127133286Y-89507586D01*
X127273662Y-89717673D01*
X127452327Y-89896338D01*
X127662414Y-90036714D01*
X127895850Y-90133406D01*
X128143665Y-90182700D01*
X128396335Y-90182700D01*
X128644150Y-90133406D01*
X128877586Y-90036714D01*
X129087673Y-89896338D01*
X129266338Y-89717673D01*
X129406714Y-89507586D01*
X129503406Y-89274150D01*
X129552700Y-89026335D01*
X129552700Y-88773665D01*
X129503406Y-88525850D01*
X129406714Y-88292414D01*
X129266338Y-88082327D01*
X129087673Y-87903662D01*
X128877586Y-87763286D01*
X128644150Y-87666594D01*
X128460182Y-87630000D01*
X128644150Y-87593406D01*
X128877586Y-87496714D01*
X129087673Y-87356338D01*
X129117603Y-87326408D01*
X129130795Y-87358256D01*
X129244063Y-87527774D01*
X129388226Y-87671937D01*
X129557744Y-87785205D01*
X129746102Y-87863226D01*
X129946061Y-87903000D01*
X130149939Y-87903000D01*
X130349898Y-87863226D01*
X130538256Y-87785205D01*
X130707774Y-87671937D01*
X130851937Y-87527774D01*
X130965205Y-87358256D01*
X131043226Y-87169898D01*
X131054535Y-87113043D01*
X133907299Y-84260279D01*
X133907299Y-87651354D01*
X133905898Y-87650774D01*
X133705939Y-87611000D01*
X133502061Y-87611000D01*
X133302102Y-87650774D01*
X133113744Y-87728795D01*
X132944226Y-87842063D01*
X132800063Y-87986226D01*
X132686795Y-88155744D01*
X132608774Y-88344102D01*
X132569000Y-88544061D01*
X132569000Y-88747939D01*
X132608774Y-88947898D01*
X132686795Y-89136256D01*
X132800063Y-89305774D01*
X132944226Y-89449937D01*
X133113744Y-89563205D01*
X133302102Y-89641226D01*
X133358957Y-89652535D01*
X134299171Y-90592750D01*
X134326884Y-90626518D01*
X134360652Y-90654231D01*
X134360654Y-90654233D01*
X134393620Y-90681288D01*
X133391284Y-90681288D01*
X133363696Y-90542595D01*
X133263061Y-90299641D01*
X133116962Y-90080987D01*
X132931013Y-89895038D01*
X132712359Y-89748939D01*
X132469405Y-89648304D01*
X132211486Y-89597000D01*
X131948514Y-89597000D01*
X131690595Y-89648304D01*
X131447641Y-89748939D01*
X131228987Y-89895038D01*
X131043038Y-90080987D01*
X130896939Y-90299641D01*
X130796304Y-90542595D01*
X130745000Y-90800514D01*
X130745000Y-91063486D01*
X130796304Y-91321405D01*
X130896939Y-91564359D01*
X131043038Y-91783013D01*
X131228987Y-91968962D01*
X131447641Y-92115061D01*
X131690595Y-92215696D01*
X131948514Y-92267000D01*
X132174498Y-92267000D01*
X132221653Y-92305699D01*
X132375398Y-92387877D01*
X132542222Y-92438483D01*
X132672235Y-92451288D01*
X132672243Y-92451288D01*
X132715712Y-92455569D01*
X132759181Y-92451288D01*
X142474233Y-92451288D01*
X142517702Y-92455569D01*
X142561171Y-92451288D01*
X142561179Y-92451288D01*
X142691192Y-92438483D01*
X142858015Y-92387877D01*
X143011761Y-92305699D01*
X143146519Y-92195105D01*
X143165207Y-92172334D01*
X143219599Y-92161515D01*
X143407957Y-92083494D01*
X143577475Y-91970226D01*
X143721638Y-91826063D01*
X143834906Y-91656545D01*
X143912927Y-91468187D01*
X143952701Y-91268228D01*
X143952701Y-91064350D01*
X143912927Y-90864391D01*
X143834906Y-90676033D01*
X143721638Y-90506515D01*
X143577475Y-90362352D01*
X143407957Y-90249084D01*
X143219599Y-90171063D01*
X143019640Y-90131289D01*
X142815762Y-90131289D01*
X142615803Y-90171063D01*
X142427445Y-90249084D01*
X142257927Y-90362352D01*
X142113764Y-90506515D01*
X142000496Y-90676033D01*
X141998319Y-90681288D01*
X137459781Y-90681288D01*
X137526518Y-90626518D01*
X137554235Y-90592745D01*
X139818238Y-88328743D01*
X139736594Y-88525850D01*
X139687300Y-88773665D01*
X139687300Y-89026335D01*
X139736594Y-89274150D01*
X139833286Y-89507586D01*
X139973662Y-89717673D01*
X140152327Y-89896338D01*
X140362414Y-90036714D01*
X140595850Y-90133406D01*
X140843665Y-90182700D01*
X141096335Y-90182700D01*
X141344150Y-90133406D01*
X141577586Y-90036714D01*
X141787673Y-89896338D01*
X141966338Y-89717673D01*
X142106714Y-89507586D01*
X142203406Y-89274150D01*
X142252700Y-89026335D01*
X142252700Y-88773665D01*
X142203406Y-88525850D01*
X142106714Y-88292414D01*
X141966338Y-88082327D01*
X141787673Y-87903662D01*
X141577586Y-87763286D01*
X141344150Y-87666594D01*
X141160182Y-87630000D01*
X141344150Y-87593406D01*
X141577586Y-87496714D01*
X141787673Y-87356338D01*
X141966338Y-87177673D01*
X142106714Y-86967586D01*
X142203406Y-86734150D01*
X142252700Y-86486335D01*
X142252700Y-86233665D01*
X142203406Y-85985850D01*
X142106714Y-85752414D01*
X142090873Y-85728706D01*
X142120877Y-85698701D01*
X142169640Y-85698701D01*
X142369599Y-85658927D01*
X142557957Y-85580906D01*
X142727475Y-85467638D01*
X142871638Y-85323475D01*
X142984906Y-85153957D01*
X143062927Y-84965599D01*
X143102701Y-84765640D01*
X143102701Y-84561762D01*
X143062927Y-84361803D01*
X142984906Y-84173445D01*
X142871638Y-84003927D01*
X142727475Y-83859764D01*
X142557957Y-83746496D01*
X142369599Y-83668475D01*
X142242667Y-83643227D01*
X142203406Y-83445850D01*
X142106714Y-83212414D01*
X141966338Y-83002327D01*
X141787673Y-82823662D01*
X141577586Y-82683286D01*
X141344150Y-82586594D01*
X141160182Y-82550000D01*
X141344150Y-82513406D01*
X141577586Y-82416714D01*
X141787673Y-82276338D01*
X141966338Y-82097673D01*
X142106714Y-81887586D01*
X142203406Y-81654150D01*
X142252700Y-81406335D01*
X142252700Y-81153665D01*
X142203406Y-80905850D01*
X142106714Y-80672414D01*
X141966338Y-80462327D01*
X141787673Y-80283662D01*
X141577586Y-80143286D01*
X141344150Y-80046594D01*
X141160182Y-80010000D01*
X141344150Y-79973406D01*
X141577586Y-79876714D01*
X141787673Y-79736338D01*
X141966338Y-79557673D01*
X142106714Y-79347586D01*
X142203406Y-79114150D01*
X142252700Y-78866335D01*
X142252700Y-78613665D01*
X142203406Y-78365850D01*
X142106714Y-78132414D01*
X141966338Y-77922327D01*
X141787673Y-77743662D01*
X141577586Y-77603286D01*
X141344150Y-77506594D01*
X141160182Y-77470000D01*
X141344150Y-77433406D01*
X141577586Y-77336714D01*
X141787673Y-77196338D01*
X141966338Y-77017673D01*
X142106714Y-76807586D01*
X142203406Y-76574150D01*
X142252700Y-76326335D01*
X142252700Y-76168878D01*
X143851049Y-74570530D01*
X143884817Y-74542817D01*
X143995411Y-74408059D01*
X144077589Y-74254313D01*
X144128195Y-74087490D01*
X144141000Y-73957477D01*
X144141000Y-73957467D01*
X144145281Y-73914001D01*
X144141000Y-73870535D01*
X144141000Y-71824871D01*
X144145281Y-71781402D01*
X144141000Y-71737933D01*
X144141000Y-71737925D01*
X144128195Y-71607912D01*
X144116212Y-71568411D01*
X144077589Y-71441088D01*
X143995411Y-71287343D01*
X143920896Y-71196546D01*
X147303369Y-71196546D01*
X147343025Y-71446084D01*
X147430601Y-71683092D01*
X147477679Y-71771168D01*
X147706118Y-71824277D01*
X148410395Y-71120000D01*
X148769605Y-71120000D01*
X149473882Y-71824277D01*
X149702321Y-71771168D01*
X149807985Y-71541653D01*
X149866843Y-71295934D01*
X149876631Y-71043454D01*
X149836975Y-70793916D01*
X149749399Y-70556908D01*
X149702321Y-70468832D01*
X149473882Y-70415723D01*
X148769605Y-71120000D01*
X148410395Y-71120000D01*
X147706118Y-70415723D01*
X147477679Y-70468832D01*
X147372015Y-70698347D01*
X147313157Y-70944066D01*
X147303369Y-71196546D01*
X143920896Y-71196546D01*
X143912532Y-71186355D01*
X143912530Y-71186353D01*
X143884817Y-71152585D01*
X143851050Y-71124873D01*
X142962295Y-70236118D01*
X147885723Y-70236118D01*
X148590000Y-70940395D01*
X149294277Y-70236118D01*
X149241168Y-70007679D01*
X149011653Y-69902015D01*
X148765934Y-69843157D01*
X148513454Y-69833369D01*
X148263916Y-69873025D01*
X148026908Y-69960601D01*
X147938832Y-70007679D01*
X147885723Y-70236118D01*
X142962295Y-70236118D01*
X142444691Y-69718514D01*
X151065000Y-69718514D01*
X151065000Y-69981486D01*
X151116304Y-70239405D01*
X151216939Y-70482359D01*
X151363038Y-70701013D01*
X151548987Y-70886962D01*
X151767641Y-71033061D01*
X152010595Y-71133696D01*
X152268514Y-71185000D01*
X152531486Y-71185000D01*
X152789405Y-71133696D01*
X153032359Y-71033061D01*
X153251013Y-70886962D01*
X153436962Y-70701013D01*
X153583061Y-70482359D01*
X153683696Y-70239405D01*
X153735000Y-69981486D01*
X153735000Y-69718514D01*
X153683696Y-69460595D01*
X153583061Y-69217641D01*
X153436962Y-68998987D01*
X153251013Y-68813038D01*
X153102908Y-68714078D01*
X153200048Y-68759756D01*
X153467135Y-68826023D01*
X153742017Y-68838910D01*
X154014133Y-68797922D01*
X154273023Y-68704636D01*
X154388980Y-68642656D01*
X154455960Y-68402565D01*
X153670000Y-67616605D01*
X152884040Y-68402565D01*
X152948052Y-68632018D01*
X152789405Y-68566304D01*
X152531486Y-68515000D01*
X152268514Y-68515000D01*
X152010595Y-68566304D01*
X151767641Y-68666939D01*
X151548987Y-68813038D01*
X151363038Y-68998987D01*
X151216939Y-69217641D01*
X151116304Y-69460595D01*
X151065000Y-69718514D01*
X142444691Y-69718514D01*
X141219132Y-68492956D01*
X141191415Y-68459183D01*
X141056657Y-68348589D01*
X140902911Y-68266411D01*
X140736088Y-68215805D01*
X140606075Y-68203000D01*
X140606067Y-68203000D01*
X140562598Y-68198719D01*
X140519129Y-68203000D01*
X136884975Y-68203000D01*
X136926962Y-68161013D01*
X137073061Y-67942359D01*
X137173696Y-67699405D01*
X137225000Y-67441486D01*
X137225000Y-67178514D01*
X147255000Y-67178514D01*
X147255000Y-67441486D01*
X147306304Y-67699405D01*
X147406939Y-67942359D01*
X147553038Y-68161013D01*
X147738987Y-68346962D01*
X147957641Y-68493061D01*
X148200595Y-68593696D01*
X148458514Y-68645000D01*
X148721486Y-68645000D01*
X148979405Y-68593696D01*
X149222359Y-68493061D01*
X149441013Y-68346962D01*
X149626962Y-68161013D01*
X149773061Y-67942359D01*
X149873696Y-67699405D01*
X149911567Y-67509017D01*
X152268090Y-67509017D01*
X152309078Y-67781133D01*
X152402364Y-68040023D01*
X152464344Y-68155980D01*
X152704435Y-68222960D01*
X153490395Y-67437000D01*
X153849605Y-67437000D01*
X154635565Y-68222960D01*
X154875656Y-68155980D01*
X154992756Y-67906952D01*
X155059023Y-67639865D01*
X155071910Y-67364983D01*
X155030922Y-67092867D01*
X154937636Y-66833977D01*
X154875656Y-66718020D01*
X154635565Y-66651040D01*
X153849605Y-67437000D01*
X153490395Y-67437000D01*
X152704435Y-66651040D01*
X152464344Y-66718020D01*
X152347244Y-66967048D01*
X152280977Y-67234135D01*
X152268090Y-67509017D01*
X149911567Y-67509017D01*
X149925000Y-67441486D01*
X149925000Y-67178514D01*
X149873696Y-66920595D01*
X149773061Y-66677641D01*
X149626962Y-66458987D01*
X149441013Y-66273038D01*
X149222359Y-66126939D01*
X148979405Y-66026304D01*
X148721486Y-65975000D01*
X148458514Y-65975000D01*
X148200595Y-66026304D01*
X147957641Y-66126939D01*
X147738987Y-66273038D01*
X147553038Y-66458987D01*
X147406939Y-66677641D01*
X147306304Y-66920595D01*
X147255000Y-67178514D01*
X137225000Y-67178514D01*
X137173696Y-66920595D01*
X137073061Y-66677641D01*
X136926962Y-66458987D01*
X136741013Y-66273038D01*
X136522359Y-66126939D01*
X136279405Y-66026304D01*
X136021486Y-65975000D01*
X135758514Y-65975000D01*
X135500595Y-66026304D01*
X135257641Y-66126939D01*
X135038987Y-66273038D01*
X134853038Y-66458987D01*
X134706939Y-66677641D01*
X134606304Y-66920595D01*
X134555000Y-67178514D01*
X134555000Y-67441486D01*
X134606304Y-67699405D01*
X134706939Y-67942359D01*
X134853038Y-68161013D01*
X134895025Y-68203000D01*
X132872454Y-68203000D01*
X132824256Y-68170795D01*
X132635898Y-68092774D01*
X132435939Y-68053000D01*
X132232061Y-68053000D01*
X132032102Y-68092774D01*
X131843744Y-68170795D01*
X131674226Y-68284063D01*
X131530063Y-68428226D01*
X131416795Y-68597744D01*
X131338774Y-68786102D01*
X131299000Y-68986061D01*
X131299000Y-69189939D01*
X131338774Y-69389898D01*
X131416795Y-69578256D01*
X131530063Y-69747774D01*
X131674226Y-69891937D01*
X131843744Y-70005205D01*
X132032102Y-70083226D01*
X132232061Y-70123000D01*
X132435939Y-70123000D01*
X132635898Y-70083226D01*
X132824256Y-70005205D01*
X132872454Y-69973000D01*
X135303711Y-69973000D01*
X135238832Y-70007679D01*
X135185723Y-70236118D01*
X135890000Y-70940395D01*
X136594277Y-70236118D01*
X136541168Y-70007679D01*
X136465841Y-69973000D01*
X140196020Y-69973000D01*
X140268834Y-70045814D01*
X140152327Y-70123662D01*
X139973662Y-70302327D01*
X139833286Y-70512414D01*
X139736594Y-70745850D01*
X139687300Y-70993665D01*
X139687300Y-71151122D01*
X139505721Y-71332701D01*
X137158036Y-71332701D01*
X137166843Y-71295934D01*
X137176631Y-71043454D01*
X137136975Y-70793916D01*
X137049399Y-70556908D01*
X137002321Y-70468832D01*
X136773882Y-70415723D01*
X136069605Y-71120000D01*
X136083748Y-71134143D01*
X135904143Y-71313748D01*
X135890000Y-71299605D01*
X135875858Y-71313748D01*
X135696253Y-71134143D01*
X135710395Y-71120000D01*
X135006118Y-70415723D01*
X134777679Y-70468832D01*
X134672015Y-70698347D01*
X134613157Y-70944066D01*
X134603369Y-71196546D01*
X134625006Y-71332701D01*
X134131000Y-71332701D01*
X134131000Y-71272061D01*
X134091226Y-71072102D01*
X134013205Y-70883744D01*
X133899937Y-70714226D01*
X133755774Y-70570063D01*
X133586256Y-70456795D01*
X133397898Y-70378774D01*
X133293998Y-70358107D01*
X133182313Y-70298411D01*
X133015490Y-70247805D01*
X132885477Y-70235000D01*
X132885469Y-70235000D01*
X132842000Y-70230719D01*
X132798531Y-70235000D01*
X131348454Y-70235000D01*
X131300256Y-70202795D01*
X131111898Y-70124774D01*
X130911939Y-70085000D01*
X130708061Y-70085000D01*
X130508102Y-70124774D01*
X130319744Y-70202795D01*
X130252701Y-70247592D01*
X130252701Y-68451170D01*
X130256982Y-68407701D01*
X130252701Y-68364232D01*
X130252701Y-68364224D01*
X130239896Y-68234211D01*
X130229680Y-68200535D01*
X130189290Y-68067387D01*
X130116421Y-67931058D01*
X130107112Y-67913642D01*
X129996518Y-67778884D01*
X129962745Y-67751167D01*
X129626536Y-67414958D01*
X129626531Y-67414952D01*
X129605000Y-67393421D01*
X129605000Y-67178514D01*
X129553696Y-66920595D01*
X129453061Y-66677641D01*
X129306962Y-66458987D01*
X129121013Y-66273038D01*
X128902359Y-66126939D01*
X128659405Y-66026304D01*
X128401486Y-65975000D01*
X128138514Y-65975000D01*
X127880595Y-66026304D01*
X127637641Y-66126939D01*
X127418987Y-66273038D01*
X127233038Y-66458987D01*
X127086939Y-66677641D01*
X126986304Y-66920595D01*
X126935000Y-67178514D01*
X126935000Y-67441486D01*
X126986304Y-67699405D01*
X127086939Y-67942359D01*
X127233038Y-68161013D01*
X127418987Y-68346962D01*
X127637641Y-68493061D01*
X127880595Y-68593696D01*
X128138514Y-68645000D01*
X128353421Y-68645000D01*
X128374952Y-68666531D01*
X128374958Y-68666536D01*
X128482702Y-68774280D01*
X128482702Y-69854480D01*
X128396335Y-69837300D01*
X128143665Y-69837300D01*
X127895850Y-69886594D01*
X127662414Y-69983286D01*
X127452327Y-70123662D01*
X127273662Y-70302327D01*
X127133286Y-70512414D01*
X127036594Y-70745850D01*
X126987300Y-70993665D01*
X126987300Y-71246335D01*
X127004479Y-71332701D01*
X125924280Y-71332701D01*
X125181535Y-70589957D01*
X125181531Y-70589952D01*
X125160000Y-70568421D01*
X125160000Y-70353514D01*
X125108696Y-70095595D01*
X125008061Y-69852641D01*
X124861962Y-69633987D01*
X124676013Y-69448038D01*
X124457359Y-69301939D01*
X124214405Y-69201304D01*
X123956486Y-69150000D01*
X123693514Y-69150000D01*
X123435595Y-69201304D01*
X123192641Y-69301939D01*
X122973987Y-69448038D01*
X122788038Y-69633987D01*
X122641939Y-69852641D01*
X122555000Y-70062530D01*
X122468061Y-69852641D01*
X122321962Y-69633987D01*
X122136013Y-69448038D01*
X121917359Y-69301939D01*
X121674405Y-69201304D01*
X121416486Y-69150000D01*
X121201579Y-69150000D01*
X120799636Y-68748057D01*
X120877510Y-68780314D01*
X121147408Y-68834000D01*
X121422592Y-68834000D01*
X121692490Y-68780314D01*
X121946727Y-68675005D01*
X122175535Y-68522120D01*
X122370120Y-68327535D01*
X122523005Y-68098727D01*
X122628314Y-67844490D01*
X122682000Y-67574592D01*
X122682000Y-67299408D01*
X122628314Y-67029510D01*
X122523005Y-66775273D01*
X122370120Y-66546465D01*
X122244655Y-66421000D01*
X122370120Y-66295535D01*
X122523005Y-66066727D01*
X122628314Y-65812490D01*
X122682000Y-65542592D01*
X122682000Y-65267408D01*
X122628314Y-64997510D01*
X122523005Y-64743273D01*
X122370120Y-64514465D01*
X122175535Y-64319880D01*
X121946727Y-64166995D01*
X121865917Y-64133522D01*
X121285000Y-63552605D01*
X120704083Y-64133522D01*
X120623273Y-64166995D01*
X120394465Y-64319880D01*
X120199880Y-64514465D01*
X120046995Y-64743273D01*
X119941686Y-64997510D01*
X119920966Y-65101678D01*
X119873478Y-65097001D01*
X119873470Y-65097001D01*
X119830001Y-65092720D01*
X119786532Y-65097001D01*
X119469324Y-65097001D01*
X119507000Y-64907592D01*
X119507000Y-64632408D01*
X119453314Y-64362510D01*
X119348005Y-64108273D01*
X119195120Y-63879465D01*
X119000535Y-63684880D01*
X118771727Y-63531995D01*
X118700057Y-63502308D01*
X118713023Y-63497636D01*
X118811466Y-63445017D01*
X119883090Y-63445017D01*
X119924078Y-63717133D01*
X120017364Y-63976023D01*
X120079344Y-64091980D01*
X120319435Y-64158960D01*
X121105395Y-63373000D01*
X121464605Y-63373000D01*
X122250565Y-64158960D01*
X122490656Y-64091980D01*
X122535126Y-63997408D01*
X128651000Y-63997408D01*
X128651000Y-64272592D01*
X128704686Y-64542490D01*
X128809995Y-64796727D01*
X128962880Y-65025535D01*
X129157465Y-65220120D01*
X129386273Y-65373005D01*
X129640510Y-65478314D01*
X129910408Y-65532000D01*
X130185592Y-65532000D01*
X130455490Y-65478314D01*
X130709727Y-65373005D01*
X130938535Y-65220120D01*
X131064000Y-65094655D01*
X131189465Y-65220120D01*
X131418273Y-65373005D01*
X131672510Y-65478314D01*
X131942408Y-65532000D01*
X132217592Y-65532000D01*
X132487490Y-65478314D01*
X132741727Y-65373005D01*
X132970535Y-65220120D01*
X133090090Y-65100565D01*
X133326040Y-65100565D01*
X133393020Y-65340656D01*
X133642048Y-65457756D01*
X133909135Y-65524023D01*
X134184017Y-65536910D01*
X134456133Y-65495922D01*
X134715023Y-65402636D01*
X134830980Y-65340656D01*
X134897960Y-65100565D01*
X134112000Y-64314605D01*
X133326040Y-65100565D01*
X133090090Y-65100565D01*
X133165120Y-65025535D01*
X133318005Y-64796727D01*
X133351478Y-64715917D01*
X133932395Y-64135000D01*
X134291605Y-64135000D01*
X135077565Y-64920960D01*
X135317656Y-64853980D01*
X135434756Y-64604952D01*
X135501023Y-64337865D01*
X135513910Y-64062983D01*
X135472922Y-63790867D01*
X135379636Y-63531977D01*
X135317656Y-63416020D01*
X135077565Y-63349040D01*
X134291605Y-64135000D01*
X133932395Y-64135000D01*
X133351478Y-63554083D01*
X133318005Y-63473273D01*
X133165120Y-63244465D01*
X133090090Y-63169435D01*
X133326040Y-63169435D01*
X134112000Y-63955395D01*
X134897960Y-63169435D01*
X134830980Y-62929344D01*
X134581952Y-62812244D01*
X134314865Y-62745977D01*
X134039983Y-62733090D01*
X133767867Y-62774078D01*
X133508977Y-62867364D01*
X133393020Y-62929344D01*
X133326040Y-63169435D01*
X133090090Y-63169435D01*
X132970535Y-63049880D01*
X132741727Y-62896995D01*
X132487490Y-62791686D01*
X132217592Y-62738000D01*
X131942408Y-62738000D01*
X131672510Y-62791686D01*
X131418273Y-62896995D01*
X131189465Y-63049880D01*
X131064000Y-63175345D01*
X130938535Y-63049880D01*
X130709727Y-62896995D01*
X130455490Y-62791686D01*
X130185592Y-62738000D01*
X129910408Y-62738000D01*
X129640510Y-62791686D01*
X129386273Y-62896995D01*
X129157465Y-63049880D01*
X128962880Y-63244465D01*
X128809995Y-63473273D01*
X128704686Y-63727510D01*
X128651000Y-63997408D01*
X122535126Y-63997408D01*
X122607756Y-63842952D01*
X122674023Y-63575865D01*
X122686910Y-63300983D01*
X122645922Y-63028867D01*
X122552636Y-62769977D01*
X122490656Y-62654020D01*
X122250565Y-62587040D01*
X121464605Y-63373000D01*
X121105395Y-63373000D01*
X120319435Y-62587040D01*
X120079344Y-62654020D01*
X119962244Y-62903048D01*
X119895977Y-63170135D01*
X119883090Y-63445017D01*
X118811466Y-63445017D01*
X118828980Y-63435656D01*
X118895960Y-63195565D01*
X118110000Y-62409605D01*
X117324040Y-63195565D01*
X117391020Y-63435656D01*
X117526760Y-63499485D01*
X117448273Y-63531995D01*
X117219465Y-63684880D01*
X117024880Y-63879465D01*
X116885651Y-64087835D01*
X115099833Y-62302017D01*
X116708090Y-62302017D01*
X116749078Y-62574133D01*
X116842364Y-62833023D01*
X116904344Y-62948980D01*
X117144435Y-63015960D01*
X117930395Y-62230000D01*
X118289605Y-62230000D01*
X119075565Y-63015960D01*
X119315656Y-62948980D01*
X119432756Y-62699952D01*
X119499023Y-62432865D01*
X119500215Y-62407435D01*
X120499040Y-62407435D01*
X121285000Y-63193395D01*
X122070960Y-62407435D01*
X122003980Y-62167344D01*
X121754952Y-62050244D01*
X121487865Y-61983977D01*
X121212983Y-61971090D01*
X120940867Y-62012078D01*
X120681977Y-62105364D01*
X120566020Y-62167344D01*
X120499040Y-62407435D01*
X119500215Y-62407435D01*
X119511910Y-62157983D01*
X119470922Y-61885867D01*
X119377636Y-61626977D01*
X119315656Y-61511020D01*
X119075565Y-61444040D01*
X118289605Y-62230000D01*
X117930395Y-62230000D01*
X117144435Y-61444040D01*
X116904344Y-61511020D01*
X116787244Y-61760048D01*
X116720977Y-62027135D01*
X116708090Y-62302017D01*
X115099833Y-62302017D01*
X114095001Y-61297185D01*
X114095001Y-59278470D01*
X114099282Y-59235001D01*
X114095001Y-59191532D01*
X114095001Y-59191524D01*
X114082196Y-59061511D01*
X114031590Y-58894688D01*
X113949412Y-58740942D01*
X113932626Y-58720488D01*
X113866533Y-58639954D01*
X113866531Y-58639952D01*
X113838818Y-58606184D01*
X113805050Y-58578471D01*
X113178535Y-57951957D01*
X113178531Y-57951952D01*
X113155701Y-57929122D01*
X113157000Y-57922592D01*
X113157000Y-57647408D01*
X113103314Y-57377510D01*
X112998005Y-57123273D01*
X112845120Y-56894465D01*
X112650535Y-56699880D01*
X112421727Y-56546995D01*
X112404840Y-56540000D01*
X116850569Y-56540000D01*
X116766686Y-56742510D01*
X116713000Y-57012408D01*
X116713000Y-57287592D01*
X116766686Y-57557490D01*
X116871995Y-57811727D01*
X117024880Y-58040535D01*
X117219465Y-58235120D01*
X117448273Y-58388005D01*
X117525515Y-58420000D01*
X117448273Y-58451995D01*
X117219465Y-58604880D01*
X117024880Y-58799465D01*
X116871995Y-59028273D01*
X116766686Y-59282510D01*
X116713000Y-59552408D01*
X116713000Y-59827592D01*
X116766686Y-60097490D01*
X116871995Y-60351727D01*
X117024880Y-60580535D01*
X117219465Y-60775120D01*
X117448273Y-60928005D01*
X117519943Y-60957692D01*
X117506977Y-60962364D01*
X117391020Y-61024344D01*
X117324040Y-61264435D01*
X118110000Y-62050395D01*
X118895960Y-61264435D01*
X118828980Y-61024344D01*
X118693240Y-60960515D01*
X118771727Y-60928005D01*
X119000535Y-60775120D01*
X119195120Y-60580535D01*
X119348005Y-60351727D01*
X119453314Y-60097490D01*
X119507000Y-59827592D01*
X119507000Y-59798579D01*
X120628470Y-60920049D01*
X120656183Y-60953817D01*
X120689951Y-60981530D01*
X120689953Y-60981532D01*
X120755038Y-61034946D01*
X120790941Y-61064411D01*
X120944687Y-61146589D01*
X121111510Y-61197195D01*
X121241523Y-61210000D01*
X121241533Y-61210000D01*
X121284999Y-61214281D01*
X121328466Y-61210000D01*
X122340375Y-61210000D01*
X122349188Y-61299482D01*
X122385498Y-61419180D01*
X122444463Y-61529494D01*
X122523815Y-61626185D01*
X122620506Y-61705537D01*
X122730820Y-61764502D01*
X122850518Y-61800812D01*
X122975000Y-61813072D01*
X124675000Y-61813072D01*
X124799482Y-61800812D01*
X124919180Y-61764502D01*
X125029494Y-61705537D01*
X125126185Y-61626185D01*
X125205537Y-61529494D01*
X125264502Y-61419180D01*
X125288966Y-61338534D01*
X125364731Y-61422588D01*
X125598080Y-61596641D01*
X125860901Y-61721825D01*
X126008110Y-61766476D01*
X126238000Y-61645155D01*
X126238000Y-60452000D01*
X126492000Y-60452000D01*
X126492000Y-61645155D01*
X126721890Y-61766476D01*
X126869099Y-61721825D01*
X127131920Y-61596641D01*
X127365269Y-61422588D01*
X127560178Y-61206355D01*
X127709157Y-60956252D01*
X127764950Y-60798967D01*
X130445000Y-60798967D01*
X130445000Y-61121033D01*
X130507832Y-61436912D01*
X130631082Y-61734463D01*
X130810013Y-62002252D01*
X131037748Y-62229987D01*
X131305537Y-62408918D01*
X131603088Y-62532168D01*
X131918967Y-62595000D01*
X132241033Y-62595000D01*
X132556912Y-62532168D01*
X132854463Y-62408918D01*
X133122252Y-62229987D01*
X133349987Y-62002252D01*
X133528918Y-61734463D01*
X133652168Y-61436912D01*
X133715000Y-61121033D01*
X133715000Y-60828514D01*
X134555000Y-60828514D01*
X134555000Y-61091486D01*
X134606304Y-61349405D01*
X134706939Y-61592359D01*
X134853038Y-61811013D01*
X135038987Y-61996962D01*
X135257641Y-62143061D01*
X135500595Y-62243696D01*
X135758514Y-62295000D01*
X136021486Y-62295000D01*
X136279405Y-62243696D01*
X136522359Y-62143061D01*
X136741013Y-61996962D01*
X136926962Y-61811013D01*
X137073061Y-61592359D01*
X137173696Y-61349405D01*
X137225000Y-61091486D01*
X137225000Y-60828514D01*
X142175000Y-60828514D01*
X142175000Y-61091486D01*
X142226304Y-61349405D01*
X142326939Y-61592359D01*
X142473038Y-61811013D01*
X142658987Y-61996962D01*
X142877641Y-62143061D01*
X143120595Y-62243696D01*
X143378514Y-62295000D01*
X143641486Y-62295000D01*
X143899405Y-62243696D01*
X144142359Y-62143061D01*
X144361013Y-61996962D01*
X144546962Y-61811013D01*
X144693061Y-61592359D01*
X144793696Y-61349405D01*
X144845000Y-61091486D01*
X144845000Y-60828514D01*
X144793696Y-60570595D01*
X144693061Y-60327641D01*
X144546962Y-60108987D01*
X144361013Y-59923038D01*
X144142359Y-59776939D01*
X143899405Y-59676304D01*
X143641486Y-59625000D01*
X143378514Y-59625000D01*
X143120595Y-59676304D01*
X142877641Y-59776939D01*
X142658987Y-59923038D01*
X142473038Y-60108987D01*
X142326939Y-60327641D01*
X142226304Y-60570595D01*
X142175000Y-60828514D01*
X137225000Y-60828514D01*
X137173696Y-60570595D01*
X137073061Y-60327641D01*
X136926962Y-60108987D01*
X136741013Y-59923038D01*
X136522359Y-59776939D01*
X136279405Y-59676304D01*
X136021486Y-59625000D01*
X135758514Y-59625000D01*
X135500595Y-59676304D01*
X135257641Y-59776939D01*
X135038987Y-59923038D01*
X134853038Y-60108987D01*
X134706939Y-60327641D01*
X134606304Y-60570595D01*
X134555000Y-60828514D01*
X133715000Y-60828514D01*
X133715000Y-60798967D01*
X133652168Y-60483088D01*
X133528918Y-60185537D01*
X133349987Y-59917748D01*
X133122252Y-59690013D01*
X132925450Y-59558514D01*
X147255000Y-59558514D01*
X147255000Y-59821486D01*
X147306304Y-60079405D01*
X147406939Y-60322359D01*
X147553038Y-60541013D01*
X147738987Y-60726962D01*
X147957641Y-60873061D01*
X148200595Y-60973696D01*
X148458514Y-61025000D01*
X148721486Y-61025000D01*
X148979405Y-60973696D01*
X149222359Y-60873061D01*
X149333249Y-60798967D01*
X150765000Y-60798967D01*
X150765000Y-61121033D01*
X150827832Y-61436912D01*
X150951082Y-61734463D01*
X151130013Y-62002252D01*
X151357748Y-62229987D01*
X151625537Y-62408918D01*
X151923088Y-62532168D01*
X152238967Y-62595000D01*
X152509686Y-62595000D01*
X152431995Y-62711273D01*
X152326686Y-62965510D01*
X152273000Y-63235408D01*
X152273000Y-63510592D01*
X152326686Y-63780490D01*
X152431995Y-64034727D01*
X152584880Y-64263535D01*
X152710345Y-64389000D01*
X152584880Y-64514465D01*
X152431995Y-64743273D01*
X152326686Y-64997510D01*
X152273000Y-65267408D01*
X152273000Y-65542592D01*
X152326686Y-65812490D01*
X152431995Y-66066727D01*
X152584880Y-66295535D01*
X152779465Y-66490120D01*
X153008273Y-66643005D01*
X153089083Y-66676478D01*
X153670000Y-67257395D01*
X154250917Y-66676478D01*
X154331727Y-66643005D01*
X154560535Y-66490120D01*
X154755120Y-66295535D01*
X154908005Y-66066727D01*
X155013314Y-65812490D01*
X155067000Y-65542592D01*
X155067000Y-65267408D01*
X155013314Y-64997510D01*
X154908005Y-64743273D01*
X154755120Y-64514465D01*
X154629655Y-64389000D01*
X154755120Y-64263535D01*
X154908005Y-64034727D01*
X155013314Y-63780490D01*
X155067000Y-63510592D01*
X155067000Y-63235408D01*
X155013314Y-62965510D01*
X154908005Y-62711273D01*
X154755120Y-62482465D01*
X154560535Y-62287880D01*
X154331727Y-62134995D01*
X154077490Y-62029686D01*
X153807592Y-61976000D01*
X153687528Y-61976000D01*
X153848918Y-61734463D01*
X153972168Y-61436912D01*
X154035000Y-61121033D01*
X154035000Y-60798967D01*
X153972168Y-60483088D01*
X153848918Y-60185537D01*
X153669987Y-59917748D01*
X153442252Y-59690013D01*
X153174463Y-59511082D01*
X152876912Y-59387832D01*
X152561033Y-59325000D01*
X152238967Y-59325000D01*
X151923088Y-59387832D01*
X151625537Y-59511082D01*
X151357748Y-59690013D01*
X151130013Y-59917748D01*
X150951082Y-60185537D01*
X150827832Y-60483088D01*
X150765000Y-60798967D01*
X149333249Y-60798967D01*
X149441013Y-60726962D01*
X149626962Y-60541013D01*
X149773061Y-60322359D01*
X149873696Y-60079405D01*
X149925000Y-59821486D01*
X149925000Y-59558514D01*
X149873696Y-59300595D01*
X149773061Y-59057641D01*
X149626962Y-58838987D01*
X149441013Y-58653038D01*
X149222359Y-58506939D01*
X148979405Y-58406304D01*
X148721486Y-58355000D01*
X148458514Y-58355000D01*
X148200595Y-58406304D01*
X147957641Y-58506939D01*
X147738987Y-58653038D01*
X147553038Y-58838987D01*
X147406939Y-59057641D01*
X147306304Y-59300595D01*
X147255000Y-59558514D01*
X132925450Y-59558514D01*
X132854463Y-59511082D01*
X132556912Y-59387832D01*
X132241033Y-59325000D01*
X131918967Y-59325000D01*
X131603088Y-59387832D01*
X131305537Y-59511082D01*
X131037748Y-59690013D01*
X130810013Y-59917748D01*
X130631082Y-60185537D01*
X130507832Y-60483088D01*
X130445000Y-60798967D01*
X127764950Y-60798967D01*
X127806481Y-60681891D01*
X127685814Y-60452000D01*
X126492000Y-60452000D01*
X126238000Y-60452000D01*
X126218000Y-60452000D01*
X126218000Y-60198000D01*
X126238000Y-60198000D01*
X126238000Y-59004845D01*
X126492000Y-59004845D01*
X126492000Y-60198000D01*
X127685814Y-60198000D01*
X127806481Y-59968109D01*
X127709157Y-59693748D01*
X127560178Y-59443645D01*
X127365269Y-59227412D01*
X127131920Y-59053359D01*
X126869099Y-58928175D01*
X126721890Y-58883524D01*
X126492000Y-59004845D01*
X126238000Y-59004845D01*
X126008110Y-58883524D01*
X125860901Y-58928175D01*
X125598080Y-59053359D01*
X125364731Y-59227412D01*
X125288966Y-59311466D01*
X125264502Y-59230820D01*
X125205537Y-59120506D01*
X125126185Y-59023815D01*
X125029494Y-58944463D01*
X124919180Y-58885498D01*
X124799482Y-58849188D01*
X124675000Y-58836928D01*
X122975000Y-58836928D01*
X122850518Y-58849188D01*
X122730820Y-58885498D01*
X122620506Y-58944463D01*
X122523815Y-59023815D01*
X122444463Y-59120506D01*
X122385498Y-59230820D01*
X122349188Y-59350518D01*
X122340375Y-59440000D01*
X121651579Y-59440000D01*
X119505701Y-57294123D01*
X119507000Y-57287592D01*
X119507000Y-57012408D01*
X119453314Y-56742510D01*
X119369431Y-56540000D01*
X131435160Y-56540000D01*
X131418273Y-56546995D01*
X131189465Y-56699880D01*
X130994880Y-56894465D01*
X130841995Y-57123273D01*
X130736686Y-57377510D01*
X130683000Y-57647408D01*
X130683000Y-57922592D01*
X130736686Y-58192490D01*
X130841995Y-58446727D01*
X130994880Y-58675535D01*
X131189465Y-58870120D01*
X131418273Y-59023005D01*
X131672510Y-59128314D01*
X131942408Y-59182000D01*
X132217592Y-59182000D01*
X132487490Y-59128314D01*
X132741727Y-59023005D01*
X132970535Y-58870120D01*
X133165120Y-58675535D01*
X133318005Y-58446727D01*
X133423314Y-58192490D01*
X133477000Y-57922592D01*
X133477000Y-57647408D01*
X133423314Y-57377510D01*
X133318005Y-57123273D01*
X133165120Y-56894465D01*
X132970535Y-56699880D01*
X132741727Y-56546995D01*
X132724840Y-56540000D01*
X151755160Y-56540000D01*
X151738273Y-56546995D01*
X151509465Y-56699880D01*
X151314880Y-56894465D01*
X151161995Y-57123273D01*
X151056686Y-57377510D01*
X151003000Y-57647408D01*
X151003000Y-57922592D01*
X151056686Y-58192490D01*
X151161995Y-58446727D01*
X151314880Y-58675535D01*
X151509465Y-58870120D01*
X151738273Y-59023005D01*
X151992510Y-59128314D01*
X152262408Y-59182000D01*
X152537592Y-59182000D01*
X152807490Y-59128314D01*
X153061727Y-59023005D01*
X153290535Y-58870120D01*
X153485120Y-58675535D01*
X153638005Y-58446727D01*
X153743314Y-58192490D01*
X153797000Y-57922592D01*
X153797000Y-57647408D01*
X153743314Y-57377510D01*
X153638005Y-57123273D01*
X153485120Y-56894465D01*
X153290535Y-56699880D01*
X153061727Y-56546995D01*
X153044840Y-56540000D01*
X156820000Y-56540000D01*
X156820001Y-126340000D01*
X87020000Y-126340000D01*
X87020000Y-121758967D01*
X89805000Y-121758967D01*
X89805000Y-122081033D01*
X89867832Y-122396912D01*
X89991082Y-122694463D01*
X90170013Y-122962252D01*
X90397748Y-123189987D01*
X90665537Y-123368918D01*
X90963088Y-123492168D01*
X91278967Y-123555000D01*
X91601033Y-123555000D01*
X91916912Y-123492168D01*
X92214463Y-123368918D01*
X92482252Y-123189987D01*
X92709987Y-122962252D01*
X92888918Y-122694463D01*
X93012168Y-122396912D01*
X93075000Y-122081033D01*
X93075000Y-121758967D01*
X110125000Y-121758967D01*
X110125000Y-122081033D01*
X110187832Y-122396912D01*
X110311082Y-122694463D01*
X110490013Y-122962252D01*
X110717748Y-123189987D01*
X110985537Y-123368918D01*
X111283088Y-123492168D01*
X111598967Y-123555000D01*
X111921033Y-123555000D01*
X112236912Y-123492168D01*
X112534463Y-123368918D01*
X112802252Y-123189987D01*
X113029987Y-122962252D01*
X113208918Y-122694463D01*
X113332168Y-122396912D01*
X113395000Y-122081033D01*
X113395000Y-121758967D01*
X130445000Y-121758967D01*
X130445000Y-122081033D01*
X130507832Y-122396912D01*
X130631082Y-122694463D01*
X130810013Y-122962252D01*
X131037748Y-123189987D01*
X131305537Y-123368918D01*
X131603088Y-123492168D01*
X131918967Y-123555000D01*
X132241033Y-123555000D01*
X132556912Y-123492168D01*
X132854463Y-123368918D01*
X133122252Y-123189987D01*
X133349987Y-122962252D01*
X133528918Y-122694463D01*
X133652168Y-122396912D01*
X133715000Y-122081033D01*
X133715000Y-121758967D01*
X150765000Y-121758967D01*
X150765000Y-122081033D01*
X150827832Y-122396912D01*
X150951082Y-122694463D01*
X151130013Y-122962252D01*
X151357748Y-123189987D01*
X151625537Y-123368918D01*
X151923088Y-123492168D01*
X152238967Y-123555000D01*
X152561033Y-123555000D01*
X152876912Y-123492168D01*
X153174463Y-123368918D01*
X153442252Y-123189987D01*
X153669987Y-122962252D01*
X153848918Y-122694463D01*
X153972168Y-122396912D01*
X154035000Y-122081033D01*
X154035000Y-121758967D01*
X153972168Y-121443088D01*
X153848918Y-121145537D01*
X153669987Y-120877748D01*
X153442252Y-120650013D01*
X153174463Y-120471082D01*
X152876912Y-120347832D01*
X152561033Y-120285000D01*
X152238967Y-120285000D01*
X151923088Y-120347832D01*
X151625537Y-120471082D01*
X151357748Y-120650013D01*
X151130013Y-120877748D01*
X150951082Y-121145537D01*
X150827832Y-121443088D01*
X150765000Y-121758967D01*
X133715000Y-121758967D01*
X133652168Y-121443088D01*
X133528918Y-121145537D01*
X133349987Y-120877748D01*
X133122252Y-120650013D01*
X132854463Y-120471082D01*
X132556912Y-120347832D01*
X132241033Y-120285000D01*
X131918967Y-120285000D01*
X131603088Y-120347832D01*
X131305537Y-120471082D01*
X131037748Y-120650013D01*
X130810013Y-120877748D01*
X130631082Y-121145537D01*
X130507832Y-121443088D01*
X130445000Y-121758967D01*
X113395000Y-121758967D01*
X113332168Y-121443088D01*
X113208918Y-121145537D01*
X113029987Y-120877748D01*
X112802252Y-120650013D01*
X112534463Y-120471082D01*
X112236912Y-120347832D01*
X111921033Y-120285000D01*
X111598967Y-120285000D01*
X111283088Y-120347832D01*
X110985537Y-120471082D01*
X110717748Y-120650013D01*
X110490013Y-120877748D01*
X110311082Y-121145537D01*
X110187832Y-121443088D01*
X110125000Y-121758967D01*
X93075000Y-121758967D01*
X93012168Y-121443088D01*
X92888918Y-121145537D01*
X92709987Y-120877748D01*
X92482252Y-120650013D01*
X92214463Y-120471082D01*
X91916912Y-120347832D01*
X91601033Y-120285000D01*
X91278967Y-120285000D01*
X90963088Y-120347832D01*
X90665537Y-120471082D01*
X90397748Y-120650013D01*
X90170013Y-120877748D01*
X89991082Y-121145537D01*
X89867832Y-121443088D01*
X89805000Y-121758967D01*
X87020000Y-121758967D01*
X87020000Y-117978514D01*
X90105000Y-117978514D01*
X90105000Y-118241486D01*
X90156304Y-118499405D01*
X90256939Y-118742359D01*
X90403038Y-118961013D01*
X90588987Y-119146962D01*
X90807641Y-119293061D01*
X91050595Y-119393696D01*
X91308514Y-119445000D01*
X91571486Y-119445000D01*
X91829405Y-119393696D01*
X92072359Y-119293061D01*
X92291013Y-119146962D01*
X92476962Y-118961013D01*
X92623061Y-118742359D01*
X92723696Y-118499405D01*
X92775000Y-118241486D01*
X92775000Y-117978514D01*
X110425000Y-117978514D01*
X110425000Y-118241486D01*
X110476304Y-118499405D01*
X110576939Y-118742359D01*
X110723038Y-118961013D01*
X110908987Y-119146962D01*
X111127641Y-119293061D01*
X111370595Y-119393696D01*
X111628514Y-119445000D01*
X111891486Y-119445000D01*
X112149405Y-119393696D01*
X112392359Y-119293061D01*
X112611013Y-119146962D01*
X112796962Y-118961013D01*
X112943061Y-118742359D01*
X113043696Y-118499405D01*
X113095000Y-118241486D01*
X113095000Y-117978514D01*
X130745000Y-117978514D01*
X130745000Y-118241486D01*
X130796304Y-118499405D01*
X130896939Y-118742359D01*
X131043038Y-118961013D01*
X131228987Y-119146962D01*
X131447641Y-119293061D01*
X131690595Y-119393696D01*
X131948514Y-119445000D01*
X132211486Y-119445000D01*
X132469405Y-119393696D01*
X132712359Y-119293061D01*
X132931013Y-119146962D01*
X133116962Y-118961013D01*
X133263061Y-118742359D01*
X133363696Y-118499405D01*
X133415000Y-118241486D01*
X133415000Y-117978514D01*
X151065000Y-117978514D01*
X151065000Y-118241486D01*
X151116304Y-118499405D01*
X151216939Y-118742359D01*
X151363038Y-118961013D01*
X151548987Y-119146962D01*
X151767641Y-119293061D01*
X152010595Y-119393696D01*
X152268514Y-119445000D01*
X152531486Y-119445000D01*
X152789405Y-119393696D01*
X153032359Y-119293061D01*
X153251013Y-119146962D01*
X153436962Y-118961013D01*
X153583061Y-118742359D01*
X153683696Y-118499405D01*
X153735000Y-118241486D01*
X153735000Y-117978514D01*
X153683696Y-117720595D01*
X153583061Y-117477641D01*
X153436962Y-117258987D01*
X153251013Y-117073038D01*
X153032359Y-116926939D01*
X152789405Y-116826304D01*
X152531486Y-116775000D01*
X152268514Y-116775000D01*
X152010595Y-116826304D01*
X151767641Y-116926939D01*
X151548987Y-117073038D01*
X151363038Y-117258987D01*
X151216939Y-117477641D01*
X151116304Y-117720595D01*
X151065000Y-117978514D01*
X133415000Y-117978514D01*
X133363696Y-117720595D01*
X133263061Y-117477641D01*
X133116962Y-117258987D01*
X132931013Y-117073038D01*
X132712359Y-116926939D01*
X132469405Y-116826304D01*
X132211486Y-116775000D01*
X131948514Y-116775000D01*
X131690595Y-116826304D01*
X131447641Y-116926939D01*
X131228987Y-117073038D01*
X131043038Y-117258987D01*
X130896939Y-117477641D01*
X130796304Y-117720595D01*
X130745000Y-117978514D01*
X113095000Y-117978514D01*
X113043696Y-117720595D01*
X112943061Y-117477641D01*
X112796962Y-117258987D01*
X112611013Y-117073038D01*
X112392359Y-116926939D01*
X112149405Y-116826304D01*
X111891486Y-116775000D01*
X111628514Y-116775000D01*
X111370595Y-116826304D01*
X111127641Y-116926939D01*
X110908987Y-117073038D01*
X110723038Y-117258987D01*
X110576939Y-117477641D01*
X110476304Y-117720595D01*
X110425000Y-117978514D01*
X92775000Y-117978514D01*
X92723696Y-117720595D01*
X92623061Y-117477641D01*
X92476962Y-117258987D01*
X92291013Y-117073038D01*
X92072359Y-116926939D01*
X91829405Y-116826304D01*
X91571486Y-116775000D01*
X91308514Y-116775000D01*
X91050595Y-116826304D01*
X90807641Y-116926939D01*
X90588987Y-117073038D01*
X90403038Y-117258987D01*
X90256939Y-117477641D01*
X90156304Y-117720595D01*
X90105000Y-117978514D01*
X87020000Y-117978514D01*
X87020000Y-110358514D01*
X90105000Y-110358514D01*
X90105000Y-110621486D01*
X90156304Y-110879405D01*
X90256939Y-111122359D01*
X90403038Y-111341013D01*
X90588987Y-111526962D01*
X90807641Y-111673061D01*
X91050595Y-111773696D01*
X91308514Y-111825000D01*
X91571486Y-111825000D01*
X91829405Y-111773696D01*
X92072359Y-111673061D01*
X92291013Y-111526962D01*
X92476962Y-111341013D01*
X92623061Y-111122359D01*
X92723696Y-110879405D01*
X92775000Y-110621486D01*
X92775000Y-110358514D01*
X92723696Y-110100595D01*
X92623061Y-109857641D01*
X92476962Y-109638987D01*
X92291013Y-109453038D01*
X92072359Y-109306939D01*
X91829405Y-109206304D01*
X91571486Y-109155000D01*
X91308514Y-109155000D01*
X91050595Y-109206304D01*
X90807641Y-109306939D01*
X90588987Y-109453038D01*
X90403038Y-109638987D01*
X90256939Y-109857641D01*
X90156304Y-110100595D01*
X90105000Y-110358514D01*
X87020000Y-110358514D01*
X87020000Y-101438967D01*
X89805000Y-101438967D01*
X89805000Y-101761033D01*
X89867832Y-102076912D01*
X89991082Y-102374463D01*
X90170013Y-102642252D01*
X90397748Y-102869987D01*
X90665537Y-103048918D01*
X90963088Y-103172168D01*
X91278967Y-103235000D01*
X91601033Y-103235000D01*
X91916912Y-103172168D01*
X92214463Y-103048918D01*
X92482252Y-102869987D01*
X92709987Y-102642252D01*
X92888918Y-102374463D01*
X93012168Y-102076912D01*
X93075000Y-101761033D01*
X93075000Y-101438967D01*
X93012168Y-101123088D01*
X92888918Y-100825537D01*
X92709987Y-100557748D01*
X92482252Y-100330013D01*
X92214463Y-100151082D01*
X91916912Y-100027832D01*
X91601033Y-99965000D01*
X91278967Y-99965000D01*
X90963088Y-100027832D01*
X90665537Y-100151082D01*
X90397748Y-100330013D01*
X90170013Y-100557748D01*
X89991082Y-100825537D01*
X89867832Y-101123088D01*
X89805000Y-101438967D01*
X87020000Y-101438967D01*
X87020000Y-97658514D01*
X90105000Y-97658514D01*
X90105000Y-97921486D01*
X90156304Y-98179405D01*
X90256939Y-98422359D01*
X90403038Y-98641013D01*
X90588987Y-98826962D01*
X90807641Y-98973061D01*
X91050595Y-99073696D01*
X91308514Y-99125000D01*
X91571486Y-99125000D01*
X91829405Y-99073696D01*
X92072359Y-98973061D01*
X92291013Y-98826962D01*
X92476962Y-98641013D01*
X92623061Y-98422359D01*
X92723696Y-98179405D01*
X92775000Y-97921486D01*
X92775000Y-97658514D01*
X92723696Y-97400595D01*
X92623061Y-97157641D01*
X92476962Y-96938987D01*
X92291013Y-96753038D01*
X92072359Y-96606939D01*
X91829405Y-96506304D01*
X91571486Y-96455000D01*
X91308514Y-96455000D01*
X91050595Y-96506304D01*
X90807641Y-96606939D01*
X90588987Y-96753038D01*
X90403038Y-96938987D01*
X90256939Y-97157641D01*
X90156304Y-97400595D01*
X90105000Y-97658514D01*
X87020000Y-97658514D01*
X87020000Y-81118967D01*
X89805000Y-81118967D01*
X89805000Y-81441033D01*
X89867832Y-81756912D01*
X89991082Y-82054463D01*
X90170013Y-82322252D01*
X90397748Y-82549987D01*
X90665537Y-82728918D01*
X90963088Y-82852168D01*
X91278967Y-82915000D01*
X91601033Y-82915000D01*
X91916912Y-82852168D01*
X92214463Y-82728918D01*
X92482252Y-82549987D01*
X92709987Y-82322252D01*
X92888918Y-82054463D01*
X93012168Y-81756912D01*
X93075000Y-81441033D01*
X93075000Y-81118967D01*
X93012168Y-80803088D01*
X92888918Y-80505537D01*
X92709987Y-80237748D01*
X92482252Y-80010013D01*
X92214463Y-79831082D01*
X91916912Y-79707832D01*
X91601033Y-79645000D01*
X91278967Y-79645000D01*
X90963088Y-79707832D01*
X90665537Y-79831082D01*
X90397748Y-80010013D01*
X90170013Y-80237748D01*
X89991082Y-80505537D01*
X89867832Y-80803088D01*
X89805000Y-81118967D01*
X87020000Y-81118967D01*
X87020000Y-77338514D01*
X90105000Y-77338514D01*
X90105000Y-77601486D01*
X90156304Y-77859405D01*
X90256939Y-78102359D01*
X90403038Y-78321013D01*
X90588987Y-78506962D01*
X90807641Y-78653061D01*
X91050595Y-78753696D01*
X91308514Y-78805000D01*
X91571486Y-78805000D01*
X91829405Y-78753696D01*
X92072359Y-78653061D01*
X92291013Y-78506962D01*
X92476962Y-78321013D01*
X92623061Y-78102359D01*
X92723696Y-77859405D01*
X92775000Y-77601486D01*
X92775000Y-77338514D01*
X92723696Y-77080595D01*
X92623061Y-76837641D01*
X92476962Y-76618987D01*
X92291013Y-76433038D01*
X92072359Y-76286939D01*
X91829405Y-76186304D01*
X91571486Y-76135000D01*
X91308514Y-76135000D01*
X91050595Y-76186304D01*
X90807641Y-76286939D01*
X90588987Y-76433038D01*
X90403038Y-76618987D01*
X90256939Y-76837641D01*
X90156304Y-77080595D01*
X90105000Y-77338514D01*
X87020000Y-77338514D01*
X87020000Y-63445017D01*
X89403090Y-63445017D01*
X89444078Y-63717133D01*
X89537364Y-63976023D01*
X89599344Y-64091980D01*
X89839435Y-64158960D01*
X90625395Y-63373000D01*
X89839435Y-62587040D01*
X89599344Y-62654020D01*
X89482244Y-62903048D01*
X89415977Y-63170135D01*
X89403090Y-63445017D01*
X87020000Y-63445017D01*
X87020000Y-60798967D01*
X89805000Y-60798967D01*
X89805000Y-61121033D01*
X89867832Y-61436912D01*
X89991082Y-61734463D01*
X90170013Y-62002252D01*
X90254279Y-62086518D01*
X90201977Y-62105364D01*
X90086020Y-62167344D01*
X90019040Y-62407435D01*
X90805000Y-63193395D01*
X90819143Y-63179253D01*
X90998748Y-63358858D01*
X90984605Y-63373000D01*
X91770565Y-64158960D01*
X92010656Y-64091980D01*
X92127756Y-63842952D01*
X92194023Y-63575865D01*
X92206910Y-63300983D01*
X92165922Y-63028867D01*
X92072636Y-62769977D01*
X92010656Y-62654020D01*
X91770567Y-62587041D01*
X91802727Y-62554881D01*
X91916912Y-62532168D01*
X92214463Y-62408918D01*
X92482252Y-62229987D01*
X92709987Y-62002252D01*
X92888918Y-61734463D01*
X93012168Y-61436912D01*
X93075000Y-61121033D01*
X93075000Y-60798967D01*
X93012168Y-60483088D01*
X92888918Y-60185537D01*
X92709987Y-59917748D01*
X92482252Y-59690013D01*
X92285450Y-59558514D01*
X93915000Y-59558514D01*
X93915000Y-59821486D01*
X93966304Y-60079405D01*
X94066939Y-60322359D01*
X94213038Y-60541013D01*
X94398987Y-60726962D01*
X94617641Y-60873061D01*
X94860595Y-60973696D01*
X95118514Y-61025000D01*
X95381486Y-61025000D01*
X95639405Y-60973696D01*
X95882359Y-60873061D01*
X96101013Y-60726962D01*
X96286962Y-60541013D01*
X96433061Y-60322359D01*
X96533696Y-60079405D01*
X96585000Y-59821486D01*
X96585000Y-59558514D01*
X96533696Y-59300595D01*
X96433061Y-59057641D01*
X96286962Y-58838987D01*
X96101013Y-58653038D01*
X95882359Y-58506939D01*
X95639405Y-58406304D01*
X95381486Y-58355000D01*
X95118514Y-58355000D01*
X94860595Y-58406304D01*
X94617641Y-58506939D01*
X94398987Y-58653038D01*
X94213038Y-58838987D01*
X94066939Y-59057641D01*
X93966304Y-59300595D01*
X93915000Y-59558514D01*
X92285450Y-59558514D01*
X92214463Y-59511082D01*
X91916912Y-59387832D01*
X91601033Y-59325000D01*
X91278967Y-59325000D01*
X90963088Y-59387832D01*
X90665537Y-59511082D01*
X90397748Y-59690013D01*
X90170013Y-59917748D01*
X89991082Y-60185537D01*
X89867832Y-60483088D01*
X89805000Y-60798967D01*
X87020000Y-60798967D01*
X87020000Y-56540000D01*
X90795160Y-56540000D01*
X90778273Y-56546995D01*
G37*
X90778273Y-56546995D02*
X90549465Y-56699880D01*
X90354880Y-56894465D01*
X90201995Y-57123273D01*
X90096686Y-57377510D01*
X90043000Y-57647408D01*
X90043000Y-57922592D01*
X90096686Y-58192490D01*
X90201995Y-58446727D01*
X90354880Y-58675535D01*
X90549465Y-58870120D01*
X90778273Y-59023005D01*
X91032510Y-59128314D01*
X91302408Y-59182000D01*
X91577592Y-59182000D01*
X91847490Y-59128314D01*
X92101727Y-59023005D01*
X92330535Y-58870120D01*
X92525120Y-58675535D01*
X92678005Y-58446727D01*
X92783314Y-58192490D01*
X92837000Y-57922592D01*
X92837000Y-57647408D01*
X92783314Y-57377510D01*
X92678005Y-57123273D01*
X92525120Y-56894465D01*
X92330535Y-56699880D01*
X92101727Y-56546995D01*
X92084840Y-56540000D01*
X99070569Y-56540000D01*
X98986686Y-56742510D01*
X98933000Y-57012408D01*
X98933000Y-57287592D01*
X98986686Y-57557490D01*
X99091995Y-57811727D01*
X99244880Y-58040535D01*
X99439465Y-58235120D01*
X99668273Y-58388005D01*
X99745515Y-58420000D01*
X99668273Y-58451995D01*
X99439465Y-58604880D01*
X99244880Y-58799465D01*
X99091995Y-59028273D01*
X98986686Y-59282510D01*
X98933000Y-59552408D01*
X98933000Y-59827592D01*
X98986686Y-60097490D01*
X99091995Y-60351727D01*
X99244880Y-60580535D01*
X99439465Y-60775120D01*
X99668273Y-60928005D01*
X99745515Y-60960000D01*
X99668273Y-60991995D01*
X99439465Y-61144880D01*
X99244880Y-61339465D01*
X99091995Y-61568273D01*
X98986686Y-61822510D01*
X98933000Y-62092408D01*
X98933000Y-62367592D01*
X98986686Y-62637490D01*
X99091995Y-62891727D01*
X99244880Y-63120535D01*
X99439465Y-63315120D01*
X99668273Y-63468005D01*
X99745515Y-63500000D01*
X99668273Y-63531995D01*
X99439465Y-63684880D01*
X99244880Y-63879465D01*
X99091995Y-64108273D01*
X98986686Y-64362510D01*
X98933000Y-64632408D01*
X98933000Y-64907592D01*
X98986686Y-65177490D01*
X99091995Y-65431727D01*
X99244880Y-65660535D01*
X99439465Y-65855120D01*
X99668273Y-66008005D01*
X99745515Y-66040000D01*
X99668273Y-66071995D01*
X99439465Y-66224880D01*
X99244880Y-66419465D01*
X99091995Y-66648273D01*
X99032203Y-66792624D01*
X97804533Y-65564955D01*
X97776816Y-65531182D01*
X97642058Y-65420588D01*
X97488312Y-65338410D01*
X97321489Y-65287804D01*
X97191476Y-65274999D01*
X97191468Y-65274999D01*
X97147999Y-65270718D01*
X97104530Y-65274999D01*
X94741464Y-65274999D01*
X94697998Y-65270718D01*
X94654532Y-65274999D01*
X94654522Y-65274999D01*
X94524509Y-65287804D01*
X94357686Y-65338410D01*
X94203940Y-65420588D01*
X94203938Y-65420589D01*
X94203939Y-65420589D01*
X94102952Y-65503467D01*
X94102950Y-65503469D01*
X94069182Y-65531182D01*
X94041469Y-65564950D01*
X92202000Y-67404420D01*
X92202000Y-67299408D01*
X92148314Y-67029510D01*
X92043005Y-66775273D01*
X91890120Y-66546465D01*
X91764655Y-66421000D01*
X91890120Y-66295535D01*
X92043005Y-66066727D01*
X92148314Y-65812490D01*
X92202000Y-65542592D01*
X92202000Y-65267408D01*
X92148314Y-64997510D01*
X92043005Y-64743273D01*
X91890120Y-64514465D01*
X91695535Y-64319880D01*
X91466727Y-64166995D01*
X91385917Y-64133522D01*
X90805000Y-63552605D01*
X90224083Y-64133522D01*
X90143273Y-64166995D01*
X89914465Y-64319880D01*
X89719880Y-64514465D01*
X89566995Y-64743273D01*
X89461686Y-64997510D01*
X89408000Y-65267408D01*
X89408000Y-65542592D01*
X89461686Y-65812490D01*
X89566995Y-66066727D01*
X89719880Y-66295535D01*
X89845345Y-66421000D01*
X89719880Y-66546465D01*
X89566995Y-66775273D01*
X89461686Y-67029510D01*
X89408000Y-67299408D01*
X89408000Y-67574592D01*
X89461686Y-67844490D01*
X89566995Y-68098727D01*
X89719880Y-68327535D01*
X89914465Y-68522120D01*
X90143273Y-68675005D01*
X90397510Y-68780314D01*
X90584514Y-68817511D01*
X90403038Y-68998987D01*
X90256939Y-69217641D01*
X90156304Y-69460595D01*
X90105000Y-69718514D01*
X90105000Y-69981486D01*
X90156304Y-70239405D01*
X90256939Y-70482359D01*
X90403038Y-70701013D01*
X90588987Y-70886962D01*
X90807641Y-71033061D01*
X91050595Y-71133696D01*
X91308514Y-71185000D01*
X91571486Y-71185000D01*
X91829405Y-71133696D01*
X92072359Y-71033061D01*
X92291013Y-70886962D01*
X92476962Y-70701013D01*
X92623061Y-70482359D01*
X92723696Y-70239405D01*
X92775000Y-69981486D01*
X92775000Y-69771283D01*
X92819700Y-69716817D01*
X92879409Y-69644061D01*
X92879410Y-69644060D01*
X92961588Y-69490314D01*
X93012194Y-69323491D01*
X93024999Y-69193478D01*
X93024999Y-69193468D01*
X93029280Y-69150002D01*
X93024999Y-69106535D01*
X93024999Y-69084577D01*
X94107105Y-68002472D01*
X94213038Y-68161013D01*
X94398987Y-68346962D01*
X94617641Y-68493061D01*
X94860595Y-68593696D01*
X95118514Y-68645000D01*
X95381486Y-68645000D01*
X95639405Y-68593696D01*
X95882359Y-68493061D01*
X96101013Y-68346962D01*
X96286962Y-68161013D01*
X96433061Y-67942359D01*
X96533696Y-67699405D01*
X96585000Y-67441486D01*
X96585000Y-67178514D01*
X96558442Y-67044999D01*
X96781421Y-67044999D01*
X98701421Y-68965000D01*
X97714656Y-68965000D01*
X97673475Y-68903368D01*
X97466632Y-68696525D01*
X97223411Y-68534010D01*
X96953158Y-68422068D01*
X96666260Y-68365000D01*
X96373740Y-68365000D01*
X96086842Y-68422068D01*
X95816589Y-68534010D01*
X95573368Y-68696525D01*
X95366525Y-68903368D01*
X95204010Y-69146589D01*
X95092068Y-69416842D01*
X95035000Y-69703740D01*
X95035000Y-69996260D01*
X95092068Y-70283158D01*
X95204010Y-70553411D01*
X95366525Y-70796632D01*
X95573368Y-71003475D01*
X95747760Y-71120000D01*
X95573368Y-71236525D01*
X95366525Y-71443368D01*
X95204010Y-71686589D01*
X95092068Y-71956842D01*
X95035000Y-72243740D01*
X95035000Y-72536260D01*
X95092068Y-72823158D01*
X95204010Y-73093411D01*
X95366525Y-73336632D01*
X95573368Y-73543475D01*
X95747760Y-73660000D01*
X95573368Y-73776525D01*
X95366525Y-73983368D01*
X95204010Y-74226589D01*
X95092068Y-74496842D01*
X95035000Y-74783740D01*
X95035000Y-75076260D01*
X95092068Y-75363158D01*
X95204010Y-75633411D01*
X95366525Y-75876632D01*
X95573368Y-76083475D01*
X95747760Y-76200000D01*
X95573368Y-76316525D01*
X95366525Y-76523368D01*
X95204010Y-76766589D01*
X95092068Y-77036842D01*
X95035000Y-77323740D01*
X95035000Y-77616260D01*
X95092068Y-77903158D01*
X95204010Y-78173411D01*
X95366525Y-78416632D01*
X95573368Y-78623475D01*
X95747760Y-78740000D01*
X95573368Y-78856525D01*
X95366525Y-79063368D01*
X95204010Y-79306589D01*
X95092068Y-79576842D01*
X95035000Y-79863740D01*
X95035000Y-80156260D01*
X95092068Y-80443158D01*
X95204010Y-80713411D01*
X95366525Y-80956632D01*
X95573368Y-81163475D01*
X95747760Y-81280000D01*
X95573368Y-81396525D01*
X95366525Y-81603368D01*
X95204010Y-81846589D01*
X95092068Y-82116842D01*
X95035000Y-82403740D01*
X95035000Y-82696260D01*
X95092068Y-82983158D01*
X95204010Y-83253411D01*
X95366525Y-83496632D01*
X95573368Y-83703475D01*
X95747760Y-83820000D01*
X95573368Y-83936525D01*
X95366525Y-84143368D01*
X95204010Y-84386589D01*
X95092068Y-84656842D01*
X95035000Y-84943740D01*
X95035000Y-85236260D01*
X95092068Y-85523158D01*
X95204010Y-85793411D01*
X95366525Y-86036632D01*
X95573368Y-86243475D01*
X95747760Y-86360000D01*
X95573368Y-86476525D01*
X95366525Y-86683368D01*
X95204010Y-86926589D01*
X95092068Y-87196842D01*
X95035000Y-87483740D01*
X95035000Y-87776260D01*
X95092068Y-88063158D01*
X95204010Y-88333411D01*
X95366525Y-88576632D01*
X95573368Y-88783475D01*
X95747760Y-88900000D01*
X95573368Y-89016525D01*
X95366525Y-89223368D01*
X95204010Y-89466589D01*
X95092068Y-89736842D01*
X95035000Y-90023740D01*
X95035000Y-90316260D01*
X95092068Y-90603158D01*
X95204010Y-90873411D01*
X95366525Y-91116632D01*
X95573368Y-91323475D01*
X95747760Y-91440000D01*
X95573368Y-91556525D01*
X95366525Y-91763368D01*
X95204010Y-92006589D01*
X95092068Y-92276842D01*
X95043348Y-92521770D01*
X92796535Y-90274957D01*
X92796531Y-90274952D01*
X92775000Y-90253421D01*
X92775000Y-90038514D01*
X92723696Y-89780595D01*
X92623061Y-89537641D01*
X92476962Y-89318987D01*
X92291013Y-89133038D01*
X92072359Y-88986939D01*
X91829405Y-88886304D01*
X91571486Y-88835000D01*
X91308514Y-88835000D01*
X91050595Y-88886304D01*
X90807641Y-88986939D01*
X90588987Y-89133038D01*
X90403038Y-89318987D01*
X90256939Y-89537641D01*
X90156304Y-89780595D01*
X90105000Y-90038514D01*
X90105000Y-90301486D01*
X90156304Y-90559405D01*
X90256939Y-90802359D01*
X90403038Y-91021013D01*
X90588987Y-91206962D01*
X90807641Y-91353061D01*
X91050595Y-91453696D01*
X91308514Y-91505000D01*
X91523421Y-91505000D01*
X91544952Y-91526531D01*
X91544957Y-91526535D01*
X94335000Y-94316579D01*
X94334999Y-107622530D01*
X94330718Y-107665999D01*
X94334999Y-107709468D01*
X94334999Y-107709475D01*
X94347804Y-107839488D01*
X94398410Y-108006311D01*
X94480588Y-108160057D01*
X94591182Y-108294816D01*
X94624955Y-108322533D01*
X95602469Y-109300048D01*
X95630182Y-109333816D01*
X95663950Y-109361529D01*
X95663952Y-109361531D01*
X95764939Y-109444409D01*
X95764940Y-109444410D01*
X95918686Y-109526588D01*
X96085509Y-109577194D01*
X96215522Y-109589999D01*
X96215530Y-109589999D01*
X96258999Y-109594280D01*
X96302468Y-109589999D01*
X99021558Y-109589999D01*
X98995000Y-109723514D01*
X98995000Y-109986486D01*
X99046304Y-110244405D01*
X99146939Y-110487359D01*
X99293038Y-110706013D01*
X99478987Y-110891962D01*
X99697641Y-111038061D01*
X99940595Y-111138696D01*
X100198514Y-111190000D01*
X100413422Y-111190000D01*
X101458471Y-112235050D01*
X101486184Y-112268818D01*
X101519952Y-112296531D01*
X101519954Y-112296533D01*
X101620942Y-112379412D01*
X101774687Y-112461590D01*
X101941511Y-112512196D01*
X102071524Y-112525001D01*
X102071532Y-112525001D01*
X102115001Y-112529282D01*
X102158470Y-112525001D01*
X126602616Y-112525001D01*
X126646085Y-112529282D01*
X126689554Y-112525001D01*
X126689562Y-112525001D01*
X126819575Y-112512196D01*
X126986398Y-112461590D01*
X127140144Y-112379412D01*
X127274902Y-112268818D01*
X127302619Y-112235045D01*
X129179150Y-110358514D01*
X130745000Y-110358514D01*
X130745000Y-110621486D01*
X130796304Y-110879405D01*
X130896939Y-111122359D01*
X131043038Y-111341013D01*
X131228987Y-111526962D01*
X131447641Y-111673061D01*
X131690595Y-111773696D01*
X131948514Y-111825000D01*
X132211486Y-111825000D01*
X132469405Y-111773696D01*
X132712359Y-111673061D01*
X132931013Y-111526962D01*
X133116962Y-111341013D01*
X133263061Y-111122359D01*
X133363696Y-110879405D01*
X133415000Y-110621486D01*
X133415000Y-110358514D01*
X151065000Y-110358514D01*
X151065000Y-110621486D01*
X151116304Y-110879405D01*
X151216939Y-111122359D01*
X151363038Y-111341013D01*
X151548987Y-111526962D01*
X151767641Y-111673061D01*
X152010595Y-111773696D01*
X152268514Y-111825000D01*
X152531486Y-111825000D01*
X152789405Y-111773696D01*
X153032359Y-111673061D01*
X153251013Y-111526962D01*
X153436962Y-111341013D01*
X153583061Y-111122359D01*
X153683696Y-110879405D01*
X153735000Y-110621486D01*
X153735000Y-110358514D01*
X153683696Y-110100595D01*
X153583061Y-109857641D01*
X153436962Y-109638987D01*
X153251013Y-109453038D01*
X153032359Y-109306939D01*
X152789405Y-109206304D01*
X152531486Y-109155000D01*
X152268514Y-109155000D01*
X152010595Y-109206304D01*
X151767641Y-109306939D01*
X151548987Y-109453038D01*
X151363038Y-109638987D01*
X151216939Y-109857641D01*
X151116304Y-110100595D01*
X151065000Y-110358514D01*
X133415000Y-110358514D01*
X133363696Y-110100595D01*
X133263061Y-109857641D01*
X133116962Y-109638987D01*
X132931013Y-109453038D01*
X132712359Y-109306939D01*
X132469405Y-109206304D01*
X132211486Y-109155000D01*
X131948514Y-109155000D01*
X131690595Y-109206304D01*
X131447641Y-109306939D01*
X131228987Y-109453038D01*
X131043038Y-109638987D01*
X130896939Y-109857641D01*
X130796304Y-110100595D01*
X130745000Y-110358514D01*
X129179150Y-110358514D01*
X138098697Y-101438967D01*
X150765000Y-101438967D01*
X150765000Y-101761033D01*
X150827832Y-102076912D01*
X150951082Y-102374463D01*
X151130013Y-102642252D01*
X151357748Y-102869987D01*
X151625537Y-103048918D01*
X151923088Y-103172168D01*
X152238967Y-103235000D01*
X152561033Y-103235000D01*
X152876912Y-103172168D01*
X153174463Y-103048918D01*
X153442252Y-102869987D01*
X153669987Y-102642252D01*
X153848918Y-102374463D01*
X153972168Y-102076912D01*
X154035000Y-101761033D01*
X154035000Y-101438967D01*
X153972168Y-101123088D01*
X153848918Y-100825537D01*
X153669987Y-100557748D01*
X153442252Y-100330013D01*
X153174463Y-100151082D01*
X152876912Y-100027832D01*
X152561033Y-99965000D01*
X152238967Y-99965000D01*
X151923088Y-100027832D01*
X151625537Y-100151082D01*
X151357748Y-100330013D01*
X151130013Y-100557748D01*
X150951082Y-100825537D01*
X150827832Y-101123088D01*
X150765000Y-101438967D01*
X138098697Y-101438967D01*
X141879150Y-97658514D01*
X151065000Y-97658514D01*
X151065000Y-97921486D01*
X151116304Y-98179405D01*
X151216939Y-98422359D01*
X151363038Y-98641013D01*
X151548987Y-98826962D01*
X151767641Y-98973061D01*
X152010595Y-99073696D01*
X152268514Y-99125000D01*
X152531486Y-99125000D01*
X152789405Y-99073696D01*
X153032359Y-98973061D01*
X153251013Y-98826962D01*
X153436962Y-98641013D01*
X153583061Y-98422359D01*
X153683696Y-98179405D01*
X153735000Y-97921486D01*
X153735000Y-97658514D01*
X153683696Y-97400595D01*
X153583061Y-97157641D01*
X153436962Y-96938987D01*
X153251013Y-96753038D01*
X153032359Y-96606939D01*
X152789405Y-96506304D01*
X152531486Y-96455000D01*
X152268514Y-96455000D01*
X152010595Y-96506304D01*
X151767641Y-96606939D01*
X151548987Y-96753038D01*
X151363038Y-96938987D01*
X151216939Y-97157641D01*
X151116304Y-97400595D01*
X151065000Y-97658514D01*
X141879150Y-97658514D01*
X148087350Y-91450315D01*
X148121116Y-91422604D01*
X148189089Y-91339780D01*
X148231710Y-91287846D01*
X148313888Y-91134101D01*
X148364494Y-90967277D01*
X148364494Y-90967276D01*
X148377299Y-90837264D01*
X148377299Y-90837256D01*
X148381580Y-90793787D01*
X148377299Y-90750318D01*
X148377299Y-90185772D01*
X149237700Y-90185772D01*
X149362182Y-90173512D01*
X149481880Y-90137202D01*
X149592194Y-90078237D01*
X149640596Y-90038514D01*
X151065000Y-90038514D01*
X151065000Y-90301486D01*
X151116304Y-90559405D01*
X151216939Y-90802359D01*
X151363038Y-91021013D01*
X151548987Y-91206962D01*
X151767641Y-91353061D01*
X152010595Y-91453696D01*
X152268514Y-91505000D01*
X152531486Y-91505000D01*
X152789405Y-91453696D01*
X153032359Y-91353061D01*
X153251013Y-91206962D01*
X153436962Y-91021013D01*
X153583061Y-90802359D01*
X153683696Y-90559405D01*
X153735000Y-90301486D01*
X153735000Y-90038514D01*
X153683696Y-89780595D01*
X153583061Y-89537641D01*
X153436962Y-89318987D01*
X153251013Y-89133038D01*
X153032359Y-88986939D01*
X152789405Y-88886304D01*
X152531486Y-88835000D01*
X152268514Y-88835000D01*
X152010595Y-88886304D01*
X151767641Y-88986939D01*
X151548987Y-89133038D01*
X151363038Y-89318987D01*
X151216939Y-89537641D01*
X151116304Y-89780595D01*
X151065000Y-90038514D01*
X149640596Y-90038514D01*
X149688885Y-89998885D01*
X149768237Y-89902194D01*
X149827202Y-89791880D01*
X149863512Y-89672182D01*
X149875772Y-89547700D01*
X149875772Y-88252300D01*
X149863512Y-88127818D01*
X149827202Y-88008120D01*
X149768237Y-87897806D01*
X149688885Y-87801115D01*
X149592194Y-87721763D01*
X149481880Y-87662798D01*
X149362182Y-87626488D01*
X149237700Y-87614228D01*
X148859472Y-87614228D01*
X148964150Y-87593406D01*
X149197586Y-87496714D01*
X149407673Y-87356338D01*
X149586338Y-87177673D01*
X149726714Y-86967586D01*
X149823406Y-86734150D01*
X149872700Y-86486335D01*
X149872700Y-86233665D01*
X149823406Y-85985850D01*
X149726714Y-85752414D01*
X149586338Y-85542327D01*
X149407673Y-85363662D01*
X149197586Y-85223286D01*
X148964150Y-85126594D01*
X148780182Y-85090000D01*
X148964150Y-85053406D01*
X149197586Y-84956714D01*
X149407673Y-84816338D01*
X149586338Y-84637673D01*
X149726714Y-84427586D01*
X149823406Y-84194150D01*
X149872700Y-83946335D01*
X149872700Y-83693665D01*
X149823406Y-83445850D01*
X149726714Y-83212414D01*
X149586338Y-83002327D01*
X149407673Y-82823662D01*
X149197586Y-82683286D01*
X148964150Y-82586594D01*
X148780182Y-82550000D01*
X148964150Y-82513406D01*
X149197586Y-82416714D01*
X149407673Y-82276338D01*
X149586338Y-82097673D01*
X149726714Y-81887586D01*
X149823406Y-81654150D01*
X149872700Y-81406335D01*
X149872700Y-81153665D01*
X149865799Y-81118967D01*
X150765000Y-81118967D01*
X150765000Y-81441033D01*
X150827832Y-81756912D01*
X150951082Y-82054463D01*
X151130013Y-82322252D01*
X151357748Y-82549987D01*
X151625537Y-82728918D01*
X151923088Y-82852168D01*
X152238967Y-82915000D01*
X152561033Y-82915000D01*
X152876912Y-82852168D01*
X153174463Y-82728918D01*
X153442252Y-82549987D01*
X153669987Y-82322252D01*
X153848918Y-82054463D01*
X153972168Y-81756912D01*
X154035000Y-81441033D01*
X154035000Y-81118967D01*
X153972168Y-80803088D01*
X153848918Y-80505537D01*
X153669987Y-80237748D01*
X153442252Y-80010013D01*
X153174463Y-79831082D01*
X152876912Y-79707832D01*
X152561033Y-79645000D01*
X152238967Y-79645000D01*
X151923088Y-79707832D01*
X151625537Y-79831082D01*
X151357748Y-80010013D01*
X151130013Y-80237748D01*
X150951082Y-80505537D01*
X150827832Y-80803088D01*
X150765000Y-81118967D01*
X149865799Y-81118967D01*
X149823406Y-80905850D01*
X149726714Y-80672414D01*
X149586338Y-80462327D01*
X149407673Y-80283662D01*
X149197586Y-80143286D01*
X148964150Y-80046594D01*
X148780182Y-80010000D01*
X148964150Y-79973406D01*
X149197586Y-79876714D01*
X149407673Y-79736338D01*
X149586338Y-79557673D01*
X149726714Y-79347586D01*
X149823406Y-79114150D01*
X149872700Y-78866335D01*
X149872700Y-78613665D01*
X149823406Y-78365850D01*
X149726714Y-78132414D01*
X149586338Y-77922327D01*
X149407673Y-77743662D01*
X149197586Y-77603286D01*
X148964150Y-77506594D01*
X148780182Y-77470000D01*
X148964150Y-77433406D01*
X149193240Y-77338514D01*
X151065000Y-77338514D01*
X151065000Y-77601486D01*
X151116304Y-77859405D01*
X151216939Y-78102359D01*
X151363038Y-78321013D01*
X151548987Y-78506962D01*
X151767641Y-78653061D01*
X152010595Y-78753696D01*
X152268514Y-78805000D01*
X152531486Y-78805000D01*
X152789405Y-78753696D01*
X153032359Y-78653061D01*
X153251013Y-78506962D01*
X153436962Y-78321013D01*
X153583061Y-78102359D01*
X153683696Y-77859405D01*
X153735000Y-77601486D01*
X153735000Y-77338514D01*
X153683696Y-77080595D01*
X153583061Y-76837641D01*
X153436962Y-76618987D01*
X153251013Y-76433038D01*
X153032359Y-76286939D01*
X152789405Y-76186304D01*
X152531486Y-76135000D01*
X152268514Y-76135000D01*
X152010595Y-76186304D01*
X151767641Y-76286939D01*
X151548987Y-76433038D01*
X151363038Y-76618987D01*
X151216939Y-76837641D01*
X151116304Y-77080595D01*
X151065000Y-77338514D01*
X149193240Y-77338514D01*
X149197586Y-77336714D01*
X149407673Y-77196338D01*
X149586338Y-77017673D01*
X149726714Y-76807586D01*
X149823406Y-76574150D01*
X149872700Y-76326335D01*
X149872700Y-76073665D01*
X149823406Y-75825850D01*
X149726714Y-75592414D01*
X149586338Y-75382327D01*
X149407673Y-75203662D01*
X149197586Y-75063286D01*
X148964150Y-74966594D01*
X148780182Y-74930000D01*
X148964150Y-74893406D01*
X149197586Y-74796714D01*
X149407673Y-74656338D01*
X149586338Y-74477673D01*
X149726714Y-74267586D01*
X149823406Y-74034150D01*
X149872700Y-73786335D01*
X149872700Y-73533665D01*
X149823406Y-73285850D01*
X149726714Y-73052414D01*
X149586338Y-72842327D01*
X149407673Y-72663662D01*
X149197586Y-72523286D01*
X148964150Y-72426594D01*
X148776192Y-72389206D01*
X148916084Y-72366975D01*
X149153092Y-72279399D01*
X149241168Y-72232321D01*
X149294277Y-72003882D01*
X148590000Y-71299605D01*
X147885723Y-72003882D01*
X147938832Y-72232321D01*
X148168347Y-72337985D01*
X148391995Y-72391556D01*
X148215850Y-72426594D01*
X147982414Y-72523286D01*
X147772327Y-72663662D01*
X147593662Y-72842327D01*
X147453286Y-73052414D01*
X147356594Y-73285850D01*
X147307300Y-73533665D01*
X147307300Y-73786335D01*
X147356594Y-74034150D01*
X147453286Y-74267586D01*
X147593662Y-74477673D01*
X147772327Y-74656338D01*
X147982414Y-74796714D01*
X148215850Y-74893406D01*
X148399818Y-74930000D01*
X148215850Y-74966594D01*
X147982414Y-75063286D01*
X147772327Y-75203662D01*
X147593662Y-75382327D01*
X147453286Y-75592414D01*
X147356594Y-75825850D01*
X147307300Y-76073665D01*
X147307300Y-76326335D01*
X147356594Y-76574150D01*
X147453286Y-76807586D01*
X147593662Y-77017673D01*
X147772327Y-77196338D01*
X147982414Y-77336714D01*
X148215850Y-77433406D01*
X148399818Y-77470000D01*
X148215850Y-77506594D01*
X147982414Y-77603286D01*
X147772327Y-77743662D01*
X147593662Y-77922327D01*
X147453286Y-78132414D01*
X147356594Y-78365850D01*
X147307300Y-78613665D01*
X147307300Y-78771122D01*
X146897251Y-79181171D01*
X146863483Y-79208884D01*
X146835770Y-79242652D01*
X146835767Y-79242655D01*
X146752889Y-79343642D01*
X146670711Y-79497388D01*
X146620104Y-79664211D01*
X146603018Y-79837701D01*
X146607300Y-79881180D01*
X146607299Y-90427208D01*
X139950109Y-97084398D01*
X139874816Y-97009105D01*
X139705298Y-96895837D01*
X139516940Y-96817816D01*
X139316981Y-96778042D01*
X139113103Y-96778042D01*
X138913144Y-96817816D01*
X138724786Y-96895837D01*
X138555268Y-97009105D01*
X138411105Y-97153268D01*
X138297837Y-97322786D01*
X138219816Y-97511144D01*
X138208507Y-97567998D01*
X133618633Y-102157872D01*
X133652168Y-102076912D01*
X133715000Y-101761033D01*
X133715000Y-101438967D01*
X133652168Y-101123088D01*
X133528918Y-100825537D01*
X133349987Y-100557748D01*
X133122252Y-100330013D01*
X132965000Y-100224941D01*
X132965000Y-99554975D01*
X133116962Y-99403013D01*
X133263061Y-99184359D01*
X133363696Y-98941405D01*
X133415000Y-98683486D01*
X133415000Y-98420514D01*
X133363696Y-98162595D01*
X133263061Y-97919641D01*
X133116962Y-97700987D01*
X132931013Y-97515038D01*
X132712359Y-97368939D01*
X132469405Y-97268304D01*
X132211486Y-97217000D01*
X131948514Y-97217000D01*
X131690595Y-97268304D01*
X131447641Y-97368939D01*
X131228987Y-97515038D01*
X131043038Y-97700987D01*
X130896939Y-97919641D01*
X130796304Y-98162595D01*
X130745000Y-98420514D01*
X130745000Y-98683486D01*
X130796304Y-98941405D01*
X130896939Y-99184359D01*
X131043038Y-99403013D01*
X131195000Y-99554975D01*
X131195001Y-100224940D01*
X131037748Y-100330013D01*
X130810013Y-100557748D01*
X130631082Y-100825537D01*
X130507832Y-101123088D01*
X130445000Y-101438967D01*
X130445000Y-101761033D01*
X130507832Y-102076912D01*
X130631082Y-102374463D01*
X130810013Y-102642252D01*
X131037748Y-102869987D01*
X131305537Y-103048918D01*
X131603088Y-103172168D01*
X131918967Y-103235000D01*
X132241033Y-103235000D01*
X132556912Y-103172168D01*
X132637873Y-103138633D01*
X127956507Y-107819999D01*
X122031579Y-107819999D01*
X124705044Y-105146535D01*
X124761898Y-105135226D01*
X124950256Y-105057205D01*
X125119774Y-104943937D01*
X125263937Y-104799774D01*
X125377205Y-104630256D01*
X125455226Y-104441898D01*
X125495000Y-104241939D01*
X125495000Y-104038061D01*
X125455226Y-103838102D01*
X125377205Y-103649744D01*
X125263937Y-103480226D01*
X125119774Y-103336063D01*
X124950256Y-103222795D01*
X124761898Y-103144774D01*
X124561939Y-103105000D01*
X124358061Y-103105000D01*
X124158102Y-103144774D01*
X123969744Y-103222795D01*
X123800226Y-103336063D01*
X123656063Y-103480226D01*
X123542795Y-103649744D01*
X123464774Y-103838102D01*
X123453465Y-103894956D01*
X120283422Y-107065000D01*
X99987712Y-107065000D01*
X99973774Y-107051062D01*
X99804256Y-106937794D01*
X99615898Y-106859773D01*
X99415939Y-106819999D01*
X99212061Y-106819999D01*
X99012102Y-106859773D01*
X98823744Y-106937794D01*
X98654226Y-107051062D01*
X98510063Y-107195225D01*
X98396795Y-107364743D01*
X98318774Y-107553101D01*
X98279000Y-107753060D01*
X98279000Y-107819999D01*
X96625578Y-107819999D01*
X96104999Y-107299421D01*
X96104999Y-106898072D01*
X97370000Y-106898072D01*
X97494482Y-106885812D01*
X97614180Y-106849502D01*
X97724494Y-106790537D01*
X97821185Y-106711185D01*
X97900537Y-106614494D01*
X97959502Y-106504180D01*
X97995812Y-106384482D01*
X98004625Y-106295000D01*
X99241182Y-106295000D01*
X99244880Y-106300535D01*
X99439465Y-106495120D01*
X99668273Y-106648005D01*
X99922510Y-106753314D01*
X100192408Y-106807000D01*
X100467592Y-106807000D01*
X100737490Y-106753314D01*
X100991727Y-106648005D01*
X101220535Y-106495120D01*
X101415120Y-106300535D01*
X101568005Y-106071727D01*
X101673314Y-105817490D01*
X101727000Y-105547592D01*
X101727000Y-105272408D01*
X101673314Y-105002510D01*
X101568005Y-104748273D01*
X101415120Y-104519465D01*
X101220535Y-104324880D01*
X100991727Y-104171995D01*
X100914485Y-104140000D01*
X100991727Y-104108005D01*
X101220535Y-103955120D01*
X101415120Y-103760535D01*
X101568005Y-103531727D01*
X101673314Y-103277490D01*
X101727000Y-103007592D01*
X101727000Y-102732408D01*
X101673314Y-102462510D01*
X101568005Y-102208273D01*
X101415120Y-101979465D01*
X101220535Y-101784880D01*
X100991727Y-101631995D01*
X100914485Y-101600000D01*
X100991727Y-101568005D01*
X101184845Y-101438967D01*
X110125000Y-101438967D01*
X110125000Y-101761033D01*
X110187832Y-102076912D01*
X110311082Y-102374463D01*
X110490013Y-102642252D01*
X110717748Y-102869987D01*
X110985537Y-103048918D01*
X111283088Y-103172168D01*
X111598967Y-103235000D01*
X111921033Y-103235000D01*
X112236912Y-103172168D01*
X112534463Y-103048918D01*
X112802252Y-102869987D01*
X113029987Y-102642252D01*
X113208918Y-102374463D01*
X113332168Y-102076912D01*
X113395000Y-101761033D01*
X113395000Y-101438967D01*
X113332168Y-101123088D01*
X113208918Y-100825537D01*
X113029987Y-100557748D01*
X112802252Y-100330013D01*
X112534463Y-100151082D01*
X112236912Y-100027832D01*
X111921033Y-99965000D01*
X111598967Y-99965000D01*
X111283088Y-100027832D01*
X110985537Y-100151082D01*
X110717748Y-100330013D01*
X110490013Y-100557748D01*
X110311082Y-100825537D01*
X110187832Y-101123088D01*
X110125000Y-101438967D01*
X101184845Y-101438967D01*
X101220535Y-101415120D01*
X101415120Y-101220535D01*
X101568005Y-100991727D01*
X101673314Y-100737490D01*
X101727000Y-100467592D01*
X101727000Y-100192408D01*
X101673314Y-99922510D01*
X101568005Y-99668273D01*
X101415120Y-99439465D01*
X101220535Y-99244880D01*
X100991727Y-99091995D01*
X100914485Y-99060000D01*
X100991727Y-99028005D01*
X101220535Y-98875120D01*
X101415120Y-98680535D01*
X101568005Y-98451727D01*
X101673314Y-98197490D01*
X101727000Y-97927592D01*
X101727000Y-97652408D01*
X101673314Y-97382510D01*
X101568005Y-97128273D01*
X101415120Y-96899465D01*
X101220535Y-96704880D01*
X100991727Y-96551995D01*
X100914485Y-96520000D01*
X100991727Y-96488005D01*
X101220535Y-96335120D01*
X101415120Y-96140535D01*
X101568005Y-95911727D01*
X101673314Y-95657490D01*
X101727000Y-95387592D01*
X101727000Y-95112408D01*
X101673314Y-94842510D01*
X101568005Y-94588273D01*
X101415120Y-94359465D01*
X101220535Y-94164880D01*
X100991727Y-94011995D01*
X100914485Y-93980000D01*
X100991727Y-93948005D01*
X101220535Y-93795120D01*
X101415120Y-93600535D01*
X101568005Y-93371727D01*
X101673314Y-93117490D01*
X101727000Y-92847592D01*
X101727000Y-92572408D01*
X101673314Y-92302510D01*
X101568005Y-92048273D01*
X101415120Y-91819465D01*
X101220535Y-91624880D01*
X100991727Y-91471995D01*
X100914485Y-91440000D01*
X100991727Y-91408005D01*
X101220535Y-91255120D01*
X101415120Y-91060535D01*
X101568005Y-90831727D01*
X101673314Y-90577490D01*
X101727000Y-90307592D01*
X101727000Y-90032408D01*
X101673314Y-89762510D01*
X101568005Y-89508273D01*
X101415120Y-89279465D01*
X101220535Y-89084880D01*
X100991727Y-88931995D01*
X100914485Y-88900000D01*
X100991727Y-88868005D01*
X101220535Y-88715120D01*
X101415120Y-88520535D01*
X101568005Y-88291727D01*
X101673314Y-88037490D01*
X101727000Y-87767592D01*
X101727000Y-87492408D01*
X101673314Y-87222510D01*
X101568005Y-86968273D01*
X101415120Y-86739465D01*
X101220535Y-86544880D01*
X100991727Y-86391995D01*
X100914485Y-86360000D01*
X100991727Y-86328005D01*
X101220535Y-86175120D01*
X101415120Y-85980535D01*
X101568005Y-85751727D01*
X101673314Y-85497490D01*
X101727000Y-85227592D01*
X101727000Y-84952408D01*
X101673314Y-84682510D01*
X101568005Y-84428273D01*
X101415120Y-84199465D01*
X101220535Y-84004880D01*
X100991727Y-83851995D01*
X100914485Y-83820000D01*
X100991727Y-83788005D01*
X101220535Y-83635120D01*
X101415120Y-83440535D01*
X101568005Y-83211727D01*
X101673314Y-82957490D01*
X101727000Y-82687592D01*
X101727000Y-82412408D01*
X101673314Y-82142510D01*
X101568005Y-81888273D01*
X101415120Y-81659465D01*
X101220535Y-81464880D01*
X100991727Y-81311995D01*
X100914485Y-81280000D01*
X100991727Y-81248005D01*
X101220535Y-81095120D01*
X101415120Y-80900535D01*
X101568005Y-80671727D01*
X101673314Y-80417490D01*
X101727000Y-80147592D01*
X101727000Y-79872408D01*
X101673314Y-79602510D01*
X101568005Y-79348273D01*
X101415120Y-79119465D01*
X101220535Y-78924880D01*
X100991727Y-78771995D01*
X100914485Y-78740000D01*
X100991727Y-78708005D01*
X101220535Y-78555120D01*
X101415120Y-78360535D01*
X101568005Y-78131727D01*
X101673314Y-77877490D01*
X101727000Y-77607592D01*
X101727000Y-77332408D01*
X101673314Y-77062510D01*
X101568005Y-76808273D01*
X101415120Y-76579465D01*
X101220535Y-76384880D01*
X100991727Y-76231995D01*
X100914485Y-76200000D01*
X100991727Y-76168005D01*
X101220535Y-76015120D01*
X101415120Y-75820535D01*
X101568005Y-75591727D01*
X101673314Y-75337490D01*
X101727000Y-75067592D01*
X101727000Y-74792408D01*
X101673314Y-74522510D01*
X101568005Y-74268273D01*
X101415120Y-74039465D01*
X101220535Y-73844880D01*
X100991727Y-73691995D01*
X100914485Y-73660000D01*
X100991727Y-73628005D01*
X101220535Y-73475120D01*
X101415120Y-73280535D01*
X101568005Y-73051727D01*
X101673314Y-72797490D01*
X101727000Y-72527592D01*
X101727000Y-72252408D01*
X101673314Y-71982510D01*
X101568005Y-71728273D01*
X101415120Y-71499465D01*
X101220535Y-71304880D01*
X100991727Y-71151995D01*
X100914485Y-71120000D01*
X100991727Y-71088005D01*
X101220535Y-70935120D01*
X101415120Y-70740535D01*
X101568005Y-70511727D01*
X101661188Y-70286764D01*
X111141078Y-79766655D01*
X110985537Y-79831082D01*
X110717748Y-80010013D01*
X110490013Y-80237748D01*
X110311082Y-80505537D01*
X110187832Y-80803088D01*
X110125000Y-81118967D01*
X110125000Y-81441033D01*
X110187832Y-81756912D01*
X110311082Y-82054463D01*
X110490013Y-82322252D01*
X110717748Y-82549987D01*
X110985537Y-82728918D01*
X111283088Y-82852168D01*
X111598967Y-82915000D01*
X111921033Y-82915000D01*
X112236912Y-82852168D01*
X112534463Y-82728918D01*
X112802252Y-82549987D01*
X113029987Y-82322252D01*
X113208918Y-82054463D01*
X113273345Y-81898922D01*
X116012999Y-84638576D01*
X116013000Y-85628282D01*
X116008718Y-85671761D01*
X116025804Y-85845251D01*
X116076411Y-86012074D01*
X116158589Y-86165820D01*
X116241467Y-86266807D01*
X116241470Y-86266810D01*
X116269183Y-86300578D01*
X116302950Y-86328290D01*
X116900408Y-86925749D01*
X116871995Y-86968273D01*
X116766686Y-87222510D01*
X116713000Y-87492408D01*
X116713000Y-87767592D01*
X116766686Y-88037490D01*
X116871995Y-88291727D01*
X117024880Y-88520535D01*
X117219465Y-88715120D01*
X117448273Y-88868005D01*
X117525515Y-88900000D01*
X117448273Y-88931995D01*
X117219465Y-89084880D01*
X117024880Y-89279465D01*
X116871995Y-89508273D01*
X116766686Y-89762510D01*
X116713000Y-90032408D01*
X116713000Y-90307592D01*
X116766686Y-90577490D01*
X116871995Y-90831727D01*
X117024880Y-91060535D01*
X117219465Y-91255120D01*
X117448273Y-91408005D01*
X117525515Y-91440000D01*
X117448273Y-91471995D01*
X117219465Y-91624880D01*
X117024880Y-91819465D01*
X116871995Y-92048273D01*
X116766686Y-92302510D01*
X116713000Y-92572408D01*
X116713000Y-92847592D01*
X116766686Y-93117490D01*
X116871995Y-93371727D01*
X117024880Y-93600535D01*
X117219465Y-93795120D01*
X117448273Y-93948005D01*
X117525515Y-93980000D01*
X117448273Y-94011995D01*
X117219465Y-94164880D01*
X117024880Y-94359465D01*
X116871995Y-94588273D01*
X116766686Y-94842510D01*
X116713000Y-95112408D01*
X116713000Y-95387592D01*
X116766686Y-95657490D01*
X116871995Y-95911727D01*
X117024880Y-96140535D01*
X117219465Y-96335120D01*
X117448273Y-96488005D01*
X117525515Y-96520000D01*
X117448273Y-96551995D01*
X117219465Y-96704880D01*
X117024880Y-96899465D01*
X116871995Y-97128273D01*
X116766686Y-97382510D01*
X116713000Y-97652408D01*
X116713000Y-97927592D01*
X116766686Y-98197490D01*
X116871995Y-98451727D01*
X117024880Y-98680535D01*
X117219465Y-98875120D01*
X117448273Y-99028005D01*
X117525515Y-99060000D01*
X117448273Y-99091995D01*
X117219465Y-99244880D01*
X117024880Y-99439465D01*
X116871995Y-99668273D01*
X116766686Y-99922510D01*
X116713000Y-100192408D01*
X116713000Y-100467592D01*
X116766686Y-100737490D01*
X116871995Y-100991727D01*
X117024880Y-101220535D01*
X117219465Y-101415120D01*
X117448273Y-101568005D01*
X117525515Y-101600000D01*
X117448273Y-101631995D01*
X117219465Y-101784880D01*
X117024880Y-101979465D01*
X116871995Y-102208273D01*
X116766686Y-102462510D01*
X116713000Y-102732408D01*
X116713000Y-103007592D01*
X116766686Y-103277490D01*
X116871995Y-103531727D01*
X117024880Y-103760535D01*
X117219465Y-103955120D01*
X117448273Y-104108005D01*
X117525515Y-104140000D01*
X117448273Y-104171995D01*
X117219465Y-104324880D01*
X117024880Y-104519465D01*
X116871995Y-104748273D01*
X116766686Y-105002510D01*
X116713000Y-105272408D01*
X116713000Y-105547592D01*
X116766686Y-105817490D01*
X116871995Y-106071727D01*
X117024880Y-106300535D01*
X117219465Y-106495120D01*
X117448273Y-106648005D01*
X117702510Y-106753314D01*
X117972408Y-106807000D01*
X118247592Y-106807000D01*
X118517490Y-106753314D01*
X118771727Y-106648005D01*
X119000535Y-106495120D01*
X119195120Y-106300535D01*
X119348005Y-106071727D01*
X119453314Y-105817490D01*
X119507000Y-105547592D01*
X119507000Y-105272408D01*
X119453314Y-105002510D01*
X119348005Y-104748273D01*
X119195120Y-104519465D01*
X119000535Y-104324880D01*
X118771727Y-104171995D01*
X118694485Y-104140000D01*
X118771727Y-104108005D01*
X119000535Y-103955120D01*
X119195120Y-103760535D01*
X119348005Y-103531727D01*
X119453314Y-103277490D01*
X119507000Y-103007592D01*
X119507000Y-102732408D01*
X119453314Y-102462510D01*
X119348005Y-102208273D01*
X119195120Y-101979465D01*
X119000535Y-101784880D01*
X118771727Y-101631995D01*
X118694485Y-101600000D01*
X118771727Y-101568005D01*
X119000535Y-101415120D01*
X119195120Y-101220535D01*
X119348005Y-100991727D01*
X119453314Y-100737490D01*
X119507000Y-100467592D01*
X119507000Y-100192408D01*
X119453314Y-99922510D01*
X119348005Y-99668273D01*
X119195120Y-99439465D01*
X119000535Y-99244880D01*
X118771727Y-99091995D01*
X118694485Y-99060000D01*
X118771727Y-99028005D01*
X119000535Y-98875120D01*
X119195120Y-98680535D01*
X119348005Y-98451727D01*
X119453314Y-98197490D01*
X119507000Y-97927592D01*
X119507000Y-97652408D01*
X119505701Y-97645877D01*
X125570052Y-91581527D01*
X125603818Y-91553816D01*
X125637058Y-91513314D01*
X125714412Y-91419058D01*
X125796590Y-91265313D01*
X125847196Y-91098489D01*
X125850934Y-91060535D01*
X125860001Y-90968476D01*
X125860001Y-90968468D01*
X125864282Y-90924999D01*
X125860001Y-90881530D01*
X125860001Y-79861577D01*
X125866478Y-79855100D01*
X125873805Y-79929489D01*
X125924411Y-80096312D01*
X126006589Y-80250058D01*
X126117183Y-80384817D01*
X126150956Y-80412534D01*
X126987300Y-81248879D01*
X126987300Y-81406335D01*
X127036594Y-81654150D01*
X127133286Y-81887586D01*
X127273662Y-82097673D01*
X127452327Y-82276338D01*
X127662414Y-82416714D01*
X127895850Y-82513406D01*
X128079818Y-82550000D01*
X127895850Y-82586594D01*
X127662414Y-82683286D01*
X127452327Y-82823662D01*
X127273662Y-83002327D01*
X127133286Y-83212414D01*
X127036594Y-83445850D01*
X126987300Y-83693665D01*
X126987300Y-83946335D01*
X127036594Y-84194150D01*
X127133286Y-84427586D01*
X127273662Y-84637673D01*
X127452327Y-84816338D01*
X127662414Y-84956714D01*
X127895850Y-85053406D01*
X128079818Y-85090000D01*
X127895850Y-85126594D01*
X127662414Y-85223286D01*
X127452327Y-85363662D01*
X127273662Y-85542327D01*
X127133286Y-85752414D01*
X127036594Y-85985850D01*
X126987300Y-86233665D01*
X126987300Y-86486335D01*
X127036594Y-86734150D01*
X127133286Y-86967586D01*
X127273662Y-87177673D01*
X127452327Y-87356338D01*
X127662414Y-87496714D01*
X127895850Y-87593406D01*
X128079818Y-87630000D01*
X127895850Y-87666594D01*
X127662414Y-87763286D01*
X127452327Y-87903662D01*
X127273662Y-88082327D01*
X127133286Y-88292414D01*
X127036594Y-88525850D01*
X126987300Y-88773665D01*
X126987300Y-89026335D01*
X127036594Y-89274150D01*
X127133286Y-89507586D01*
X127273662Y-89717673D01*
X127452327Y-89896338D01*
X127662414Y-90036714D01*
X127895850Y-90133406D01*
X128143665Y-90182700D01*
X128396335Y-90182700D01*
X128644150Y-90133406D01*
X128877586Y-90036714D01*
X129087673Y-89896338D01*
X129266338Y-89717673D01*
X129406714Y-89507586D01*
X129503406Y-89274150D01*
X129552700Y-89026335D01*
X129552700Y-88773665D01*
X129503406Y-88525850D01*
X129406714Y-88292414D01*
X129266338Y-88082327D01*
X129087673Y-87903662D01*
X128877586Y-87763286D01*
X128644150Y-87666594D01*
X128460182Y-87630000D01*
X128644150Y-87593406D01*
X128877586Y-87496714D01*
X129087673Y-87356338D01*
X129117603Y-87326408D01*
X129130795Y-87358256D01*
X129244063Y-87527774D01*
X129388226Y-87671937D01*
X129557744Y-87785205D01*
X129746102Y-87863226D01*
X129946061Y-87903000D01*
X130149939Y-87903000D01*
X130349898Y-87863226D01*
X130538256Y-87785205D01*
X130707774Y-87671937D01*
X130851937Y-87527774D01*
X130965205Y-87358256D01*
X131043226Y-87169898D01*
X131054535Y-87113043D01*
X133907299Y-84260279D01*
X133907299Y-87651354D01*
X133905898Y-87650774D01*
X133705939Y-87611000D01*
X133502061Y-87611000D01*
X133302102Y-87650774D01*
X133113744Y-87728795D01*
X132944226Y-87842063D01*
X132800063Y-87986226D01*
X132686795Y-88155744D01*
X132608774Y-88344102D01*
X132569000Y-88544061D01*
X132569000Y-88747939D01*
X132608774Y-88947898D01*
X132686795Y-89136256D01*
X132800063Y-89305774D01*
X132944226Y-89449937D01*
X133113744Y-89563205D01*
X133302102Y-89641226D01*
X133358957Y-89652535D01*
X134299171Y-90592750D01*
X134326884Y-90626518D01*
X134360652Y-90654231D01*
X134360654Y-90654233D01*
X134393620Y-90681288D01*
X133391284Y-90681288D01*
X133363696Y-90542595D01*
X133263061Y-90299641D01*
X133116962Y-90080987D01*
X132931013Y-89895038D01*
X132712359Y-89748939D01*
X132469405Y-89648304D01*
X132211486Y-89597000D01*
X131948514Y-89597000D01*
X131690595Y-89648304D01*
X131447641Y-89748939D01*
X131228987Y-89895038D01*
X131043038Y-90080987D01*
X130896939Y-90299641D01*
X130796304Y-90542595D01*
X130745000Y-90800514D01*
X130745000Y-91063486D01*
X130796304Y-91321405D01*
X130896939Y-91564359D01*
X131043038Y-91783013D01*
X131228987Y-91968962D01*
X131447641Y-92115061D01*
X131690595Y-92215696D01*
X131948514Y-92267000D01*
X132174498Y-92267000D01*
X132221653Y-92305699D01*
X132375398Y-92387877D01*
X132542222Y-92438483D01*
X132672235Y-92451288D01*
X132672243Y-92451288D01*
X132715712Y-92455569D01*
X132759181Y-92451288D01*
X142474233Y-92451288D01*
X142517702Y-92455569D01*
X142561171Y-92451288D01*
X142561179Y-92451288D01*
X142691192Y-92438483D01*
X142858015Y-92387877D01*
X143011761Y-92305699D01*
X143146519Y-92195105D01*
X143165207Y-92172334D01*
X143219599Y-92161515D01*
X143407957Y-92083494D01*
X143577475Y-91970226D01*
X143721638Y-91826063D01*
X143834906Y-91656545D01*
X143912927Y-91468187D01*
X143952701Y-91268228D01*
X143952701Y-91064350D01*
X143912927Y-90864391D01*
X143834906Y-90676033D01*
X143721638Y-90506515D01*
X143577475Y-90362352D01*
X143407957Y-90249084D01*
X143219599Y-90171063D01*
X143019640Y-90131289D01*
X142815762Y-90131289D01*
X142615803Y-90171063D01*
X142427445Y-90249084D01*
X142257927Y-90362352D01*
X142113764Y-90506515D01*
X142000496Y-90676033D01*
X141998319Y-90681288D01*
X137459781Y-90681288D01*
X137526518Y-90626518D01*
X137554235Y-90592745D01*
X139818238Y-88328743D01*
X139736594Y-88525850D01*
X139687300Y-88773665D01*
X139687300Y-89026335D01*
X139736594Y-89274150D01*
X139833286Y-89507586D01*
X139973662Y-89717673D01*
X140152327Y-89896338D01*
X140362414Y-90036714D01*
X140595850Y-90133406D01*
X140843665Y-90182700D01*
X141096335Y-90182700D01*
X141344150Y-90133406D01*
X141577586Y-90036714D01*
X141787673Y-89896338D01*
X141966338Y-89717673D01*
X142106714Y-89507586D01*
X142203406Y-89274150D01*
X142252700Y-89026335D01*
X142252700Y-88773665D01*
X142203406Y-88525850D01*
X142106714Y-88292414D01*
X141966338Y-88082327D01*
X141787673Y-87903662D01*
X141577586Y-87763286D01*
X141344150Y-87666594D01*
X141160182Y-87630000D01*
X141344150Y-87593406D01*
X141577586Y-87496714D01*
X141787673Y-87356338D01*
X141966338Y-87177673D01*
X142106714Y-86967586D01*
X142203406Y-86734150D01*
X142252700Y-86486335D01*
X142252700Y-86233665D01*
X142203406Y-85985850D01*
X142106714Y-85752414D01*
X142090873Y-85728706D01*
X142120877Y-85698701D01*
X142169640Y-85698701D01*
X142369599Y-85658927D01*
X142557957Y-85580906D01*
X142727475Y-85467638D01*
X142871638Y-85323475D01*
X142984906Y-85153957D01*
X143062927Y-84965599D01*
X143102701Y-84765640D01*
X143102701Y-84561762D01*
X143062927Y-84361803D01*
X142984906Y-84173445D01*
X142871638Y-84003927D01*
X142727475Y-83859764D01*
X142557957Y-83746496D01*
X142369599Y-83668475D01*
X142242667Y-83643227D01*
X142203406Y-83445850D01*
X142106714Y-83212414D01*
X141966338Y-83002327D01*
X141787673Y-82823662D01*
X141577586Y-82683286D01*
X141344150Y-82586594D01*
X141160182Y-82550000D01*
X141344150Y-82513406D01*
X141577586Y-82416714D01*
X141787673Y-82276338D01*
X141966338Y-82097673D01*
X142106714Y-81887586D01*
X142203406Y-81654150D01*
X142252700Y-81406335D01*
X142252700Y-81153665D01*
X142203406Y-80905850D01*
X142106714Y-80672414D01*
X141966338Y-80462327D01*
X141787673Y-80283662D01*
X141577586Y-80143286D01*
X141344150Y-80046594D01*
X141160182Y-80010000D01*
X141344150Y-79973406D01*
X141577586Y-79876714D01*
X141787673Y-79736338D01*
X141966338Y-79557673D01*
X142106714Y-79347586D01*
X142203406Y-79114150D01*
X142252700Y-78866335D01*
X142252700Y-78613665D01*
X142203406Y-78365850D01*
X142106714Y-78132414D01*
X141966338Y-77922327D01*
X141787673Y-77743662D01*
X141577586Y-77603286D01*
X141344150Y-77506594D01*
X141160182Y-77470000D01*
X141344150Y-77433406D01*
X141577586Y-77336714D01*
X141787673Y-77196338D01*
X141966338Y-77017673D01*
X142106714Y-76807586D01*
X142203406Y-76574150D01*
X142252700Y-76326335D01*
X142252700Y-76168878D01*
X143851049Y-74570530D01*
X143884817Y-74542817D01*
X143995411Y-74408059D01*
X144077589Y-74254313D01*
X144128195Y-74087490D01*
X144141000Y-73957477D01*
X144141000Y-73957467D01*
X144145281Y-73914001D01*
X144141000Y-73870535D01*
X144141000Y-71824871D01*
X144145281Y-71781402D01*
X144141000Y-71737933D01*
X144141000Y-71737925D01*
X144128195Y-71607912D01*
X144116212Y-71568411D01*
X144077589Y-71441088D01*
X143995411Y-71287343D01*
X143920896Y-71196546D01*
X147303369Y-71196546D01*
X147343025Y-71446084D01*
X147430601Y-71683092D01*
X147477679Y-71771168D01*
X147706118Y-71824277D01*
X148410395Y-71120000D01*
X148769605Y-71120000D01*
X149473882Y-71824277D01*
X149702321Y-71771168D01*
X149807985Y-71541653D01*
X149866843Y-71295934D01*
X149876631Y-71043454D01*
X149836975Y-70793916D01*
X149749399Y-70556908D01*
X149702321Y-70468832D01*
X149473882Y-70415723D01*
X148769605Y-71120000D01*
X148410395Y-71120000D01*
X147706118Y-70415723D01*
X147477679Y-70468832D01*
X147372015Y-70698347D01*
X147313157Y-70944066D01*
X147303369Y-71196546D01*
X143920896Y-71196546D01*
X143912532Y-71186355D01*
X143912530Y-71186353D01*
X143884817Y-71152585D01*
X143851050Y-71124873D01*
X142962295Y-70236118D01*
X147885723Y-70236118D01*
X148590000Y-70940395D01*
X149294277Y-70236118D01*
X149241168Y-70007679D01*
X149011653Y-69902015D01*
X148765934Y-69843157D01*
X148513454Y-69833369D01*
X148263916Y-69873025D01*
X148026908Y-69960601D01*
X147938832Y-70007679D01*
X147885723Y-70236118D01*
X142962295Y-70236118D01*
X142444691Y-69718514D01*
X151065000Y-69718514D01*
X151065000Y-69981486D01*
X151116304Y-70239405D01*
X151216939Y-70482359D01*
X151363038Y-70701013D01*
X151548987Y-70886962D01*
X151767641Y-71033061D01*
X152010595Y-71133696D01*
X152268514Y-71185000D01*
X152531486Y-71185000D01*
X152789405Y-71133696D01*
X153032359Y-71033061D01*
X153251013Y-70886962D01*
X153436962Y-70701013D01*
X153583061Y-70482359D01*
X153683696Y-70239405D01*
X153735000Y-69981486D01*
X153735000Y-69718514D01*
X153683696Y-69460595D01*
X153583061Y-69217641D01*
X153436962Y-68998987D01*
X153251013Y-68813038D01*
X153102908Y-68714078D01*
X153200048Y-68759756D01*
X153467135Y-68826023D01*
X153742017Y-68838910D01*
X154014133Y-68797922D01*
X154273023Y-68704636D01*
X154388980Y-68642656D01*
X154455960Y-68402565D01*
X153670000Y-67616605D01*
X152884040Y-68402565D01*
X152948052Y-68632018D01*
X152789405Y-68566304D01*
X152531486Y-68515000D01*
X152268514Y-68515000D01*
X152010595Y-68566304D01*
X151767641Y-68666939D01*
X151548987Y-68813038D01*
X151363038Y-68998987D01*
X151216939Y-69217641D01*
X151116304Y-69460595D01*
X151065000Y-69718514D01*
X142444691Y-69718514D01*
X141219132Y-68492956D01*
X141191415Y-68459183D01*
X141056657Y-68348589D01*
X140902911Y-68266411D01*
X140736088Y-68215805D01*
X140606075Y-68203000D01*
X140606067Y-68203000D01*
X140562598Y-68198719D01*
X140519129Y-68203000D01*
X136884975Y-68203000D01*
X136926962Y-68161013D01*
X137073061Y-67942359D01*
X137173696Y-67699405D01*
X137225000Y-67441486D01*
X137225000Y-67178514D01*
X147255000Y-67178514D01*
X147255000Y-67441486D01*
X147306304Y-67699405D01*
X147406939Y-67942359D01*
X147553038Y-68161013D01*
X147738987Y-68346962D01*
X147957641Y-68493061D01*
X148200595Y-68593696D01*
X148458514Y-68645000D01*
X148721486Y-68645000D01*
X148979405Y-68593696D01*
X149222359Y-68493061D01*
X149441013Y-68346962D01*
X149626962Y-68161013D01*
X149773061Y-67942359D01*
X149873696Y-67699405D01*
X149911567Y-67509017D01*
X152268090Y-67509017D01*
X152309078Y-67781133D01*
X152402364Y-68040023D01*
X152464344Y-68155980D01*
X152704435Y-68222960D01*
X153490395Y-67437000D01*
X153849605Y-67437000D01*
X154635565Y-68222960D01*
X154875656Y-68155980D01*
X154992756Y-67906952D01*
X155059023Y-67639865D01*
X155071910Y-67364983D01*
X155030922Y-67092867D01*
X154937636Y-66833977D01*
X154875656Y-66718020D01*
X154635565Y-66651040D01*
X153849605Y-67437000D01*
X153490395Y-67437000D01*
X152704435Y-66651040D01*
X152464344Y-66718020D01*
X152347244Y-66967048D01*
X152280977Y-67234135D01*
X152268090Y-67509017D01*
X149911567Y-67509017D01*
X149925000Y-67441486D01*
X149925000Y-67178514D01*
X149873696Y-66920595D01*
X149773061Y-66677641D01*
X149626962Y-66458987D01*
X149441013Y-66273038D01*
X149222359Y-66126939D01*
X148979405Y-66026304D01*
X148721486Y-65975000D01*
X148458514Y-65975000D01*
X148200595Y-66026304D01*
X147957641Y-66126939D01*
X147738987Y-66273038D01*
X147553038Y-66458987D01*
X147406939Y-66677641D01*
X147306304Y-66920595D01*
X147255000Y-67178514D01*
X137225000Y-67178514D01*
X137173696Y-66920595D01*
X137073061Y-66677641D01*
X136926962Y-66458987D01*
X136741013Y-66273038D01*
X136522359Y-66126939D01*
X136279405Y-66026304D01*
X136021486Y-65975000D01*
X135758514Y-65975000D01*
X135500595Y-66026304D01*
X135257641Y-66126939D01*
X135038987Y-66273038D01*
X134853038Y-66458987D01*
X134706939Y-66677641D01*
X134606304Y-66920595D01*
X134555000Y-67178514D01*
X134555000Y-67441486D01*
X134606304Y-67699405D01*
X134706939Y-67942359D01*
X134853038Y-68161013D01*
X134895025Y-68203000D01*
X132872454Y-68203000D01*
X132824256Y-68170795D01*
X132635898Y-68092774D01*
X132435939Y-68053000D01*
X132232061Y-68053000D01*
X132032102Y-68092774D01*
X131843744Y-68170795D01*
X131674226Y-68284063D01*
X131530063Y-68428226D01*
X131416795Y-68597744D01*
X131338774Y-68786102D01*
X131299000Y-68986061D01*
X131299000Y-69189939D01*
X131338774Y-69389898D01*
X131416795Y-69578256D01*
X131530063Y-69747774D01*
X131674226Y-69891937D01*
X131843744Y-70005205D01*
X132032102Y-70083226D01*
X132232061Y-70123000D01*
X132435939Y-70123000D01*
X132635898Y-70083226D01*
X132824256Y-70005205D01*
X132872454Y-69973000D01*
X135303711Y-69973000D01*
X135238832Y-70007679D01*
X135185723Y-70236118D01*
X135890000Y-70940395D01*
X136594277Y-70236118D01*
X136541168Y-70007679D01*
X136465841Y-69973000D01*
X140196020Y-69973000D01*
X140268834Y-70045814D01*
X140152327Y-70123662D01*
X139973662Y-70302327D01*
X139833286Y-70512414D01*
X139736594Y-70745850D01*
X139687300Y-70993665D01*
X139687300Y-71151122D01*
X139505721Y-71332701D01*
X137158036Y-71332701D01*
X137166843Y-71295934D01*
X137176631Y-71043454D01*
X137136975Y-70793916D01*
X137049399Y-70556908D01*
X137002321Y-70468832D01*
X136773882Y-70415723D01*
X136069605Y-71120000D01*
X136083748Y-71134143D01*
X135904143Y-71313748D01*
X135890000Y-71299605D01*
X135875858Y-71313748D01*
X135696253Y-71134143D01*
X135710395Y-71120000D01*
X135006118Y-70415723D01*
X134777679Y-70468832D01*
X134672015Y-70698347D01*
X134613157Y-70944066D01*
X134603369Y-71196546D01*
X134625006Y-71332701D01*
X134131000Y-71332701D01*
X134131000Y-71272061D01*
X134091226Y-71072102D01*
X134013205Y-70883744D01*
X133899937Y-70714226D01*
X133755774Y-70570063D01*
X133586256Y-70456795D01*
X133397898Y-70378774D01*
X133293998Y-70358107D01*
X133182313Y-70298411D01*
X133015490Y-70247805D01*
X132885477Y-70235000D01*
X132885469Y-70235000D01*
X132842000Y-70230719D01*
X132798531Y-70235000D01*
X131348454Y-70235000D01*
X131300256Y-70202795D01*
X131111898Y-70124774D01*
X130911939Y-70085000D01*
X130708061Y-70085000D01*
X130508102Y-70124774D01*
X130319744Y-70202795D01*
X130252701Y-70247592D01*
X130252701Y-68451170D01*
X130256982Y-68407701D01*
X130252701Y-68364232D01*
X130252701Y-68364224D01*
X130239896Y-68234211D01*
X130229680Y-68200535D01*
X130189290Y-68067387D01*
X130116421Y-67931058D01*
X130107112Y-67913642D01*
X129996518Y-67778884D01*
X129962745Y-67751167D01*
X129626536Y-67414958D01*
X129626531Y-67414952D01*
X129605000Y-67393421D01*
X129605000Y-67178514D01*
X129553696Y-66920595D01*
X129453061Y-66677641D01*
X129306962Y-66458987D01*
X129121013Y-66273038D01*
X128902359Y-66126939D01*
X128659405Y-66026304D01*
X128401486Y-65975000D01*
X128138514Y-65975000D01*
X127880595Y-66026304D01*
X127637641Y-66126939D01*
X127418987Y-66273038D01*
X127233038Y-66458987D01*
X127086939Y-66677641D01*
X126986304Y-66920595D01*
X126935000Y-67178514D01*
X126935000Y-67441486D01*
X126986304Y-67699405D01*
X127086939Y-67942359D01*
X127233038Y-68161013D01*
X127418987Y-68346962D01*
X127637641Y-68493061D01*
X127880595Y-68593696D01*
X128138514Y-68645000D01*
X128353421Y-68645000D01*
X128374952Y-68666531D01*
X128374958Y-68666536D01*
X128482702Y-68774280D01*
X128482702Y-69854480D01*
X128396335Y-69837300D01*
X128143665Y-69837300D01*
X127895850Y-69886594D01*
X127662414Y-69983286D01*
X127452327Y-70123662D01*
X127273662Y-70302327D01*
X127133286Y-70512414D01*
X127036594Y-70745850D01*
X126987300Y-70993665D01*
X126987300Y-71246335D01*
X127004479Y-71332701D01*
X125924280Y-71332701D01*
X125181535Y-70589957D01*
X125181531Y-70589952D01*
X125160000Y-70568421D01*
X125160000Y-70353514D01*
X125108696Y-70095595D01*
X125008061Y-69852641D01*
X124861962Y-69633987D01*
X124676013Y-69448038D01*
X124457359Y-69301939D01*
X124214405Y-69201304D01*
X123956486Y-69150000D01*
X123693514Y-69150000D01*
X123435595Y-69201304D01*
X123192641Y-69301939D01*
X122973987Y-69448038D01*
X122788038Y-69633987D01*
X122641939Y-69852641D01*
X122555000Y-70062530D01*
X122468061Y-69852641D01*
X122321962Y-69633987D01*
X122136013Y-69448038D01*
X121917359Y-69301939D01*
X121674405Y-69201304D01*
X121416486Y-69150000D01*
X121201579Y-69150000D01*
X120799636Y-68748057D01*
X120877510Y-68780314D01*
X121147408Y-68834000D01*
X121422592Y-68834000D01*
X121692490Y-68780314D01*
X121946727Y-68675005D01*
X122175535Y-68522120D01*
X122370120Y-68327535D01*
X122523005Y-68098727D01*
X122628314Y-67844490D01*
X122682000Y-67574592D01*
X122682000Y-67299408D01*
X122628314Y-67029510D01*
X122523005Y-66775273D01*
X122370120Y-66546465D01*
X122244655Y-66421000D01*
X122370120Y-66295535D01*
X122523005Y-66066727D01*
X122628314Y-65812490D01*
X122682000Y-65542592D01*
X122682000Y-65267408D01*
X122628314Y-64997510D01*
X122523005Y-64743273D01*
X122370120Y-64514465D01*
X122175535Y-64319880D01*
X121946727Y-64166995D01*
X121865917Y-64133522D01*
X121285000Y-63552605D01*
X120704083Y-64133522D01*
X120623273Y-64166995D01*
X120394465Y-64319880D01*
X120199880Y-64514465D01*
X120046995Y-64743273D01*
X119941686Y-64997510D01*
X119920966Y-65101678D01*
X119873478Y-65097001D01*
X119873470Y-65097001D01*
X119830001Y-65092720D01*
X119786532Y-65097001D01*
X119469324Y-65097001D01*
X119507000Y-64907592D01*
X119507000Y-64632408D01*
X119453314Y-64362510D01*
X119348005Y-64108273D01*
X119195120Y-63879465D01*
X119000535Y-63684880D01*
X118771727Y-63531995D01*
X118700057Y-63502308D01*
X118713023Y-63497636D01*
X118811466Y-63445017D01*
X119883090Y-63445017D01*
X119924078Y-63717133D01*
X120017364Y-63976023D01*
X120079344Y-64091980D01*
X120319435Y-64158960D01*
X121105395Y-63373000D01*
X121464605Y-63373000D01*
X122250565Y-64158960D01*
X122490656Y-64091980D01*
X122535126Y-63997408D01*
X128651000Y-63997408D01*
X128651000Y-64272592D01*
X128704686Y-64542490D01*
X128809995Y-64796727D01*
X128962880Y-65025535D01*
X129157465Y-65220120D01*
X129386273Y-65373005D01*
X129640510Y-65478314D01*
X129910408Y-65532000D01*
X130185592Y-65532000D01*
X130455490Y-65478314D01*
X130709727Y-65373005D01*
X130938535Y-65220120D01*
X131064000Y-65094655D01*
X131189465Y-65220120D01*
X131418273Y-65373005D01*
X131672510Y-65478314D01*
X131942408Y-65532000D01*
X132217592Y-65532000D01*
X132487490Y-65478314D01*
X132741727Y-65373005D01*
X132970535Y-65220120D01*
X133090090Y-65100565D01*
X133326040Y-65100565D01*
X133393020Y-65340656D01*
X133642048Y-65457756D01*
X133909135Y-65524023D01*
X134184017Y-65536910D01*
X134456133Y-65495922D01*
X134715023Y-65402636D01*
X134830980Y-65340656D01*
X134897960Y-65100565D01*
X134112000Y-64314605D01*
X133326040Y-65100565D01*
X133090090Y-65100565D01*
X133165120Y-65025535D01*
X133318005Y-64796727D01*
X133351478Y-64715917D01*
X133932395Y-64135000D01*
X134291605Y-64135000D01*
X135077565Y-64920960D01*
X135317656Y-64853980D01*
X135434756Y-64604952D01*
X135501023Y-64337865D01*
X135513910Y-64062983D01*
X135472922Y-63790867D01*
X135379636Y-63531977D01*
X135317656Y-63416020D01*
X135077565Y-63349040D01*
X134291605Y-64135000D01*
X133932395Y-64135000D01*
X133351478Y-63554083D01*
X133318005Y-63473273D01*
X133165120Y-63244465D01*
X133090090Y-63169435D01*
X133326040Y-63169435D01*
X134112000Y-63955395D01*
X134897960Y-63169435D01*
X134830980Y-62929344D01*
X134581952Y-62812244D01*
X134314865Y-62745977D01*
X134039983Y-62733090D01*
X133767867Y-62774078D01*
X133508977Y-62867364D01*
X133393020Y-62929344D01*
X133326040Y-63169435D01*
X133090090Y-63169435D01*
X132970535Y-63049880D01*
X132741727Y-62896995D01*
X132487490Y-62791686D01*
X132217592Y-62738000D01*
X131942408Y-62738000D01*
X131672510Y-62791686D01*
X131418273Y-62896995D01*
X131189465Y-63049880D01*
X131064000Y-63175345D01*
X130938535Y-63049880D01*
X130709727Y-62896995D01*
X130455490Y-62791686D01*
X130185592Y-62738000D01*
X129910408Y-62738000D01*
X129640510Y-62791686D01*
X129386273Y-62896995D01*
X129157465Y-63049880D01*
X128962880Y-63244465D01*
X128809995Y-63473273D01*
X128704686Y-63727510D01*
X128651000Y-63997408D01*
X122535126Y-63997408D01*
X122607756Y-63842952D01*
X122674023Y-63575865D01*
X122686910Y-63300983D01*
X122645922Y-63028867D01*
X122552636Y-62769977D01*
X122490656Y-62654020D01*
X122250565Y-62587040D01*
X121464605Y-63373000D01*
X121105395Y-63373000D01*
X120319435Y-62587040D01*
X120079344Y-62654020D01*
X119962244Y-62903048D01*
X119895977Y-63170135D01*
X119883090Y-63445017D01*
X118811466Y-63445017D01*
X118828980Y-63435656D01*
X118895960Y-63195565D01*
X118110000Y-62409605D01*
X117324040Y-63195565D01*
X117391020Y-63435656D01*
X117526760Y-63499485D01*
X117448273Y-63531995D01*
X117219465Y-63684880D01*
X117024880Y-63879465D01*
X116885651Y-64087835D01*
X115099833Y-62302017D01*
X116708090Y-62302017D01*
X116749078Y-62574133D01*
X116842364Y-62833023D01*
X116904344Y-62948980D01*
X117144435Y-63015960D01*
X117930395Y-62230000D01*
X118289605Y-62230000D01*
X119075565Y-63015960D01*
X119315656Y-62948980D01*
X119432756Y-62699952D01*
X119499023Y-62432865D01*
X119500215Y-62407435D01*
X120499040Y-62407435D01*
X121285000Y-63193395D01*
X122070960Y-62407435D01*
X122003980Y-62167344D01*
X121754952Y-62050244D01*
X121487865Y-61983977D01*
X121212983Y-61971090D01*
X120940867Y-62012078D01*
X120681977Y-62105364D01*
X120566020Y-62167344D01*
X120499040Y-62407435D01*
X119500215Y-62407435D01*
X119511910Y-62157983D01*
X119470922Y-61885867D01*
X119377636Y-61626977D01*
X119315656Y-61511020D01*
X119075565Y-61444040D01*
X118289605Y-62230000D01*
X117930395Y-62230000D01*
X117144435Y-61444040D01*
X116904344Y-61511020D01*
X116787244Y-61760048D01*
X116720977Y-62027135D01*
X116708090Y-62302017D01*
X115099833Y-62302017D01*
X114095001Y-61297185D01*
X114095001Y-59278470D01*
X114099282Y-59235001D01*
X114095001Y-59191532D01*
X114095001Y-59191524D01*
X114082196Y-59061511D01*
X114031590Y-58894688D01*
X113949412Y-58740942D01*
X113932626Y-58720488D01*
X113866533Y-58639954D01*
X113866531Y-58639952D01*
X113838818Y-58606184D01*
X113805050Y-58578471D01*
X113178535Y-57951957D01*
X113178531Y-57951952D01*
X113155701Y-57929122D01*
X113157000Y-57922592D01*
X113157000Y-57647408D01*
X113103314Y-57377510D01*
X112998005Y-57123273D01*
X112845120Y-56894465D01*
X112650535Y-56699880D01*
X112421727Y-56546995D01*
X112404840Y-56540000D01*
X116850569Y-56540000D01*
X116766686Y-56742510D01*
X116713000Y-57012408D01*
X116713000Y-57287592D01*
X116766686Y-57557490D01*
X116871995Y-57811727D01*
X117024880Y-58040535D01*
X117219465Y-58235120D01*
X117448273Y-58388005D01*
X117525515Y-58420000D01*
X117448273Y-58451995D01*
X117219465Y-58604880D01*
X117024880Y-58799465D01*
X116871995Y-59028273D01*
X116766686Y-59282510D01*
X116713000Y-59552408D01*
X116713000Y-59827592D01*
X116766686Y-60097490D01*
X116871995Y-60351727D01*
X117024880Y-60580535D01*
X117219465Y-60775120D01*
X117448273Y-60928005D01*
X117519943Y-60957692D01*
X117506977Y-60962364D01*
X117391020Y-61024344D01*
X117324040Y-61264435D01*
X118110000Y-62050395D01*
X118895960Y-61264435D01*
X118828980Y-61024344D01*
X118693240Y-60960515D01*
X118771727Y-60928005D01*
X119000535Y-60775120D01*
X119195120Y-60580535D01*
X119348005Y-60351727D01*
X119453314Y-60097490D01*
X119507000Y-59827592D01*
X119507000Y-59798579D01*
X120628470Y-60920049D01*
X120656183Y-60953817D01*
X120689951Y-60981530D01*
X120689953Y-60981532D01*
X120755038Y-61034946D01*
X120790941Y-61064411D01*
X120944687Y-61146589D01*
X121111510Y-61197195D01*
X121241523Y-61210000D01*
X121241533Y-61210000D01*
X121284999Y-61214281D01*
X121328466Y-61210000D01*
X122340375Y-61210000D01*
X122349188Y-61299482D01*
X122385498Y-61419180D01*
X122444463Y-61529494D01*
X122523815Y-61626185D01*
X122620506Y-61705537D01*
X122730820Y-61764502D01*
X122850518Y-61800812D01*
X122975000Y-61813072D01*
X124675000Y-61813072D01*
X124799482Y-61800812D01*
X124919180Y-61764502D01*
X125029494Y-61705537D01*
X125126185Y-61626185D01*
X125205537Y-61529494D01*
X125264502Y-61419180D01*
X125288966Y-61338534D01*
X125364731Y-61422588D01*
X125598080Y-61596641D01*
X125860901Y-61721825D01*
X126008110Y-61766476D01*
X126238000Y-61645155D01*
X126238000Y-60452000D01*
X126492000Y-60452000D01*
X126492000Y-61645155D01*
X126721890Y-61766476D01*
X126869099Y-61721825D01*
X127131920Y-61596641D01*
X127365269Y-61422588D01*
X127560178Y-61206355D01*
X127709157Y-60956252D01*
X127764950Y-60798967D01*
X130445000Y-60798967D01*
X130445000Y-61121033D01*
X130507832Y-61436912D01*
X130631082Y-61734463D01*
X130810013Y-62002252D01*
X131037748Y-62229987D01*
X131305537Y-62408918D01*
X131603088Y-62532168D01*
X131918967Y-62595000D01*
X132241033Y-62595000D01*
X132556912Y-62532168D01*
X132854463Y-62408918D01*
X133122252Y-62229987D01*
X133349987Y-62002252D01*
X133528918Y-61734463D01*
X133652168Y-61436912D01*
X133715000Y-61121033D01*
X133715000Y-60828514D01*
X134555000Y-60828514D01*
X134555000Y-61091486D01*
X134606304Y-61349405D01*
X134706939Y-61592359D01*
X134853038Y-61811013D01*
X135038987Y-61996962D01*
X135257641Y-62143061D01*
X135500595Y-62243696D01*
X135758514Y-62295000D01*
X136021486Y-62295000D01*
X136279405Y-62243696D01*
X136522359Y-62143061D01*
X136741013Y-61996962D01*
X136926962Y-61811013D01*
X137073061Y-61592359D01*
X137173696Y-61349405D01*
X137225000Y-61091486D01*
X137225000Y-60828514D01*
X142175000Y-60828514D01*
X142175000Y-61091486D01*
X142226304Y-61349405D01*
X142326939Y-61592359D01*
X142473038Y-61811013D01*
X142658987Y-61996962D01*
X142877641Y-62143061D01*
X143120595Y-62243696D01*
X143378514Y-62295000D01*
X143641486Y-62295000D01*
X143899405Y-62243696D01*
X144142359Y-62143061D01*
X144361013Y-61996962D01*
X144546962Y-61811013D01*
X144693061Y-61592359D01*
X144793696Y-61349405D01*
X144845000Y-61091486D01*
X144845000Y-60828514D01*
X144793696Y-60570595D01*
X144693061Y-60327641D01*
X144546962Y-60108987D01*
X144361013Y-59923038D01*
X144142359Y-59776939D01*
X143899405Y-59676304D01*
X143641486Y-59625000D01*
X143378514Y-59625000D01*
X143120595Y-59676304D01*
X142877641Y-59776939D01*
X142658987Y-59923038D01*
X142473038Y-60108987D01*
X142326939Y-60327641D01*
X142226304Y-60570595D01*
X142175000Y-60828514D01*
X137225000Y-60828514D01*
X137173696Y-60570595D01*
X137073061Y-60327641D01*
X136926962Y-60108987D01*
X136741013Y-59923038D01*
X136522359Y-59776939D01*
X136279405Y-59676304D01*
X136021486Y-59625000D01*
X135758514Y-59625000D01*
X135500595Y-59676304D01*
X135257641Y-59776939D01*
X135038987Y-59923038D01*
X134853038Y-60108987D01*
X134706939Y-60327641D01*
X134606304Y-60570595D01*
X134555000Y-60828514D01*
X133715000Y-60828514D01*
X133715000Y-60798967D01*
X133652168Y-60483088D01*
X133528918Y-60185537D01*
X133349987Y-59917748D01*
X133122252Y-59690013D01*
X132925450Y-59558514D01*
X147255000Y-59558514D01*
X147255000Y-59821486D01*
X147306304Y-60079405D01*
X147406939Y-60322359D01*
X147553038Y-60541013D01*
X147738987Y-60726962D01*
X147957641Y-60873061D01*
X148200595Y-60973696D01*
X148458514Y-61025000D01*
X148721486Y-61025000D01*
X148979405Y-60973696D01*
X149222359Y-60873061D01*
X149333249Y-60798967D01*
X150765000Y-60798967D01*
X150765000Y-61121033D01*
X150827832Y-61436912D01*
X150951082Y-61734463D01*
X151130013Y-62002252D01*
X151357748Y-62229987D01*
X151625537Y-62408918D01*
X151923088Y-62532168D01*
X152238967Y-62595000D01*
X152509686Y-62595000D01*
X152431995Y-62711273D01*
X152326686Y-62965510D01*
X152273000Y-63235408D01*
X152273000Y-63510592D01*
X152326686Y-63780490D01*
X152431995Y-64034727D01*
X152584880Y-64263535D01*
X152710345Y-64389000D01*
X152584880Y-64514465D01*
X152431995Y-64743273D01*
X152326686Y-64997510D01*
X152273000Y-65267408D01*
X152273000Y-65542592D01*
X152326686Y-65812490D01*
X152431995Y-66066727D01*
X152584880Y-66295535D01*
X152779465Y-66490120D01*
X153008273Y-66643005D01*
X153089083Y-66676478D01*
X153670000Y-67257395D01*
X154250917Y-66676478D01*
X154331727Y-66643005D01*
X154560535Y-66490120D01*
X154755120Y-66295535D01*
X154908005Y-66066727D01*
X155013314Y-65812490D01*
X155067000Y-65542592D01*
X155067000Y-65267408D01*
X155013314Y-64997510D01*
X154908005Y-64743273D01*
X154755120Y-64514465D01*
X154629655Y-64389000D01*
X154755120Y-64263535D01*
X154908005Y-64034727D01*
X155013314Y-63780490D01*
X155067000Y-63510592D01*
X155067000Y-63235408D01*
X155013314Y-62965510D01*
X154908005Y-62711273D01*
X154755120Y-62482465D01*
X154560535Y-62287880D01*
X154331727Y-62134995D01*
X154077490Y-62029686D01*
X153807592Y-61976000D01*
X153687528Y-61976000D01*
X153848918Y-61734463D01*
X153972168Y-61436912D01*
X154035000Y-61121033D01*
X154035000Y-60798967D01*
X153972168Y-60483088D01*
X153848918Y-60185537D01*
X153669987Y-59917748D01*
X153442252Y-59690013D01*
X153174463Y-59511082D01*
X152876912Y-59387832D01*
X152561033Y-59325000D01*
X152238967Y-59325000D01*
X151923088Y-59387832D01*
X151625537Y-59511082D01*
X151357748Y-59690013D01*
X151130013Y-59917748D01*
X150951082Y-60185537D01*
X150827832Y-60483088D01*
X150765000Y-60798967D01*
X149333249Y-60798967D01*
X149441013Y-60726962D01*
X149626962Y-60541013D01*
X149773061Y-60322359D01*
X149873696Y-60079405D01*
X149925000Y-59821486D01*
X149925000Y-59558514D01*
X149873696Y-59300595D01*
X149773061Y-59057641D01*
X149626962Y-58838987D01*
X149441013Y-58653038D01*
X149222359Y-58506939D01*
X148979405Y-58406304D01*
X148721486Y-58355000D01*
X148458514Y-58355000D01*
X148200595Y-58406304D01*
X147957641Y-58506939D01*
X147738987Y-58653038D01*
X147553038Y-58838987D01*
X147406939Y-59057641D01*
X147306304Y-59300595D01*
X147255000Y-59558514D01*
X132925450Y-59558514D01*
X132854463Y-59511082D01*
X132556912Y-59387832D01*
X132241033Y-59325000D01*
X131918967Y-59325000D01*
X131603088Y-59387832D01*
X131305537Y-59511082D01*
X131037748Y-59690013D01*
X130810013Y-59917748D01*
X130631082Y-60185537D01*
X130507832Y-60483088D01*
X130445000Y-60798967D01*
X127764950Y-60798967D01*
X127806481Y-60681891D01*
X127685814Y-60452000D01*
X126492000Y-60452000D01*
X126238000Y-60452000D01*
X126218000Y-60452000D01*
X126218000Y-60198000D01*
X126238000Y-60198000D01*
X126238000Y-59004845D01*
X126492000Y-59004845D01*
X126492000Y-60198000D01*
X127685814Y-60198000D01*
X127806481Y-59968109D01*
X127709157Y-59693748D01*
X127560178Y-59443645D01*
X127365269Y-59227412D01*
X127131920Y-59053359D01*
X126869099Y-58928175D01*
X126721890Y-58883524D01*
X126492000Y-59004845D01*
X126238000Y-59004845D01*
X126008110Y-58883524D01*
X125860901Y-58928175D01*
X125598080Y-59053359D01*
X125364731Y-59227412D01*
X125288966Y-59311466D01*
X125264502Y-59230820D01*
X125205537Y-59120506D01*
X125126185Y-59023815D01*
X125029494Y-58944463D01*
X124919180Y-58885498D01*
X124799482Y-58849188D01*
X124675000Y-58836928D01*
X122975000Y-58836928D01*
X122850518Y-58849188D01*
X122730820Y-58885498D01*
X122620506Y-58944463D01*
X122523815Y-59023815D01*
X122444463Y-59120506D01*
X122385498Y-59230820D01*
X122349188Y-59350518D01*
X122340375Y-59440000D01*
X121651579Y-59440000D01*
X119505701Y-57294123D01*
X119507000Y-57287592D01*
X119507000Y-57012408D01*
X119453314Y-56742510D01*
X119369431Y-56540000D01*
X131435160Y-56540000D01*
X131418273Y-56546995D01*
X131189465Y-56699880D01*
X130994880Y-56894465D01*
X130841995Y-57123273D01*
X130736686Y-57377510D01*
X130683000Y-57647408D01*
X130683000Y-57922592D01*
X130736686Y-58192490D01*
X130841995Y-58446727D01*
X130994880Y-58675535D01*
X131189465Y-58870120D01*
X131418273Y-59023005D01*
X131672510Y-59128314D01*
X131942408Y-59182000D01*
X132217592Y-59182000D01*
X132487490Y-59128314D01*
X132741727Y-59023005D01*
X132970535Y-58870120D01*
X133165120Y-58675535D01*
X133318005Y-58446727D01*
X133423314Y-58192490D01*
X133477000Y-57922592D01*
X133477000Y-57647408D01*
X133423314Y-57377510D01*
X133318005Y-57123273D01*
X133165120Y-56894465D01*
X132970535Y-56699880D01*
X132741727Y-56546995D01*
X132724840Y-56540000D01*
X151755160Y-56540000D01*
X151738273Y-56546995D01*
X151509465Y-56699880D01*
X151314880Y-56894465D01*
X151161995Y-57123273D01*
X151056686Y-57377510D01*
X151003000Y-57647408D01*
X151003000Y-57922592D01*
X151056686Y-58192490D01*
X151161995Y-58446727D01*
X151314880Y-58675535D01*
X151509465Y-58870120D01*
X151738273Y-59023005D01*
X151992510Y-59128314D01*
X152262408Y-59182000D01*
X152537592Y-59182000D01*
X152807490Y-59128314D01*
X153061727Y-59023005D01*
X153290535Y-58870120D01*
X153485120Y-58675535D01*
X153638005Y-58446727D01*
X153743314Y-58192490D01*
X153797000Y-57922592D01*
X153797000Y-57647408D01*
X153743314Y-57377510D01*
X153638005Y-57123273D01*
X153485120Y-56894465D01*
X153290535Y-56699880D01*
X153061727Y-56546995D01*
X153044840Y-56540000D01*
X156820000Y-56540000D01*
X156820001Y-126340000D01*
X87020000Y-126340000D01*
X87020000Y-121758967D01*
X89805000Y-121758967D01*
X89805000Y-122081033D01*
X89867832Y-122396912D01*
X89991082Y-122694463D01*
X90170013Y-122962252D01*
X90397748Y-123189987D01*
X90665537Y-123368918D01*
X90963088Y-123492168D01*
X91278967Y-123555000D01*
X91601033Y-123555000D01*
X91916912Y-123492168D01*
X92214463Y-123368918D01*
X92482252Y-123189987D01*
X92709987Y-122962252D01*
X92888918Y-122694463D01*
X93012168Y-122396912D01*
X93075000Y-122081033D01*
X93075000Y-121758967D01*
X110125000Y-121758967D01*
X110125000Y-122081033D01*
X110187832Y-122396912D01*
X110311082Y-122694463D01*
X110490013Y-122962252D01*
X110717748Y-123189987D01*
X110985537Y-123368918D01*
X111283088Y-123492168D01*
X111598967Y-123555000D01*
X111921033Y-123555000D01*
X112236912Y-123492168D01*
X112534463Y-123368918D01*
X112802252Y-123189987D01*
X113029987Y-122962252D01*
X113208918Y-122694463D01*
X113332168Y-122396912D01*
X113395000Y-122081033D01*
X113395000Y-121758967D01*
X130445000Y-121758967D01*
X130445000Y-122081033D01*
X130507832Y-122396912D01*
X130631082Y-122694463D01*
X130810013Y-122962252D01*
X131037748Y-123189987D01*
X131305537Y-123368918D01*
X131603088Y-123492168D01*
X131918967Y-123555000D01*
X132241033Y-123555000D01*
X132556912Y-123492168D01*
X132854463Y-123368918D01*
X133122252Y-123189987D01*
X133349987Y-122962252D01*
X133528918Y-122694463D01*
X133652168Y-122396912D01*
X133715000Y-122081033D01*
X133715000Y-121758967D01*
X150765000Y-121758967D01*
X150765000Y-122081033D01*
X150827832Y-122396912D01*
X150951082Y-122694463D01*
X151130013Y-122962252D01*
X151357748Y-123189987D01*
X151625537Y-123368918D01*
X151923088Y-123492168D01*
X152238967Y-123555000D01*
X152561033Y-123555000D01*
X152876912Y-123492168D01*
X153174463Y-123368918D01*
X153442252Y-123189987D01*
X153669987Y-122962252D01*
X153848918Y-122694463D01*
X153972168Y-122396912D01*
X154035000Y-122081033D01*
X154035000Y-121758967D01*
X153972168Y-121443088D01*
X153848918Y-121145537D01*
X153669987Y-120877748D01*
X153442252Y-120650013D01*
X153174463Y-120471082D01*
X152876912Y-120347832D01*
X152561033Y-120285000D01*
X152238967Y-120285000D01*
X151923088Y-120347832D01*
X151625537Y-120471082D01*
X151357748Y-120650013D01*
X151130013Y-120877748D01*
X150951082Y-121145537D01*
X150827832Y-121443088D01*
X150765000Y-121758967D01*
X133715000Y-121758967D01*
X133652168Y-121443088D01*
X133528918Y-121145537D01*
X133349987Y-120877748D01*
X133122252Y-120650013D01*
X132854463Y-120471082D01*
X132556912Y-120347832D01*
X132241033Y-120285000D01*
X131918967Y-120285000D01*
X131603088Y-120347832D01*
X131305537Y-120471082D01*
X131037748Y-120650013D01*
X130810013Y-120877748D01*
X130631082Y-121145537D01*
X130507832Y-121443088D01*
X130445000Y-121758967D01*
X113395000Y-121758967D01*
X113332168Y-121443088D01*
X113208918Y-121145537D01*
X113029987Y-120877748D01*
X112802252Y-120650013D01*
X112534463Y-120471082D01*
X112236912Y-120347832D01*
X111921033Y-120285000D01*
X111598967Y-120285000D01*
X111283088Y-120347832D01*
X110985537Y-120471082D01*
X110717748Y-120650013D01*
X110490013Y-120877748D01*
X110311082Y-121145537D01*
X110187832Y-121443088D01*
X110125000Y-121758967D01*
X93075000Y-121758967D01*
X93012168Y-121443088D01*
X92888918Y-121145537D01*
X92709987Y-120877748D01*
X92482252Y-120650013D01*
X92214463Y-120471082D01*
X91916912Y-120347832D01*
X91601033Y-120285000D01*
X91278967Y-120285000D01*
X90963088Y-120347832D01*
X90665537Y-120471082D01*
X90397748Y-120650013D01*
X90170013Y-120877748D01*
X89991082Y-121145537D01*
X89867832Y-121443088D01*
X89805000Y-121758967D01*
X87020000Y-121758967D01*
X87020000Y-117978514D01*
X90105000Y-117978514D01*
X90105000Y-118241486D01*
X90156304Y-118499405D01*
X90256939Y-118742359D01*
X90403038Y-118961013D01*
X90588987Y-119146962D01*
X90807641Y-119293061D01*
X91050595Y-119393696D01*
X91308514Y-119445000D01*
X91571486Y-119445000D01*
X91829405Y-119393696D01*
X92072359Y-119293061D01*
X92291013Y-119146962D01*
X92476962Y-118961013D01*
X92623061Y-118742359D01*
X92723696Y-118499405D01*
X92775000Y-118241486D01*
X92775000Y-117978514D01*
X110425000Y-117978514D01*
X110425000Y-118241486D01*
X110476304Y-118499405D01*
X110576939Y-118742359D01*
X110723038Y-118961013D01*
X110908987Y-119146962D01*
X111127641Y-119293061D01*
X111370595Y-119393696D01*
X111628514Y-119445000D01*
X111891486Y-119445000D01*
X112149405Y-119393696D01*
X112392359Y-119293061D01*
X112611013Y-119146962D01*
X112796962Y-118961013D01*
X112943061Y-118742359D01*
X113043696Y-118499405D01*
X113095000Y-118241486D01*
X113095000Y-117978514D01*
X130745000Y-117978514D01*
X130745000Y-118241486D01*
X130796304Y-118499405D01*
X130896939Y-118742359D01*
X131043038Y-118961013D01*
X131228987Y-119146962D01*
X131447641Y-119293061D01*
X131690595Y-119393696D01*
X131948514Y-119445000D01*
X132211486Y-119445000D01*
X132469405Y-119393696D01*
X132712359Y-119293061D01*
X132931013Y-119146962D01*
X133116962Y-118961013D01*
X133263061Y-118742359D01*
X133363696Y-118499405D01*
X133415000Y-118241486D01*
X133415000Y-117978514D01*
X151065000Y-117978514D01*
X151065000Y-118241486D01*
X151116304Y-118499405D01*
X151216939Y-118742359D01*
X151363038Y-118961013D01*
X151548987Y-119146962D01*
X151767641Y-119293061D01*
X152010595Y-119393696D01*
X152268514Y-119445000D01*
X152531486Y-119445000D01*
X152789405Y-119393696D01*
X153032359Y-119293061D01*
X153251013Y-119146962D01*
X153436962Y-118961013D01*
X153583061Y-118742359D01*
X153683696Y-118499405D01*
X153735000Y-118241486D01*
X153735000Y-117978514D01*
X153683696Y-117720595D01*
X153583061Y-117477641D01*
X153436962Y-117258987D01*
X153251013Y-117073038D01*
X153032359Y-116926939D01*
X152789405Y-116826304D01*
X152531486Y-116775000D01*
X152268514Y-116775000D01*
X152010595Y-116826304D01*
X151767641Y-116926939D01*
X151548987Y-117073038D01*
X151363038Y-117258987D01*
X151216939Y-117477641D01*
X151116304Y-117720595D01*
X151065000Y-117978514D01*
X133415000Y-117978514D01*
X133363696Y-117720595D01*
X133263061Y-117477641D01*
X133116962Y-117258987D01*
X132931013Y-117073038D01*
X132712359Y-116926939D01*
X132469405Y-116826304D01*
X132211486Y-116775000D01*
X131948514Y-116775000D01*
X131690595Y-116826304D01*
X131447641Y-116926939D01*
X131228987Y-117073038D01*
X131043038Y-117258987D01*
X130896939Y-117477641D01*
X130796304Y-117720595D01*
X130745000Y-117978514D01*
X113095000Y-117978514D01*
X113043696Y-117720595D01*
X112943061Y-117477641D01*
X112796962Y-117258987D01*
X112611013Y-117073038D01*
X112392359Y-116926939D01*
X112149405Y-116826304D01*
X111891486Y-116775000D01*
X111628514Y-116775000D01*
X111370595Y-116826304D01*
X111127641Y-116926939D01*
X110908987Y-117073038D01*
X110723038Y-117258987D01*
X110576939Y-117477641D01*
X110476304Y-117720595D01*
X110425000Y-117978514D01*
X92775000Y-117978514D01*
X92723696Y-117720595D01*
X92623061Y-117477641D01*
X92476962Y-117258987D01*
X92291013Y-117073038D01*
X92072359Y-116926939D01*
X91829405Y-116826304D01*
X91571486Y-116775000D01*
X91308514Y-116775000D01*
X91050595Y-116826304D01*
X90807641Y-116926939D01*
X90588987Y-117073038D01*
X90403038Y-117258987D01*
X90256939Y-117477641D01*
X90156304Y-117720595D01*
X90105000Y-117978514D01*
X87020000Y-117978514D01*
X87020000Y-110358514D01*
X90105000Y-110358514D01*
X90105000Y-110621486D01*
X90156304Y-110879405D01*
X90256939Y-111122359D01*
X90403038Y-111341013D01*
X90588987Y-111526962D01*
X90807641Y-111673061D01*
X91050595Y-111773696D01*
X91308514Y-111825000D01*
X91571486Y-111825000D01*
X91829405Y-111773696D01*
X92072359Y-111673061D01*
X92291013Y-111526962D01*
X92476962Y-111341013D01*
X92623061Y-111122359D01*
X92723696Y-110879405D01*
X92775000Y-110621486D01*
X92775000Y-110358514D01*
X92723696Y-110100595D01*
X92623061Y-109857641D01*
X92476962Y-109638987D01*
X92291013Y-109453038D01*
X92072359Y-109306939D01*
X91829405Y-109206304D01*
X91571486Y-109155000D01*
X91308514Y-109155000D01*
X91050595Y-109206304D01*
X90807641Y-109306939D01*
X90588987Y-109453038D01*
X90403038Y-109638987D01*
X90256939Y-109857641D01*
X90156304Y-110100595D01*
X90105000Y-110358514D01*
X87020000Y-110358514D01*
X87020000Y-101438967D01*
X89805000Y-101438967D01*
X89805000Y-101761033D01*
X89867832Y-102076912D01*
X89991082Y-102374463D01*
X90170013Y-102642252D01*
X90397748Y-102869987D01*
X90665537Y-103048918D01*
X90963088Y-103172168D01*
X91278967Y-103235000D01*
X91601033Y-103235000D01*
X91916912Y-103172168D01*
X92214463Y-103048918D01*
X92482252Y-102869987D01*
X92709987Y-102642252D01*
X92888918Y-102374463D01*
X93012168Y-102076912D01*
X93075000Y-101761033D01*
X93075000Y-101438967D01*
X93012168Y-101123088D01*
X92888918Y-100825537D01*
X92709987Y-100557748D01*
X92482252Y-100330013D01*
X92214463Y-100151082D01*
X91916912Y-100027832D01*
X91601033Y-99965000D01*
X91278967Y-99965000D01*
X90963088Y-100027832D01*
X90665537Y-100151082D01*
X90397748Y-100330013D01*
X90170013Y-100557748D01*
X89991082Y-100825537D01*
X89867832Y-101123088D01*
X89805000Y-101438967D01*
X87020000Y-101438967D01*
X87020000Y-97658514D01*
X90105000Y-97658514D01*
X90105000Y-97921486D01*
X90156304Y-98179405D01*
X90256939Y-98422359D01*
X90403038Y-98641013D01*
X90588987Y-98826962D01*
X90807641Y-98973061D01*
X91050595Y-99073696D01*
X91308514Y-99125000D01*
X91571486Y-99125000D01*
X91829405Y-99073696D01*
X92072359Y-98973061D01*
X92291013Y-98826962D01*
X92476962Y-98641013D01*
X92623061Y-98422359D01*
X92723696Y-98179405D01*
X92775000Y-97921486D01*
X92775000Y-97658514D01*
X92723696Y-97400595D01*
X92623061Y-97157641D01*
X92476962Y-96938987D01*
X92291013Y-96753038D01*
X92072359Y-96606939D01*
X91829405Y-96506304D01*
X91571486Y-96455000D01*
X91308514Y-96455000D01*
X91050595Y-96506304D01*
X90807641Y-96606939D01*
X90588987Y-96753038D01*
X90403038Y-96938987D01*
X90256939Y-97157641D01*
X90156304Y-97400595D01*
X90105000Y-97658514D01*
X87020000Y-97658514D01*
X87020000Y-81118967D01*
X89805000Y-81118967D01*
X89805000Y-81441033D01*
X89867832Y-81756912D01*
X89991082Y-82054463D01*
X90170013Y-82322252D01*
X90397748Y-82549987D01*
X90665537Y-82728918D01*
X90963088Y-82852168D01*
X91278967Y-82915000D01*
X91601033Y-82915000D01*
X91916912Y-82852168D01*
X92214463Y-82728918D01*
X92482252Y-82549987D01*
X92709987Y-82322252D01*
X92888918Y-82054463D01*
X93012168Y-81756912D01*
X93075000Y-81441033D01*
X93075000Y-81118967D01*
X93012168Y-80803088D01*
X92888918Y-80505537D01*
X92709987Y-80237748D01*
X92482252Y-80010013D01*
X92214463Y-79831082D01*
X91916912Y-79707832D01*
X91601033Y-79645000D01*
X91278967Y-79645000D01*
X90963088Y-79707832D01*
X90665537Y-79831082D01*
X90397748Y-80010013D01*
X90170013Y-80237748D01*
X89991082Y-80505537D01*
X89867832Y-80803088D01*
X89805000Y-81118967D01*
X87020000Y-81118967D01*
X87020000Y-77338514D01*
X90105000Y-77338514D01*
X90105000Y-77601486D01*
X90156304Y-77859405D01*
X90256939Y-78102359D01*
X90403038Y-78321013D01*
X90588987Y-78506962D01*
X90807641Y-78653061D01*
X91050595Y-78753696D01*
X91308514Y-78805000D01*
X91571486Y-78805000D01*
X91829405Y-78753696D01*
X92072359Y-78653061D01*
X92291013Y-78506962D01*
X92476962Y-78321013D01*
X92623061Y-78102359D01*
X92723696Y-77859405D01*
X92775000Y-77601486D01*
X92775000Y-77338514D01*
X92723696Y-77080595D01*
X92623061Y-76837641D01*
X92476962Y-76618987D01*
X92291013Y-76433038D01*
X92072359Y-76286939D01*
X91829405Y-76186304D01*
X91571486Y-76135000D01*
X91308514Y-76135000D01*
X91050595Y-76186304D01*
X90807641Y-76286939D01*
X90588987Y-76433038D01*
X90403038Y-76618987D01*
X90256939Y-76837641D01*
X90156304Y-77080595D01*
X90105000Y-77338514D01*
X87020000Y-77338514D01*
X87020000Y-63445017D01*
X89403090Y-63445017D01*
X89444078Y-63717133D01*
X89537364Y-63976023D01*
X89599344Y-64091980D01*
X89839435Y-64158960D01*
X90625395Y-63373000D01*
X89839435Y-62587040D01*
X89599344Y-62654020D01*
X89482244Y-62903048D01*
X89415977Y-63170135D01*
X89403090Y-63445017D01*
X87020000Y-63445017D01*
X87020000Y-60798967D01*
X89805000Y-60798967D01*
X89805000Y-61121033D01*
X89867832Y-61436912D01*
X89991082Y-61734463D01*
X90170013Y-62002252D01*
X90254279Y-62086518D01*
X90201977Y-62105364D01*
X90086020Y-62167344D01*
X90019040Y-62407435D01*
X90805000Y-63193395D01*
X90819143Y-63179253D01*
X90998748Y-63358858D01*
X90984605Y-63373000D01*
X91770565Y-64158960D01*
X92010656Y-64091980D01*
X92127756Y-63842952D01*
X92194023Y-63575865D01*
X92206910Y-63300983D01*
X92165922Y-63028867D01*
X92072636Y-62769977D01*
X92010656Y-62654020D01*
X91770567Y-62587041D01*
X91802727Y-62554881D01*
X91916912Y-62532168D01*
X92214463Y-62408918D01*
X92482252Y-62229987D01*
X92709987Y-62002252D01*
X92888918Y-61734463D01*
X93012168Y-61436912D01*
X93075000Y-61121033D01*
X93075000Y-60798967D01*
X93012168Y-60483088D01*
X92888918Y-60185537D01*
X92709987Y-59917748D01*
X92482252Y-59690013D01*
X92285450Y-59558514D01*
X93915000Y-59558514D01*
X93915000Y-59821486D01*
X93966304Y-60079405D01*
X94066939Y-60322359D01*
X94213038Y-60541013D01*
X94398987Y-60726962D01*
X94617641Y-60873061D01*
X94860595Y-60973696D01*
X95118514Y-61025000D01*
X95381486Y-61025000D01*
X95639405Y-60973696D01*
X95882359Y-60873061D01*
X96101013Y-60726962D01*
X96286962Y-60541013D01*
X96433061Y-60322359D01*
X96533696Y-60079405D01*
X96585000Y-59821486D01*
X96585000Y-59558514D01*
X96533696Y-59300595D01*
X96433061Y-59057641D01*
X96286962Y-58838987D01*
X96101013Y-58653038D01*
X95882359Y-58506939D01*
X95639405Y-58406304D01*
X95381486Y-58355000D01*
X95118514Y-58355000D01*
X94860595Y-58406304D01*
X94617641Y-58506939D01*
X94398987Y-58653038D01*
X94213038Y-58838987D01*
X94066939Y-59057641D01*
X93966304Y-59300595D01*
X93915000Y-59558514D01*
X92285450Y-59558514D01*
X92214463Y-59511082D01*
X91916912Y-59387832D01*
X91601033Y-59325000D01*
X91278967Y-59325000D01*
X90963088Y-59387832D01*
X90665537Y-59511082D01*
X90397748Y-59690013D01*
X90170013Y-59917748D01*
X89991082Y-60185537D01*
X89867832Y-60483088D01*
X89805000Y-60798967D01*
X87020000Y-60798967D01*
X87020000Y-56540000D01*
X90795160Y-56540000D01*
X90778273Y-56546995D01*
M02*
