M48
; DRILL file {KiCad 5.1.5+dfsg1-2build2} date Tue 27 Jul 2021 09:04:42 PM CDT
; FORMAT={-:-/ absolute / inch / decimal}
; #@! TF.CreationDate,2021-07-27T21:04:42-05:00
; #@! TF.GenerationSoftware,Kicad,Pcbnew,5.1.5+dfsg1-2build2
; #@! TF.FileFunction,Plated,1,2,PTH
FMAT,2
INCH
T1C0.0157
T2C0.0276
T3C0.0300
T4C0.0310
T5C0.0335
T6C0.0339
T7C0.0394
T8C0.0591
%
G90
G05
T1
X3.91Y-4.2463
X4.28Y-2.91
X4.36Y-2.83
X4.8077Y-3.2977
X4.86Y-3.49
X4.87Y-3.4
X4.9Y-4.1
X4.99Y-3.12
X5.12Y-3.05
X5.12Y-3.26
X5.12Y-3.42
X5.15Y-2.8
X5.16Y-3.26
X5.18Y-3.03
X5.21Y-2.72
X5.22Y-2.88
X5.24Y-2.81
X5.26Y-3.49
X5.2709Y-3.2609
X5.31Y-2.95
X5.44Y-3.27
X5.4809Y-3.8509
X5.5932Y-3.3332
X5.6267Y-3.5892
T2
X4.775Y-2.775
X4.775Y-3.075
X3.6Y-3.55
X3.6Y-3.85
X5.35Y-2.4
X5.65Y-2.4
X5.2Y-3.58
X5.2Y-3.88
X6.0Y-2.75
X6.0Y-3.05
X4.875Y-2.775
X4.875Y-3.075
X3.75Y-2.35
X3.75Y-2.65
X3.6Y-2.75
X3.6Y-3.05
X6.0Y-4.35
X6.0Y-4.65
X5.05Y-2.65
X5.35Y-2.65
X4.4Y-4.35
X4.4Y-4.65
X3.6Y-4.35
X3.6Y-4.65
X6.0Y-3.55
X6.0Y-3.85
X5.2Y-4.35
X5.2Y-4.65
X3.95Y-4.325
X4.25Y-4.325
X5.85Y-2.35
X5.85Y-2.65
T3
X5.2Y-2.275
X4.4Y-2.275
X3.6Y-2.275
X6.0Y-2.275
X3.95Y-2.25
X3.95Y-2.35
X3.95Y-2.45
X3.95Y-2.55
X3.95Y-2.65
X3.95Y-2.75
X3.95Y-2.85
X3.95Y-2.95
X3.95Y-3.05
X3.95Y-3.15
X3.95Y-3.25
X3.95Y-3.35
X3.95Y-3.45
X3.95Y-3.55
X3.95Y-3.65
X3.95Y-3.75
X3.95Y-3.85
X3.95Y-3.95
X3.95Y-4.05
X3.95Y-4.15
X4.65Y-2.25
X4.65Y-2.35
X4.65Y-2.45
X4.65Y-2.55
X4.65Y-2.65
X4.65Y-2.75
X4.65Y-2.85
X4.65Y-2.95
X4.65Y-3.05
X4.65Y-3.15
X4.65Y-3.25
X4.65Y-3.35
X4.65Y-3.45
X4.65Y-3.55
X4.65Y-3.65
X4.65Y-3.75
X4.65Y-3.85
X4.65Y-3.95
X4.65Y-4.05
X4.65Y-4.15
T4
X5.55Y-2.8
X5.55Y-2.9
X5.55Y-3.0
X5.55Y-3.1
X5.55Y-3.2
X5.55Y-3.3
X5.55Y-3.4
X5.55Y-3.5
X5.85Y-2.8
X5.85Y-2.9
X5.85Y-3.0
X5.85Y-3.1
X5.85Y-3.2
X5.85Y-3.3
X5.85Y-3.4
X5.85Y-3.5
X5.05Y-2.8
X5.05Y-2.9
X5.05Y-3.0
X5.05Y-3.1
X5.05Y-3.2
X5.05Y-3.3
X5.05Y-3.4
X5.05Y-3.5
X5.35Y-2.8
X5.35Y-2.9
X5.35Y-3.0
X5.35Y-3.1
X5.35Y-3.2
X5.35Y-3.3
X5.35Y-3.4
X5.35Y-3.5
T5
X6.05Y-2.575
X6.05Y-2.655
X4.775Y-2.495
X4.775Y-2.575
X5.2Y-2.525
X5.28Y-2.525
X3.575Y-2.495
X3.575Y-2.575
T6
X6.05Y-2.495
X4.775Y-2.655
X5.12Y-2.525
X3.575Y-2.655
T7
X3.8Y-2.75
X3.8Y-2.85
X3.8Y-2.95
X3.8Y-3.05
X3.8Y-3.15
X3.8Y-3.25
X3.8Y-3.35
X3.8Y-3.45
X3.8Y-3.55
X3.8Y-3.65
X3.8Y-3.75
X3.8Y-3.85
X3.8Y-3.95
X3.8Y-4.05
X3.8Y-4.15
X4.875Y-2.375
X4.975Y-2.375
T8
X3.6Y-2.4
X3.6Y-3.2
X3.6Y-4.0
X3.6Y-4.8
X4.4Y-2.4
X4.4Y-3.2
X4.4Y-4.0
X4.4Y-4.8
X5.2Y-2.4
X5.2Y-3.2
X5.2Y-4.0
X5.2Y-4.8
X6.0Y-2.4
X6.0Y-3.2
X6.0Y-4.0
X6.0Y-4.8
T0
M30
